<mxfile host="app.diagrams.net" modified="2023-10-28T11:03:00.191Z" agent="Mozilla/5.0 (Macintosh; Intel Mac OS X 10_15_7) AppleWebKit/605.1.15 (KHTML, like Gecko) Version/15.4 Safari/605.1.15" etag="Zo6xWOnPSRtXc1ovWyUS" version="22.0.8" type="device">
  <diagram name="Страница — 1" id="N9WujYdHZ4MV4CMBsZ7O">
    <mxGraphModel dx="1026" dy="692" grid="0" gridSize="10" guides="1" tooltips="1" connect="1" arrows="1" fold="1" page="1" pageScale="1" pageWidth="3300" pageHeight="4681" background="#FFFFFF" math="0" shadow="0">
      <root>
        <mxCell id="0" />
        <mxCell id="1" parent="0" />
        <mxCell id="j-sWp2HfxqR8ignj8HMA-3" value="" style="rounded=0;whiteSpace=wrap;html=1;strokeColor=#BAC8D3;fontColor=#182E3E;fillColor=#B1DDF0;labelBackgroundColor=none;" parent="1" vertex="1">
          <mxGeometry x="2133" y="149" width="120" height="60" as="geometry" />
        </mxCell>
        <mxCell id="j-sWp2HfxqR8ignj8HMA-2" value="Global DB" style="text;html=1;strokeColor=none;fillColor=none;align=center;verticalAlign=middle;whiteSpace=wrap;rounded=0;fontColor=#182E3E;labelBackgroundColor=none;" parent="1" vertex="1">
          <mxGeometry x="2163" y="164" width="60" height="30" as="geometry" />
        </mxCell>
        <mxCell id="j-sWp2HfxqR8ignj8HMA-4" value="" style="rounded=0;whiteSpace=wrap;html=1;strokeColor=#BAC8D3;fontColor=#182E3E;fillColor=#B1DDF0;labelBackgroundColor=none;" parent="1" vertex="1">
          <mxGeometry x="708" y="279" width="120" height="60" as="geometry" />
        </mxCell>
        <mxCell id="j-sWp2HfxqR8ignj8HMA-5" value="Department&lt;br&gt;DB" style="text;html=1;strokeColor=none;fillColor=none;align=center;verticalAlign=middle;whiteSpace=wrap;rounded=0;fontColor=#182E3E;labelBackgroundColor=none;" parent="1" vertex="1">
          <mxGeometry x="738" y="294" width="60" height="30" as="geometry" />
        </mxCell>
        <mxCell id="j-sWp2HfxqR8ignj8HMA-8" value="" style="rounded=0;whiteSpace=wrap;html=1;strokeColor=#BAC8D3;fontColor=#182E3E;fillColor=#B1DDF0;labelBackgroundColor=none;" parent="1" vertex="1">
          <mxGeometry x="2388" y="391.5" width="150" height="80" as="geometry" />
        </mxCell>
        <mxCell id="j-sWp2HfxqR8ignj8HMA-9" value="" style="rounded=0;whiteSpace=wrap;html=1;strokeColor=#BAC8D3;fontColor=#182E3E;fillColor=#B1DDF0;labelBackgroundColor=none;" parent="1" vertex="1">
          <mxGeometry x="2398" y="401.5" width="130" height="60" as="geometry" />
        </mxCell>
        <mxCell id="j-sWp2HfxqR8ignj8HMA-10" value="Limits Table" style="text;html=1;strokeColor=none;fillColor=none;align=center;verticalAlign=middle;whiteSpace=wrap;rounded=0;fontColor=#182E3E;labelBackgroundColor=none;" parent="1" vertex="1">
          <mxGeometry x="2418" y="414" width="90" height="35" as="geometry" />
        </mxCell>
        <mxCell id="j-sWp2HfxqR8ignj8HMA-11" value="" style="rounded=0;whiteSpace=wrap;html=1;strokeColor=#BAC8D3;fontColor=#182E3E;fillColor=#B1DDF0;labelBackgroundColor=none;" parent="1" vertex="1">
          <mxGeometry x="1831" y="394" width="150" height="80" as="geometry" />
        </mxCell>
        <mxCell id="j-sWp2HfxqR8ignj8HMA-12" value="" style="rounded=0;whiteSpace=wrap;html=1;strokeColor=#BAC8D3;fontColor=#182E3E;fillColor=#B1DDF0;labelBackgroundColor=none;" parent="1" vertex="1">
          <mxGeometry x="1841" y="404" width="130" height="60" as="geometry" />
        </mxCell>
        <mxCell id="j-sWp2HfxqR8ignj8HMA-13" value="Unique Positions Table" style="text;html=1;strokeColor=none;fillColor=none;align=center;verticalAlign=middle;whiteSpace=wrap;rounded=0;fontColor=#182E3E;labelBackgroundColor=none;" parent="1" vertex="1">
          <mxGeometry x="1861" y="416.5" width="90" height="35" as="geometry" />
        </mxCell>
        <mxCell id="j-sWp2HfxqR8ignj8HMA-14" value="" style="strokeWidth=2;html=1;shape=mxgraph.flowchart.decision;whiteSpace=wrap;strokeColor=#BAC8D3;fontColor=#182E3E;fillColor=#B1DDF0;labelBackgroundColor=none;" parent="1" vertex="1">
          <mxGeometry x="1831" y="284" width="150" height="55" as="geometry" />
        </mxCell>
        <mxCell id="j-sWp2HfxqR8ignj8HMA-15" value="" style="strokeWidth=2;html=1;shape=mxgraph.flowchart.decision;whiteSpace=wrap;strokeColor=#BAC8D3;fontColor=#182E3E;fillColor=#B1DDF0;labelBackgroundColor=none;" parent="1" vertex="1">
          <mxGeometry x="1846" y="286.5" width="120" height="50" as="geometry" />
        </mxCell>
        <mxCell id="j-sWp2HfxqR8ignj8HMA-16" value="1" style="text;html=1;strokeColor=none;fillColor=none;align=center;verticalAlign=middle;whiteSpace=wrap;rounded=0;fontColor=#182E3E;labelBackgroundColor=none;" parent="1" vertex="1">
          <mxGeometry x="2102" y="211" width="90" height="35" as="geometry" />
        </mxCell>
        <mxCell id="j-sWp2HfxqR8ignj8HMA-17" value="" style="strokeWidth=2;html=1;shape=mxgraph.flowchart.decision;whiteSpace=wrap;strokeColor=#BAC8D3;fontColor=#182E3E;fillColor=#B1DDF0;labelBackgroundColor=none;" parent="1" vertex="1">
          <mxGeometry x="2388" y="279" width="150" height="55" as="geometry" />
        </mxCell>
        <mxCell id="j-sWp2HfxqR8ignj8HMA-18" value="" style="strokeWidth=2;html=1;shape=mxgraph.flowchart.decision;whiteSpace=wrap;strokeColor=#BAC8D3;fontColor=#182E3E;fillColor=#B1DDF0;labelBackgroundColor=none;" parent="1" vertex="1">
          <mxGeometry x="2403" y="281.5" width="120" height="50" as="geometry" />
        </mxCell>
        <mxCell id="j-sWp2HfxqR8ignj8HMA-19" value="Include" style="text;html=1;strokeColor=none;fillColor=none;align=center;verticalAlign=middle;whiteSpace=wrap;rounded=0;fontColor=#182E3E;labelBackgroundColor=none;" parent="1" vertex="1">
          <mxGeometry x="2418" y="289" width="90" height="35" as="geometry" />
        </mxCell>
        <mxCell id="j-sWp2HfxqR8ignj8HMA-20" value="" style="endArrow=none;html=1;rounded=0;strokeColor=#EEEEEE;entryX=0.5;entryY=1;entryDx=0;entryDy=0;entryPerimeter=0;exitX=0.5;exitY=0;exitDx=0;exitDy=0;labelBackgroundColor=none;fontColor=default;" parent="1" source="j-sWp2HfxqR8ignj8HMA-11" target="j-sWp2HfxqR8ignj8HMA-14" edge="1">
          <mxGeometry width="50" height="50" relative="1" as="geometry">
            <mxPoint x="1741" y="491.5" as="sourcePoint" />
            <mxPoint x="1791" y="441.5" as="targetPoint" />
          </mxGeometry>
        </mxCell>
        <mxCell id="j-sWp2HfxqR8ignj8HMA-21" value="" style="endArrow=none;html=1;rounded=0;strokeColor=#EEEEEE;entryX=0.5;entryY=1;entryDx=0;entryDy=0;entryPerimeter=0;exitX=0.5;exitY=0;exitDx=0;exitDy=0;labelBackgroundColor=none;fontColor=default;" parent="1" source="j-sWp2HfxqR8ignj8HMA-8" target="j-sWp2HfxqR8ignj8HMA-18" edge="1">
          <mxGeometry width="50" height="50" relative="1" as="geometry">
            <mxPoint x="2463" y="399" as="sourcePoint" />
            <mxPoint x="2388" y="329" as="targetPoint" />
          </mxGeometry>
        </mxCell>
        <mxCell id="j-sWp2HfxqR8ignj8HMA-22" value="" style="endArrow=none;html=1;rounded=0;strokeColor=#EEEEEE;entryX=0.5;entryY=0;entryDx=0;entryDy=0;entryPerimeter=0;exitX=0.25;exitY=1;exitDx=0;exitDy=0;labelBackgroundColor=none;fontColor=default;" parent="1" source="j-sWp2HfxqR8ignj8HMA-3" target="j-sWp2HfxqR8ignj8HMA-14" edge="1">
          <mxGeometry width="50" height="50" relative="1" as="geometry">
            <mxPoint x="1913" y="269" as="sourcePoint" />
            <mxPoint x="1963" y="219" as="targetPoint" />
            <Array as="points">
              <mxPoint x="2163" y="249" />
              <mxPoint x="1906" y="249" />
            </Array>
          </mxGeometry>
        </mxCell>
        <mxCell id="j-sWp2HfxqR8ignj8HMA-23" value="" style="endArrow=none;html=1;rounded=0;strokeColor=#EEEEEE;entryX=0.75;entryY=1;entryDx=0;entryDy=0;exitX=0.5;exitY=0;exitDx=0;exitDy=0;exitPerimeter=0;labelBackgroundColor=none;fontColor=default;" parent="1" source="j-sWp2HfxqR8ignj8HMA-17" target="j-sWp2HfxqR8ignj8HMA-3" edge="1">
          <mxGeometry width="50" height="50" relative="1" as="geometry">
            <mxPoint x="2173" y="349" as="sourcePoint" />
            <mxPoint x="2223" y="299" as="targetPoint" />
            <Array as="points">
              <mxPoint x="2463" y="249" />
              <mxPoint x="2223" y="249" />
            </Array>
          </mxGeometry>
        </mxCell>
        <mxCell id="j-sWp2HfxqR8ignj8HMA-24" value="" style="rounded=0;whiteSpace=wrap;html=1;strokeColor=#BAC8D3;fontColor=#182E3E;fillColor=#B1DDF0;labelBackgroundColor=none;" parent="1" vertex="1">
          <mxGeometry x="2118" y="391.5" width="150" height="80" as="geometry" />
        </mxCell>
        <mxCell id="j-sWp2HfxqR8ignj8HMA-25" value="" style="rounded=0;whiteSpace=wrap;html=1;strokeColor=#BAC8D3;fontColor=#182E3E;fillColor=#B1DDF0;labelBackgroundColor=none;" parent="1" vertex="1">
          <mxGeometry x="2128" y="401.5" width="130" height="60" as="geometry" />
        </mxCell>
        <mxCell id="j-sWp2HfxqR8ignj8HMA-26" value="Position Attributes Tables" style="text;html=1;strokeColor=none;fillColor=none;align=center;verticalAlign=middle;whiteSpace=wrap;rounded=0;fontColor=#182E3E;labelBackgroundColor=none;" parent="1" vertex="1">
          <mxGeometry x="2148" y="414" width="90" height="35" as="geometry" />
        </mxCell>
        <mxCell id="j-sWp2HfxqR8ignj8HMA-27" value="" style="strokeWidth=2;html=1;shape=mxgraph.flowchart.decision;whiteSpace=wrap;strokeColor=#BAC8D3;fontColor=#182E3E;fillColor=#B1DDF0;labelBackgroundColor=none;" parent="1" vertex="1">
          <mxGeometry x="2118" y="281.5" width="150" height="55" as="geometry" />
        </mxCell>
        <mxCell id="j-sWp2HfxqR8ignj8HMA-28" value="" style="strokeWidth=2;html=1;shape=mxgraph.flowchart.decision;whiteSpace=wrap;strokeColor=#BAC8D3;fontColor=#182E3E;fillColor=#B1DDF0;labelBackgroundColor=none;" parent="1" vertex="1">
          <mxGeometry x="2133" y="284" width="120" height="50" as="geometry" />
        </mxCell>
        <mxCell id="j-sWp2HfxqR8ignj8HMA-29" value="Include" style="text;html=1;strokeColor=none;fillColor=none;align=center;verticalAlign=middle;whiteSpace=wrap;rounded=0;fontColor=#182E3E;labelBackgroundColor=none;" parent="1" vertex="1">
          <mxGeometry x="2148" y="291.5" width="90" height="35" as="geometry" />
        </mxCell>
        <mxCell id="j-sWp2HfxqR8ignj8HMA-30" value="" style="endArrow=none;html=1;rounded=0;strokeColor=#EEEEEE;entryX=0.5;entryY=1;entryDx=0;entryDy=0;entryPerimeter=0;exitX=0.5;exitY=0;exitDx=0;exitDy=0;labelBackgroundColor=none;fontColor=default;" parent="1" source="j-sWp2HfxqR8ignj8HMA-24" target="j-sWp2HfxqR8ignj8HMA-27" edge="1">
          <mxGeometry width="50" height="50" relative="1" as="geometry">
            <mxPoint x="2028" y="489" as="sourcePoint" />
            <mxPoint x="2078" y="439" as="targetPoint" />
          </mxGeometry>
        </mxCell>
        <mxCell id="j-sWp2HfxqR8ignj8HMA-31" value="" style="endArrow=none;html=1;rounded=0;strokeColor=#EEEEEE;entryX=0.5;entryY=1;entryDx=0;entryDy=0;exitX=0.5;exitY=0;exitDx=0;exitDy=0;exitPerimeter=0;labelBackgroundColor=none;fontColor=default;" parent="1" source="j-sWp2HfxqR8ignj8HMA-27" target="j-sWp2HfxqR8ignj8HMA-3" edge="1">
          <mxGeometry width="50" height="50" relative="1" as="geometry">
            <mxPoint x="2143" y="639" as="sourcePoint" />
            <mxPoint x="2193" y="589" as="targetPoint" />
          </mxGeometry>
        </mxCell>
        <mxCell id="j-sWp2HfxqR8ignj8HMA-32" value="1" style="text;html=1;strokeColor=none;fillColor=none;align=center;verticalAlign=middle;whiteSpace=wrap;rounded=0;fontColor=#182E3E;labelBackgroundColor=none;" parent="1" vertex="1">
          <mxGeometry x="2168" y="211" width="90" height="35" as="geometry" />
        </mxCell>
        <mxCell id="j-sWp2HfxqR8ignj8HMA-33" value="1" style="text;html=1;strokeColor=none;fillColor=none;align=center;verticalAlign=middle;whiteSpace=wrap;rounded=0;fontColor=#182E3E;labelBackgroundColor=none;" parent="1" vertex="1">
          <mxGeometry x="1846" y="362.5" width="90" height="35" as="geometry" />
        </mxCell>
        <mxCell id="j-sWp2HfxqR8ignj8HMA-34" value="1" style="text;html=1;strokeColor=none;fillColor=none;align=center;verticalAlign=middle;whiteSpace=wrap;rounded=0;fontColor=#182E3E;labelBackgroundColor=none;" parent="1" vertex="1">
          <mxGeometry x="2403" y="360" width="90" height="35" as="geometry" />
        </mxCell>
        <mxCell id="j-sWp2HfxqR8ignj8HMA-35" value="M" style="text;html=1;strokeColor=none;fillColor=none;align=center;verticalAlign=middle;whiteSpace=wrap;rounded=0;fontColor=#182E3E;labelBackgroundColor=none;" parent="1" vertex="1">
          <mxGeometry x="2133" y="360" width="90" height="35" as="geometry" />
        </mxCell>
        <mxCell id="j-sWp2HfxqR8ignj8HMA-36" value="1" style="text;html=1;strokeColor=none;fillColor=none;align=center;verticalAlign=middle;whiteSpace=wrap;rounded=0;fontColor=#182E3E;labelBackgroundColor=none;" parent="1" vertex="1">
          <mxGeometry x="2138" y="211" width="90" height="35" as="geometry" />
        </mxCell>
        <mxCell id="j-sWp2HfxqR8ignj8HMA-37" value="Include" style="text;html=1;strokeColor=none;fillColor=none;align=center;verticalAlign=middle;whiteSpace=wrap;rounded=0;fontColor=#182E3E;labelBackgroundColor=none;" parent="1" vertex="1">
          <mxGeometry x="1861" y="294" width="90" height="35" as="geometry" />
        </mxCell>
        <mxCell id="j-sWp2HfxqR8ignj8HMA-38" value="" style="rounded=0;whiteSpace=wrap;html=1;strokeColor=#BAC8D3;fontColor=#182E3E;fillColor=#B1DDF0;labelBackgroundColor=none;" parent="1" vertex="1">
          <mxGeometry x="564" y="527" width="150" height="80" as="geometry" />
        </mxCell>
        <mxCell id="j-sWp2HfxqR8ignj8HMA-39" value="" style="rounded=0;whiteSpace=wrap;html=1;strokeColor=#BAC8D3;fontColor=#182E3E;fillColor=#B1DDF0;labelBackgroundColor=none;" parent="1" vertex="1">
          <mxGeometry x="574" y="537" width="130" height="60" as="geometry" />
        </mxCell>
        <mxCell id="j-sWp2HfxqR8ignj8HMA-40" value="Current Positions Table" style="text;html=1;strokeColor=none;fillColor=none;align=center;verticalAlign=middle;whiteSpace=wrap;rounded=0;fontColor=#182E3E;labelBackgroundColor=none;" parent="1" vertex="1">
          <mxGeometry x="594" y="549.5" width="90" height="35" as="geometry" />
        </mxCell>
        <mxCell id="j-sWp2HfxqR8ignj8HMA-41" value="" style="strokeWidth=2;html=1;shape=mxgraph.flowchart.decision;whiteSpace=wrap;strokeColor=#BAC8D3;fontColor=#182E3E;fillColor=#B1DDF0;labelBackgroundColor=none;" parent="1" vertex="1">
          <mxGeometry x="564" y="417" width="150" height="55" as="geometry" />
        </mxCell>
        <mxCell id="j-sWp2HfxqR8ignj8HMA-42" value="" style="strokeWidth=2;html=1;shape=mxgraph.flowchart.decision;whiteSpace=wrap;strokeColor=#BAC8D3;fontColor=#182E3E;fillColor=#B1DDF0;labelBackgroundColor=none;" parent="1" vertex="1">
          <mxGeometry x="579" y="419.5" width="120" height="50" as="geometry" />
        </mxCell>
        <mxCell id="j-sWp2HfxqR8ignj8HMA-43" value="" style="endArrow=none;html=1;rounded=0;strokeColor=#EEEEEE;entryX=0.5;entryY=1;entryDx=0;entryDy=0;entryPerimeter=0;exitX=0.5;exitY=0;exitDx=0;exitDy=0;labelBackgroundColor=none;fontColor=default;" parent="1" source="j-sWp2HfxqR8ignj8HMA-38" target="j-sWp2HfxqR8ignj8HMA-41" edge="1">
          <mxGeometry width="50" height="50" relative="1" as="geometry">
            <mxPoint x="474" y="624.5" as="sourcePoint" />
            <mxPoint x="524" y="574.5" as="targetPoint" />
          </mxGeometry>
        </mxCell>
        <mxCell id="j-sWp2HfxqR8ignj8HMA-44" value="1" style="text;html=1;strokeColor=none;fillColor=none;align=center;verticalAlign=middle;whiteSpace=wrap;rounded=0;fontColor=#182E3E;labelBackgroundColor=none;" parent="1" vertex="1">
          <mxGeometry x="579" y="495.5" width="90" height="35" as="geometry" />
        </mxCell>
        <mxCell id="j-sWp2HfxqR8ignj8HMA-45" value="Include" style="text;html=1;strokeColor=none;fillColor=none;align=center;verticalAlign=middle;whiteSpace=wrap;rounded=0;fontColor=#182E3E;labelBackgroundColor=none;" parent="1" vertex="1">
          <mxGeometry x="594" y="427" width="90" height="35" as="geometry" />
        </mxCell>
        <mxCell id="j-sWp2HfxqR8ignj8HMA-54" value="" style="rounded=0;whiteSpace=wrap;html=1;strokeColor=#BAC8D3;fontColor=#182E3E;fillColor=#B1DDF0;labelBackgroundColor=none;" parent="1" vertex="1">
          <mxGeometry x="1051" y="527" width="150" height="80" as="geometry" />
        </mxCell>
        <mxCell id="j-sWp2HfxqR8ignj8HMA-55" value="" style="rounded=0;whiteSpace=wrap;html=1;strokeColor=#BAC8D3;fontColor=#182E3E;fillColor=#B1DDF0;labelBackgroundColor=none;" parent="1" vertex="1">
          <mxGeometry x="1061" y="537" width="130" height="60" as="geometry" />
        </mxCell>
        <mxCell id="j-sWp2HfxqR8ignj8HMA-56" value="Limits Table" style="text;html=1;strokeColor=none;fillColor=none;align=center;verticalAlign=middle;whiteSpace=wrap;rounded=0;fontColor=#182E3E;labelBackgroundColor=none;" parent="1" vertex="1">
          <mxGeometry x="1081" y="549.5" width="90" height="35" as="geometry" />
        </mxCell>
        <mxCell id="j-sWp2HfxqR8ignj8HMA-57" value="" style="strokeWidth=2;html=1;shape=mxgraph.flowchart.decision;whiteSpace=wrap;strokeColor=#BAC8D3;fontColor=#182E3E;fillColor=#B1DDF0;labelBackgroundColor=none;" parent="1" vertex="1">
          <mxGeometry x="1051" y="414.5" width="150" height="55" as="geometry" />
        </mxCell>
        <mxCell id="j-sWp2HfxqR8ignj8HMA-58" value="" style="strokeWidth=2;html=1;shape=mxgraph.flowchart.decision;whiteSpace=wrap;strokeColor=#BAC8D3;fontColor=#182E3E;fillColor=#B1DDF0;labelBackgroundColor=none;" parent="1" vertex="1">
          <mxGeometry x="1066" y="417" width="120" height="50" as="geometry" />
        </mxCell>
        <mxCell id="j-sWp2HfxqR8ignj8HMA-59" value="Include" style="text;html=1;strokeColor=none;fillColor=none;align=center;verticalAlign=middle;whiteSpace=wrap;rounded=0;fontColor=#182E3E;labelBackgroundColor=none;" parent="1" vertex="1">
          <mxGeometry x="1081" y="424.5" width="90" height="35" as="geometry" />
        </mxCell>
        <mxCell id="j-sWp2HfxqR8ignj8HMA-60" value="" style="endArrow=none;html=1;rounded=0;strokeColor=#EEEEEE;entryX=0.5;entryY=1;entryDx=0;entryDy=0;entryPerimeter=0;exitX=0.5;exitY=0;exitDx=0;exitDy=0;labelBackgroundColor=none;fontColor=default;" parent="1" source="j-sWp2HfxqR8ignj8HMA-54" target="j-sWp2HfxqR8ignj8HMA-58" edge="1">
          <mxGeometry width="50" height="50" relative="1" as="geometry">
            <mxPoint x="1126" y="534.5" as="sourcePoint" />
            <mxPoint x="1051" y="464.5" as="targetPoint" />
          </mxGeometry>
        </mxCell>
        <mxCell id="j-sWp2HfxqR8ignj8HMA-61" value="" style="rounded=0;whiteSpace=wrap;html=1;strokeColor=#BAC8D3;fontColor=#182E3E;fillColor=#B1DDF0;labelBackgroundColor=none;" parent="1" vertex="1">
          <mxGeometry x="814" y="527" width="150" height="80" as="geometry" />
        </mxCell>
        <mxCell id="j-sWp2HfxqR8ignj8HMA-62" value="" style="rounded=0;whiteSpace=wrap;html=1;strokeColor=#BAC8D3;fontColor=#182E3E;fillColor=#B1DDF0;labelBackgroundColor=none;" parent="1" vertex="1">
          <mxGeometry x="824" y="537" width="130" height="60" as="geometry" />
        </mxCell>
        <mxCell id="j-sWp2HfxqR8ignj8HMA-63" value="Position Attributes Tables" style="text;html=1;strokeColor=none;fillColor=none;align=center;verticalAlign=middle;whiteSpace=wrap;rounded=0;fontColor=#182E3E;labelBackgroundColor=none;" parent="1" vertex="1">
          <mxGeometry x="844" y="549.5" width="90" height="35" as="geometry" />
        </mxCell>
        <mxCell id="j-sWp2HfxqR8ignj8HMA-64" value="" style="strokeWidth=2;html=1;shape=mxgraph.flowchart.decision;whiteSpace=wrap;strokeColor=#BAC8D3;fontColor=#182E3E;fillColor=#B1DDF0;labelBackgroundColor=none;" parent="1" vertex="1">
          <mxGeometry x="814" y="417" width="150" height="55" as="geometry" />
        </mxCell>
        <mxCell id="j-sWp2HfxqR8ignj8HMA-65" value="" style="strokeWidth=2;html=1;shape=mxgraph.flowchart.decision;whiteSpace=wrap;strokeColor=#BAC8D3;fontColor=#182E3E;fillColor=#B1DDF0;labelBackgroundColor=none;" parent="1" vertex="1">
          <mxGeometry x="829" y="419.5" width="120" height="50" as="geometry" />
        </mxCell>
        <mxCell id="j-sWp2HfxqR8ignj8HMA-66" value="Include" style="text;html=1;strokeColor=none;fillColor=none;align=center;verticalAlign=middle;whiteSpace=wrap;rounded=0;fontColor=#182E3E;labelBackgroundColor=none;" parent="1" vertex="1">
          <mxGeometry x="844" y="427" width="90" height="35" as="geometry" />
        </mxCell>
        <mxCell id="j-sWp2HfxqR8ignj8HMA-67" value="" style="endArrow=none;html=1;rounded=0;strokeColor=#EEEEEE;entryX=0.5;entryY=1;entryDx=0;entryDy=0;entryPerimeter=0;exitX=0.5;exitY=0;exitDx=0;exitDy=0;labelBackgroundColor=none;fontColor=default;" parent="1" source="j-sWp2HfxqR8ignj8HMA-61" target="j-sWp2HfxqR8ignj8HMA-64" edge="1">
          <mxGeometry width="50" height="50" relative="1" as="geometry">
            <mxPoint x="724" y="624.5" as="sourcePoint" />
            <mxPoint x="774" y="574.5" as="targetPoint" />
          </mxGeometry>
        </mxCell>
        <mxCell id="j-sWp2HfxqR8ignj8HMA-68" value="1" style="text;html=1;strokeColor=none;fillColor=none;align=center;verticalAlign=middle;whiteSpace=wrap;rounded=0;fontColor=#182E3E;labelBackgroundColor=none;" parent="1" vertex="1">
          <mxGeometry x="1066" y="495.5" width="90" height="35" as="geometry" />
        </mxCell>
        <mxCell id="j-sWp2HfxqR8ignj8HMA-69" value="M" style="text;html=1;strokeColor=none;fillColor=none;align=center;verticalAlign=middle;whiteSpace=wrap;rounded=0;fontColor=#182E3E;labelBackgroundColor=none;" parent="1" vertex="1">
          <mxGeometry x="829" y="495.5" width="90" height="35" as="geometry" />
        </mxCell>
        <mxCell id="j-sWp2HfxqR8ignj8HMA-70" value="" style="ellipse;whiteSpace=wrap;html=1;strokeColor=#BAC8D3;fontColor=#182E3E;fillColor=#B1DDF0;labelBackgroundColor=none;" parent="1" vertex="1">
          <mxGeometry x="718" y="147" width="100" height="50" as="geometry" />
        </mxCell>
        <mxCell id="j-sWp2HfxqR8ignj8HMA-71" value="Name" style="text;html=1;strokeColor=none;fillColor=none;align=center;verticalAlign=middle;whiteSpace=wrap;rounded=0;fontColor=#182E3E;labelBackgroundColor=none;" parent="1" vertex="1">
          <mxGeometry x="738" y="157" width="60" height="30" as="geometry" />
        </mxCell>
        <mxCell id="j-sWp2HfxqR8ignj8HMA-72" value="" style="endArrow=none;html=1;rounded=0;strokeColor=#EEEEEE;entryX=0.5;entryY=1;entryDx=0;entryDy=0;exitX=0.5;exitY=0;exitDx=0;exitDy=0;labelBackgroundColor=none;fontColor=default;" parent="1" source="j-sWp2HfxqR8ignj8HMA-4" target="j-sWp2HfxqR8ignj8HMA-70" edge="1">
          <mxGeometry width="50" height="50" relative="1" as="geometry">
            <mxPoint x="763" y="327" as="sourcePoint" />
            <mxPoint x="813" y="277" as="targetPoint" />
          </mxGeometry>
        </mxCell>
        <mxCell id="j-sWp2HfxqR8ignj8HMA-73" value="" style="endArrow=none;html=1;rounded=0;strokeColor=#EEEEEE;entryX=0.25;entryY=1;entryDx=0;entryDy=0;exitX=0.5;exitY=0;exitDx=0;exitDy=0;exitPerimeter=0;labelBackgroundColor=none;fontColor=default;" parent="1" source="j-sWp2HfxqR8ignj8HMA-42" target="j-sWp2HfxqR8ignj8HMA-4" edge="1">
          <mxGeometry width="50" height="50" relative="1" as="geometry">
            <mxPoint x="563" y="407" as="sourcePoint" />
            <mxPoint x="613" y="357" as="targetPoint" />
            <Array as="points">
              <mxPoint x="639" y="381" />
              <mxPoint x="738" y="381" />
            </Array>
          </mxGeometry>
        </mxCell>
        <mxCell id="j-sWp2HfxqR8ignj8HMA-74" value="" style="endArrow=none;html=1;rounded=0;strokeColor=#EEEEEE;entryX=0.5;entryY=1;entryDx=0;entryDy=0;exitX=0.5;exitY=0;exitDx=0;exitDy=0;exitPerimeter=0;labelBackgroundColor=none;fontColor=default;" parent="1" source="j-sWp2HfxqR8ignj8HMA-65" target="j-sWp2HfxqR8ignj8HMA-4" edge="1">
          <mxGeometry width="50" height="50" relative="1" as="geometry">
            <mxPoint x="623" y="527" as="sourcePoint" />
            <mxPoint x="673" y="477" as="targetPoint" />
            <Array as="points">
              <mxPoint x="889" y="391" />
              <mxPoint x="768" y="391" />
            </Array>
          </mxGeometry>
        </mxCell>
        <mxCell id="j-sWp2HfxqR8ignj8HMA-75" value="" style="endArrow=none;html=1;rounded=0;strokeColor=#EEEEEE;entryX=0.75;entryY=1;entryDx=0;entryDy=0;exitX=0.5;exitY=0;exitDx=0;exitDy=0;exitPerimeter=0;labelBackgroundColor=none;fontColor=default;" parent="1" source="j-sWp2HfxqR8ignj8HMA-58" target="j-sWp2HfxqR8ignj8HMA-4" edge="1">
          <mxGeometry width="50" height="50" relative="1" as="geometry">
            <mxPoint x="863" y="437" as="sourcePoint" />
            <mxPoint x="913" y="387" as="targetPoint" />
            <Array as="points">
              <mxPoint x="1126" y="377" />
              <mxPoint x="798" y="377" />
            </Array>
          </mxGeometry>
        </mxCell>
        <mxCell id="j-sWp2HfxqR8ignj8HMA-76" value="1" style="text;html=1;strokeColor=none;fillColor=none;align=center;verticalAlign=middle;whiteSpace=wrap;rounded=0;fontColor=#182E3E;labelBackgroundColor=none;" parent="1" vertex="1">
          <mxGeometry x="683" y="337" width="90" height="35" as="geometry" />
        </mxCell>
        <mxCell id="j-sWp2HfxqR8ignj8HMA-77" value="1" style="text;html=1;strokeColor=none;fillColor=none;align=center;verticalAlign=middle;whiteSpace=wrap;rounded=0;fontColor=#182E3E;labelBackgroundColor=none;" parent="1" vertex="1">
          <mxGeometry x="713" y="337" width="90" height="35" as="geometry" />
        </mxCell>
        <mxCell id="j-sWp2HfxqR8ignj8HMA-78" value="1" style="text;html=1;strokeColor=none;fillColor=none;align=center;verticalAlign=middle;whiteSpace=wrap;rounded=0;fontColor=#182E3E;labelBackgroundColor=none;" parent="1" vertex="1">
          <mxGeometry x="738" y="337" width="90" height="35" as="geometry" />
        </mxCell>
        <mxCell id="j-sWp2HfxqR8ignj8HMA-79" value="" style="ellipse;whiteSpace=wrap;html=1;strokeColor=#BAC8D3;fontColor=#182E3E;fillColor=#B1DDF0;labelBackgroundColor=none;" parent="1" vertex="1">
          <mxGeometry x="2143" y="19" width="100" height="50" as="geometry" />
        </mxCell>
        <mxCell id="j-sWp2HfxqR8ignj8HMA-80" value="Name" style="text;html=1;strokeColor=none;fillColor=none;align=center;verticalAlign=middle;whiteSpace=wrap;rounded=0;fontColor=#182E3E;labelBackgroundColor=none;" parent="1" vertex="1">
          <mxGeometry x="2163" y="29" width="60" height="30" as="geometry" />
        </mxCell>
        <mxCell id="j-sWp2HfxqR8ignj8HMA-81" value="" style="endArrow=none;html=1;rounded=0;strokeColor=#EEEEEE;entryX=0.5;entryY=1;entryDx=0;entryDy=0;exitX=0.5;exitY=0;exitDx=0;exitDy=0;labelBackgroundColor=none;fontColor=default;" parent="1" source="j-sWp2HfxqR8ignj8HMA-3" target="j-sWp2HfxqR8ignj8HMA-79" edge="1">
          <mxGeometry width="50" height="50" relative="1" as="geometry">
            <mxPoint x="1856" y="208" as="sourcePoint" />
            <mxPoint x="1906" y="158" as="targetPoint" />
          </mxGeometry>
        </mxCell>
        <mxCell id="j-sWp2HfxqR8ignj8HMA-82" value="" style="ellipse;whiteSpace=wrap;html=1;strokeColor=#BAC8D3;fontColor=#182E3E;fillColor=#B1DDF0;labelBackgroundColor=none;" parent="1" vertex="1">
          <mxGeometry x="1034" y="675.25" width="100" height="50" as="geometry" />
        </mxCell>
        <mxCell id="j-sWp2HfxqR8ignj8HMA-83" value="Min Value" style="text;html=1;strokeColor=none;fillColor=none;align=center;verticalAlign=middle;whiteSpace=wrap;rounded=0;fontColor=#182E3E;labelBackgroundColor=none;" parent="1" vertex="1">
          <mxGeometry x="1054" y="685.25" width="60" height="30" as="geometry" />
        </mxCell>
        <mxCell id="j-sWp2HfxqR8ignj8HMA-84" value="" style="ellipse;whiteSpace=wrap;html=1;strokeColor=#BAC8D3;fontColor=#182E3E;fillColor=#B1DDF0;labelBackgroundColor=none;" parent="1" vertex="1">
          <mxGeometry x="1164" y="675.25" width="100" height="50" as="geometry" />
        </mxCell>
        <mxCell id="j-sWp2HfxqR8ignj8HMA-85" value="Max Value" style="text;html=1;strokeColor=none;fillColor=none;align=center;verticalAlign=middle;whiteSpace=wrap;rounded=0;fontColor=#182E3E;labelBackgroundColor=none;" parent="1" vertex="1">
          <mxGeometry x="1184" y="685.25" width="60" height="30" as="geometry" />
        </mxCell>
        <mxCell id="j-sWp2HfxqR8ignj8HMA-86" value="" style="ellipse;whiteSpace=wrap;html=1;strokeColor=#BAC8D3;fontColor=#182E3E;fillColor=#B1DDF0;labelBackgroundColor=none;" parent="1" vertex="1">
          <mxGeometry x="1104" y="749.25" width="100" height="50" as="geometry" />
        </mxCell>
        <mxCell id="j-sWp2HfxqR8ignj8HMA-87" value="Start Date" style="text;html=1;strokeColor=none;fillColor=none;align=center;verticalAlign=middle;whiteSpace=wrap;rounded=0;fontColor=#182E3E;labelBackgroundColor=none;" parent="1" vertex="1">
          <mxGeometry x="1124" y="759.25" width="60" height="30" as="geometry" />
        </mxCell>
        <mxCell id="j-sWp2HfxqR8ignj8HMA-88" value="" style="ellipse;whiteSpace=wrap;html=1;strokeColor=#BAC8D3;fontColor=#182E3E;fillColor=#B1DDF0;labelBackgroundColor=none;" parent="1" vertex="1">
          <mxGeometry x="1234" y="749.25" width="100" height="50" as="geometry" />
        </mxCell>
        <mxCell id="j-sWp2HfxqR8ignj8HMA-89" value="End Date" style="text;html=1;strokeColor=none;fillColor=none;align=center;verticalAlign=middle;whiteSpace=wrap;rounded=0;fontColor=#182E3E;labelBackgroundColor=none;" parent="1" vertex="1">
          <mxGeometry x="1254" y="759.25" width="60" height="30" as="geometry" />
        </mxCell>
        <mxCell id="j-sWp2HfxqR8ignj8HMA-90" value="" style="endArrow=none;html=1;rounded=0;strokeColor=#EEEEEE;entryX=0.5;entryY=1;entryDx=0;entryDy=0;exitX=0.5;exitY=0;exitDx=0;exitDy=0;labelBackgroundColor=none;fontColor=default;" parent="1" source="j-sWp2HfxqR8ignj8HMA-82" target="j-sWp2HfxqR8ignj8HMA-54" edge="1">
          <mxGeometry width="50" height="50" relative="1" as="geometry">
            <mxPoint x="971" y="788.25" as="sourcePoint" />
            <mxPoint x="1021" y="738.25" as="targetPoint" />
            <Array as="points">
              <mxPoint x="1084" y="643.25" />
              <mxPoint x="1126" y="643.25" />
            </Array>
          </mxGeometry>
        </mxCell>
        <mxCell id="j-sWp2HfxqR8ignj8HMA-91" value="" style="endArrow=none;html=1;rounded=0;strokeColor=#EEEEEE;exitX=0.5;exitY=0;exitDx=0;exitDy=0;labelBackgroundColor=none;fontColor=default;" parent="1" source="j-sWp2HfxqR8ignj8HMA-84" edge="1">
          <mxGeometry width="50" height="50" relative="1" as="geometry">
            <mxPoint x="1016" y="813.25" as="sourcePoint" />
            <mxPoint x="1126" y="613.25" as="targetPoint" />
            <Array as="points">
              <mxPoint x="1214" y="643.25" />
              <mxPoint x="1126" y="643.25" />
            </Array>
          </mxGeometry>
        </mxCell>
        <mxCell id="j-sWp2HfxqR8ignj8HMA-92" value="" style="endArrow=none;html=1;rounded=0;strokeColor=#EEEEEE;entryX=0.5;entryY=1;entryDx=0;entryDy=0;exitX=0.5;exitY=0;exitDx=0;exitDy=0;labelBackgroundColor=none;fontColor=default;" parent="1" source="j-sWp2HfxqR8ignj8HMA-86" target="j-sWp2HfxqR8ignj8HMA-54" edge="1">
          <mxGeometry width="50" height="50" relative="1" as="geometry">
            <mxPoint x="916" y="823.25" as="sourcePoint" />
            <mxPoint x="966" y="773.25" as="targetPoint" />
            <Array as="points">
              <mxPoint x="1154" y="643.25" />
              <mxPoint x="1126" y="643.25" />
            </Array>
          </mxGeometry>
        </mxCell>
        <mxCell id="j-sWp2HfxqR8ignj8HMA-93" value="" style="endArrow=none;html=1;rounded=0;strokeColor=#EEEEEE;entryX=0.5;entryY=1;entryDx=0;entryDy=0;exitX=0.5;exitY=0;exitDx=0;exitDy=0;labelBackgroundColor=none;fontColor=default;" parent="1" source="j-sWp2HfxqR8ignj8HMA-88" target="j-sWp2HfxqR8ignj8HMA-54" edge="1">
          <mxGeometry width="50" height="50" relative="1" as="geometry">
            <mxPoint x="986" y="923.25" as="sourcePoint" />
            <mxPoint x="1036" y="873.25" as="targetPoint" />
            <Array as="points">
              <mxPoint x="1284" y="643.25" />
              <mxPoint x="1126" y="643.25" />
            </Array>
          </mxGeometry>
        </mxCell>
        <mxCell id="j-sWp2HfxqR8ignj8HMA-94" value="" style="ellipse;whiteSpace=wrap;html=1;strokeColor=#BAC8D3;fontColor=#182E3E;fillColor=#B1DDF0;labelBackgroundColor=none;" parent="1" vertex="1">
          <mxGeometry x="2371" y="541" width="100" height="50" as="geometry" />
        </mxCell>
        <mxCell id="j-sWp2HfxqR8ignj8HMA-95" value="Avg Min Value" style="text;html=1;strokeColor=none;fillColor=none;align=center;verticalAlign=middle;whiteSpace=wrap;rounded=0;fontColor=#182E3E;labelBackgroundColor=none;" parent="1" vertex="1">
          <mxGeometry x="2391" y="551" width="60" height="30" as="geometry" />
        </mxCell>
        <mxCell id="j-sWp2HfxqR8ignj8HMA-96" value="" style="ellipse;whiteSpace=wrap;html=1;strokeColor=#BAC8D3;fontColor=#182E3E;fillColor=#B1DDF0;labelBackgroundColor=none;" parent="1" vertex="1">
          <mxGeometry x="2501" y="541" width="100" height="50" as="geometry" />
        </mxCell>
        <mxCell id="j-sWp2HfxqR8ignj8HMA-97" value="Avg Max Value" style="text;html=1;strokeColor=none;fillColor=none;align=center;verticalAlign=middle;whiteSpace=wrap;rounded=0;fontColor=#182E3E;labelBackgroundColor=none;" parent="1" vertex="1">
          <mxGeometry x="2521" y="551" width="60" height="30" as="geometry" />
        </mxCell>
        <mxCell id="j-sWp2HfxqR8ignj8HMA-98" value="" style="ellipse;whiteSpace=wrap;html=1;strokeColor=#BAC8D3;fontColor=#182E3E;fillColor=#B1DDF0;labelBackgroundColor=none;" parent="1" vertex="1">
          <mxGeometry x="2441" y="615" width="100" height="50" as="geometry" />
        </mxCell>
        <mxCell id="j-sWp2HfxqR8ignj8HMA-99" value="Start Date" style="text;html=1;strokeColor=none;fillColor=none;align=center;verticalAlign=middle;whiteSpace=wrap;rounded=0;fontColor=#182E3E;labelBackgroundColor=none;" parent="1" vertex="1">
          <mxGeometry x="2461" y="625" width="60" height="30" as="geometry" />
        </mxCell>
        <mxCell id="j-sWp2HfxqR8ignj8HMA-100" value="" style="ellipse;whiteSpace=wrap;html=1;strokeColor=#BAC8D3;fontColor=#182E3E;fillColor=#B1DDF0;labelBackgroundColor=none;" parent="1" vertex="1">
          <mxGeometry x="2571" y="615" width="100" height="50" as="geometry" />
        </mxCell>
        <mxCell id="j-sWp2HfxqR8ignj8HMA-101" value="End Date" style="text;html=1;strokeColor=none;fillColor=none;align=center;verticalAlign=middle;whiteSpace=wrap;rounded=0;fontColor=#182E3E;labelBackgroundColor=none;" parent="1" vertex="1">
          <mxGeometry x="2591" y="625" width="60" height="30" as="geometry" />
        </mxCell>
        <mxCell id="j-sWp2HfxqR8ignj8HMA-102" value="" style="endArrow=none;html=1;rounded=0;strokeColor=#EEEEEE;entryX=0.5;entryY=1;entryDx=0;entryDy=0;exitX=0.5;exitY=0;exitDx=0;exitDy=0;labelBackgroundColor=none;fontColor=default;" parent="1" source="j-sWp2HfxqR8ignj8HMA-94" edge="1">
          <mxGeometry width="50" height="50" relative="1" as="geometry">
            <mxPoint x="2308" y="654" as="sourcePoint" />
            <mxPoint x="2463" y="473" as="targetPoint" />
            <Array as="points">
              <mxPoint x="2421" y="509" />
              <mxPoint x="2463" y="509" />
            </Array>
          </mxGeometry>
        </mxCell>
        <mxCell id="j-sWp2HfxqR8ignj8HMA-103" value="" style="endArrow=none;html=1;rounded=0;strokeColor=#EEEEEE;exitX=0.5;exitY=0;exitDx=0;exitDy=0;labelBackgroundColor=none;fontColor=default;" parent="1" source="j-sWp2HfxqR8ignj8HMA-96" edge="1">
          <mxGeometry width="50" height="50" relative="1" as="geometry">
            <mxPoint x="2353" y="679" as="sourcePoint" />
            <mxPoint x="2463" y="479" as="targetPoint" />
            <Array as="points">
              <mxPoint x="2551" y="509" />
              <mxPoint x="2463" y="509" />
            </Array>
          </mxGeometry>
        </mxCell>
        <mxCell id="j-sWp2HfxqR8ignj8HMA-104" value="" style="endArrow=none;html=1;rounded=0;strokeColor=#EEEEEE;entryX=0.5;entryY=1;entryDx=0;entryDy=0;exitX=0.5;exitY=0;exitDx=0;exitDy=0;labelBackgroundColor=none;fontColor=default;" parent="1" source="j-sWp2HfxqR8ignj8HMA-98" edge="1">
          <mxGeometry width="50" height="50" relative="1" as="geometry">
            <mxPoint x="2253" y="689" as="sourcePoint" />
            <mxPoint x="2463" y="473" as="targetPoint" />
            <Array as="points">
              <mxPoint x="2491" y="509" />
              <mxPoint x="2463" y="509" />
            </Array>
          </mxGeometry>
        </mxCell>
        <mxCell id="j-sWp2HfxqR8ignj8HMA-105" value="" style="endArrow=none;html=1;rounded=0;strokeColor=#EEEEEE;entryX=0.5;entryY=1;entryDx=0;entryDy=0;exitX=0.5;exitY=0;exitDx=0;exitDy=0;labelBackgroundColor=none;fontColor=default;" parent="1" source="j-sWp2HfxqR8ignj8HMA-100" edge="1">
          <mxGeometry width="50" height="50" relative="1" as="geometry">
            <mxPoint x="2323" y="789" as="sourcePoint" />
            <mxPoint x="2463" y="473" as="targetPoint" />
            <Array as="points">
              <mxPoint x="2621" y="509" />
              <mxPoint x="2463" y="509" />
            </Array>
          </mxGeometry>
        </mxCell>
        <mxCell id="j-sWp2HfxqR8ignj8HMA-106" value="" style="ellipse;whiteSpace=wrap;html=1;strokeColor=#BAC8D3;fontColor=#182E3E;fillColor=#B1DDF0;labelBackgroundColor=none;" parent="1" vertex="1">
          <mxGeometry x="2639" y="541" width="100" height="50" as="geometry" />
        </mxCell>
        <mxCell id="j-sWp2HfxqR8ignj8HMA-107" value="Num of Vals Used" style="text;html=1;strokeColor=none;fillColor=none;align=center;verticalAlign=middle;whiteSpace=wrap;rounded=0;fontColor=#182E3E;labelBackgroundColor=none;" parent="1" vertex="1">
          <mxGeometry x="2659" y="551" width="60" height="30" as="geometry" />
        </mxCell>
        <mxCell id="j-sWp2HfxqR8ignj8HMA-108" value="" style="endArrow=none;html=1;rounded=0;strokeColor=#EEEEEE;entryX=0.5;entryY=1;entryDx=0;entryDy=0;exitX=0.5;exitY=0;exitDx=0;exitDy=0;labelBackgroundColor=none;fontColor=default;" parent="1" source="j-sWp2HfxqR8ignj8HMA-106" target="j-sWp2HfxqR8ignj8HMA-8" edge="1">
          <mxGeometry width="50" height="50" relative="1" as="geometry">
            <mxPoint x="2684" y="552" as="sourcePoint" />
            <mxPoint x="2734" y="502" as="targetPoint" />
            <Array as="points">
              <mxPoint x="2688" y="509" />
              <mxPoint x="2463" y="509" />
            </Array>
          </mxGeometry>
        </mxCell>
        <mxCell id="j-sWp2HfxqR8ignj8HMA-109" value="" style="ellipse;whiteSpace=wrap;html=1;strokeColor=#BAC8D3;fontColor=#182E3E;fillColor=#B1DDF0;labelBackgroundColor=none;" parent="1" vertex="1">
          <mxGeometry x="1791" y="543.5" width="100" height="50" as="geometry" />
        </mxCell>
        <mxCell id="j-sWp2HfxqR8ignj8HMA-110" value="Name" style="text;html=1;strokeColor=none;fillColor=none;align=center;verticalAlign=middle;whiteSpace=wrap;rounded=0;fontColor=#182E3E;labelBackgroundColor=none;" parent="1" vertex="1">
          <mxGeometry x="1811" y="553.5" width="60" height="30" as="geometry" />
        </mxCell>
        <mxCell id="j-sWp2HfxqR8ignj8HMA-111" value="" style="endArrow=none;html=1;rounded=0;strokeColor=#EEEEEE;entryX=0.5;entryY=1;entryDx=0;entryDy=0;exitX=0.5;exitY=0;exitDx=0;exitDy=0;labelBackgroundColor=none;fontColor=default;" parent="1" source="j-sWp2HfxqR8ignj8HMA-109" target="j-sWp2HfxqR8ignj8HMA-11" edge="1">
          <mxGeometry width="50" height="50" relative="1" as="geometry">
            <mxPoint x="1881" y="701.5" as="sourcePoint" />
            <mxPoint x="1931" y="651.5" as="targetPoint" />
            <Array as="points">
              <mxPoint x="1841" y="511.5" />
              <mxPoint x="1906" y="511.5" />
            </Array>
          </mxGeometry>
        </mxCell>
        <mxCell id="j-sWp2HfxqR8ignj8HMA-112" value="" style="ellipse;whiteSpace=wrap;html=1;strokeColor=#BAC8D3;fontColor=#182E3E;fillColor=#B1DDF0;labelBackgroundColor=none;" parent="1" vertex="1">
          <mxGeometry x="1911" y="543.5" width="100" height="50" as="geometry" />
        </mxCell>
        <mxCell id="j-sWp2HfxqR8ignj8HMA-113" value="Attributes" style="text;html=1;strokeColor=none;fillColor=none;align=center;verticalAlign=middle;whiteSpace=wrap;rounded=0;fontColor=#182E3E;labelBackgroundColor=none;" parent="1" vertex="1">
          <mxGeometry x="1931" y="553.5" width="60" height="30" as="geometry" />
        </mxCell>
        <mxCell id="j-sWp2HfxqR8ignj8HMA-114" value="" style="endArrow=none;html=1;rounded=0;strokeColor=#EEEEEE;entryX=0.5;entryY=1;entryDx=0;entryDy=0;exitX=0.5;exitY=0;exitDx=0;exitDy=0;labelBackgroundColor=none;fontColor=default;" parent="1" source="j-sWp2HfxqR8ignj8HMA-112" target="j-sWp2HfxqR8ignj8HMA-11" edge="1">
          <mxGeometry width="50" height="50" relative="1" as="geometry">
            <mxPoint x="2081" y="751.5" as="sourcePoint" />
            <mxPoint x="2131" y="701.5" as="targetPoint" />
            <Array as="points">
              <mxPoint x="1961" y="511.5" />
              <mxPoint x="1906" y="511.5" />
            </Array>
          </mxGeometry>
        </mxCell>
        <mxCell id="j-sWp2HfxqR8ignj8HMA-115" value="" style="ellipse;whiteSpace=wrap;html=1;strokeColor=#BAC8D3;fontColor=#182E3E;fillColor=#B1DDF0;labelBackgroundColor=none;" parent="1" vertex="1">
          <mxGeometry x="529" y="675.25" width="100" height="50" as="geometry" />
        </mxCell>
        <mxCell id="j-sWp2HfxqR8ignj8HMA-116" value="Name" style="text;html=1;strokeColor=none;fillColor=none;align=center;verticalAlign=middle;whiteSpace=wrap;rounded=0;fontColor=#182E3E;labelBackgroundColor=none;" parent="1" vertex="1">
          <mxGeometry x="549" y="685.25" width="60" height="30" as="geometry" />
        </mxCell>
        <mxCell id="j-sWp2HfxqR8ignj8HMA-117" value="" style="ellipse;whiteSpace=wrap;html=1;strokeColor=#BAC8D3;fontColor=#182E3E;fillColor=#B1DDF0;labelBackgroundColor=none;" parent="1" vertex="1">
          <mxGeometry x="649" y="675.25" width="100" height="50" as="geometry" />
        </mxCell>
        <mxCell id="j-sWp2HfxqR8ignj8HMA-118" value="Attributes" style="text;html=1;strokeColor=none;fillColor=none;align=center;verticalAlign=middle;whiteSpace=wrap;rounded=0;fontColor=#182E3E;labelBackgroundColor=none;" parent="1" vertex="1">
          <mxGeometry x="669" y="685.25" width="60" height="30" as="geometry" />
        </mxCell>
        <mxCell id="j-sWp2HfxqR8ignj8HMA-119" value="" style="ellipse;whiteSpace=wrap;html=1;strokeColor=#BAC8D3;fontColor=#182E3E;fillColor=#B1DDF0;labelBackgroundColor=none;" parent="1" vertex="1">
          <mxGeometry x="589" y="749.25" width="100" height="50" as="geometry" />
        </mxCell>
        <mxCell id="j-sWp2HfxqR8ignj8HMA-120" value="Count" style="text;html=1;strokeColor=none;fillColor=none;align=center;verticalAlign=middle;whiteSpace=wrap;rounded=0;fontColor=#182E3E;labelBackgroundColor=none;" parent="1" vertex="1">
          <mxGeometry x="609" y="759.25" width="60" height="30" as="geometry" />
        </mxCell>
        <mxCell id="j-sWp2HfxqR8ignj8HMA-121" value="" style="endArrow=none;html=1;rounded=0;strokeColor=#EEEEEE;entryX=0.5;entryY=0;entryDx=0;entryDy=0;exitX=0.5;exitY=1;exitDx=0;exitDy=0;labelBackgroundColor=none;fontColor=default;" parent="1" source="j-sWp2HfxqR8ignj8HMA-38" target="j-sWp2HfxqR8ignj8HMA-115" edge="1">
          <mxGeometry width="50" height="50" relative="1" as="geometry">
            <mxPoint x="484" y="833.25" as="sourcePoint" />
            <mxPoint x="534" y="783.25" as="targetPoint" />
            <Array as="points">
              <mxPoint x="639" y="643.25" />
              <mxPoint x="579" y="643.25" />
            </Array>
          </mxGeometry>
        </mxCell>
        <mxCell id="j-sWp2HfxqR8ignj8HMA-122" value="" style="endArrow=none;html=1;rounded=0;strokeColor=#EEEEEE;entryX=0.5;entryY=1;entryDx=0;entryDy=0;exitX=0.5;exitY=0;exitDx=0;exitDy=0;labelBackgroundColor=none;fontColor=default;" parent="1" source="j-sWp2HfxqR8ignj8HMA-119" target="j-sWp2HfxqR8ignj8HMA-38" edge="1">
          <mxGeometry width="50" height="50" relative="1" as="geometry">
            <mxPoint x="674" y="893.25" as="sourcePoint" />
            <mxPoint x="724" y="843.25" as="targetPoint" />
          </mxGeometry>
        </mxCell>
        <mxCell id="j-sWp2HfxqR8ignj8HMA-123" value="" style="endArrow=none;html=1;rounded=0;strokeColor=#EEEEEE;entryX=0.5;entryY=1;entryDx=0;entryDy=0;exitX=0.5;exitY=0;exitDx=0;exitDy=0;labelBackgroundColor=none;fontColor=default;" parent="1" source="j-sWp2HfxqR8ignj8HMA-117" target="j-sWp2HfxqR8ignj8HMA-38" edge="1">
          <mxGeometry width="50" height="50" relative="1" as="geometry">
            <mxPoint x="764" y="863.25" as="sourcePoint" />
            <mxPoint x="814" y="813.25" as="targetPoint" />
            <Array as="points">
              <mxPoint x="699" y="643.25" />
              <mxPoint x="639" y="643.25" />
            </Array>
          </mxGeometry>
        </mxCell>
        <mxCell id="j-sWp2HfxqR8ignj8HMA-124" value="" style="ellipse;whiteSpace=wrap;html=1;strokeColor=#BAC8D3;fontColor=#182E3E;fillColor=#B1DDF0;labelBackgroundColor=none;" parent="1" vertex="1">
          <mxGeometry x="784" y="675.25" width="100" height="50" as="geometry" />
        </mxCell>
        <mxCell id="j-sWp2HfxqR8ignj8HMA-125" value="Name" style="text;html=1;strokeColor=none;fillColor=none;align=center;verticalAlign=middle;whiteSpace=wrap;rounded=0;fontColor=#182E3E;labelBackgroundColor=none;" parent="1" vertex="1">
          <mxGeometry x="804" y="685.25" width="60" height="30" as="geometry" />
        </mxCell>
        <mxCell id="j-sWp2HfxqR8ignj8HMA-126" value="" style="ellipse;whiteSpace=wrap;html=1;strokeColor=#BAC8D3;fontColor=#182E3E;fillColor=#B1DDF0;labelBackgroundColor=none;" parent="1" vertex="1">
          <mxGeometry x="904" y="676.5" width="100" height="50" as="geometry" />
        </mxCell>
        <mxCell id="j-sWp2HfxqR8ignj8HMA-127" value="Value" style="text;html=1;strokeColor=none;fillColor=none;align=center;verticalAlign=middle;whiteSpace=wrap;rounded=0;fontColor=#182E3E;labelBackgroundColor=none;" parent="1" vertex="1">
          <mxGeometry x="924" y="686.5" width="60" height="30" as="geometry" />
        </mxCell>
        <mxCell id="j-sWp2HfxqR8ignj8HMA-128" value="" style="endArrow=none;html=1;rounded=0;strokeColor=#EEEEEE;entryX=0.5;entryY=1;entryDx=0;entryDy=0;exitX=0.5;exitY=0;exitDx=0;exitDy=0;labelBackgroundColor=none;fontColor=default;" parent="1" source="j-sWp2HfxqR8ignj8HMA-124" target="j-sWp2HfxqR8ignj8HMA-61" edge="1">
          <mxGeometry width="50" height="50" relative="1" as="geometry">
            <mxPoint x="824" y="833.25" as="sourcePoint" />
            <mxPoint x="874" y="783.25" as="targetPoint" />
            <Array as="points">
              <mxPoint x="834" y="643.25" />
              <mxPoint x="889" y="643.25" />
            </Array>
          </mxGeometry>
        </mxCell>
        <mxCell id="j-sWp2HfxqR8ignj8HMA-129" value="" style="endArrow=none;html=1;rounded=0;strokeColor=#EEEEEE;entryX=0.5;entryY=1;entryDx=0;entryDy=0;exitX=0.5;exitY=0;exitDx=0;exitDy=0;labelBackgroundColor=none;fontColor=default;" parent="1" source="j-sWp2HfxqR8ignj8HMA-126" target="j-sWp2HfxqR8ignj8HMA-61" edge="1">
          <mxGeometry width="50" height="50" relative="1" as="geometry">
            <mxPoint x="864" y="853.25" as="sourcePoint" />
            <mxPoint x="914" y="803.25" as="targetPoint" />
            <Array as="points">
              <mxPoint x="954" y="643.25" />
              <mxPoint x="889" y="643.25" />
            </Array>
          </mxGeometry>
        </mxCell>
        <mxCell id="j-sWp2HfxqR8ignj8HMA-130" value="" style="ellipse;whiteSpace=wrap;html=1;strokeColor=#BAC8D3;fontColor=#182E3E;fillColor=#B1DDF0;labelBackgroundColor=none;" parent="1" vertex="1">
          <mxGeometry x="2143" y="543.5" width="100" height="50" as="geometry" />
        </mxCell>
        <mxCell id="j-sWp2HfxqR8ignj8HMA-131" value="Name" style="text;html=1;strokeColor=none;fillColor=none;align=center;verticalAlign=middle;whiteSpace=wrap;rounded=0;fontColor=#182E3E;labelBackgroundColor=none;" parent="1" vertex="1">
          <mxGeometry x="2163" y="553.5" width="60" height="30" as="geometry" />
        </mxCell>
        <mxCell id="j-sWp2HfxqR8ignj8HMA-132" value="" style="endArrow=none;html=1;rounded=0;strokeColor=#EEEEEE;entryX=0.5;entryY=1;entryDx=0;entryDy=0;exitX=0.5;exitY=0;exitDx=0;exitDy=0;labelBackgroundColor=none;fontColor=default;" parent="1" source="j-sWp2HfxqR8ignj8HMA-130" target="j-sWp2HfxqR8ignj8HMA-24" edge="1">
          <mxGeometry width="50" height="50" relative="1" as="geometry">
            <mxPoint x="2131" y="729" as="sourcePoint" />
            <mxPoint x="2181" y="679" as="targetPoint" />
          </mxGeometry>
        </mxCell>
        <mxCell id="j-sWp2HfxqR8ignj8HMA-133" value="" style="rounded=0;whiteSpace=wrap;html=1;strokeColor=#BAC8D3;fontColor=#182E3E;fillColor=#B1DDF0;labelBackgroundColor=none;" parent="1" vertex="1">
          <mxGeometry x="453" y="2052" width="120" height="60" as="geometry" />
        </mxCell>
        <mxCell id="j-sWp2HfxqR8ignj8HMA-134" value="Users Data DB" style="text;html=1;strokeColor=none;fillColor=none;align=center;verticalAlign=middle;whiteSpace=wrap;rounded=0;fontColor=#182E3E;labelBackgroundColor=none;" parent="1" vertex="1">
          <mxGeometry x="483" y="2067" width="60" height="30" as="geometry" />
        </mxCell>
        <mxCell id="j-sWp2HfxqR8ignj8HMA-135" value="" style="ellipse;whiteSpace=wrap;html=1;strokeColor=#BAC8D3;fontColor=#182E3E;fillColor=#B1DDF0;labelBackgroundColor=none;" parent="1" vertex="1">
          <mxGeometry x="463" y="1920" width="100" height="50" as="geometry" />
        </mxCell>
        <mxCell id="j-sWp2HfxqR8ignj8HMA-136" value="Name" style="text;html=1;strokeColor=none;fillColor=none;align=center;verticalAlign=middle;whiteSpace=wrap;rounded=0;fontColor=#182E3E;labelBackgroundColor=none;" parent="1" vertex="1">
          <mxGeometry x="483" y="1930" width="60" height="30" as="geometry" />
        </mxCell>
        <mxCell id="j-sWp2HfxqR8ignj8HMA-137" value="" style="endArrow=none;html=1;rounded=0;strokeColor=#EEEEEE;entryX=0.5;entryY=1;entryDx=0;entryDy=0;exitX=0.5;exitY=0;exitDx=0;exitDy=0;labelBackgroundColor=none;fontColor=default;" parent="1" target="j-sWp2HfxqR8ignj8HMA-135" edge="1">
          <mxGeometry width="50" height="50" relative="1" as="geometry">
            <mxPoint x="513" y="2052" as="sourcePoint" />
            <mxPoint x="558" y="2050" as="targetPoint" />
          </mxGeometry>
        </mxCell>
        <mxCell id="j-sWp2HfxqR8ignj8HMA-138" value="" style="rounded=0;whiteSpace=wrap;html=1;strokeColor=#BAC8D3;fontColor=#182E3E;fillColor=#B1DDF0;labelBackgroundColor=none;" parent="1" vertex="1">
          <mxGeometry x="275" y="2295" width="150" height="80" as="geometry" />
        </mxCell>
        <mxCell id="j-sWp2HfxqR8ignj8HMA-139" value="" style="rounded=0;whiteSpace=wrap;html=1;strokeColor=#BAC8D3;fontColor=#182E3E;fillColor=#B1DDF0;labelBackgroundColor=none;" parent="1" vertex="1">
          <mxGeometry x="285" y="2305" width="130" height="60" as="geometry" />
        </mxCell>
        <mxCell id="j-sWp2HfxqR8ignj8HMA-140" value="Users Table (Fully RSA Encoded)" style="text;html=1;strokeColor=none;fillColor=none;align=center;verticalAlign=middle;whiteSpace=wrap;rounded=0;fontColor=#182E3E;labelBackgroundColor=none;" parent="1" vertex="1">
          <mxGeometry x="305" y="2317.5" width="90" height="35" as="geometry" />
        </mxCell>
        <mxCell id="j-sWp2HfxqR8ignj8HMA-141" value="" style="strokeWidth=2;html=1;shape=mxgraph.flowchart.decision;whiteSpace=wrap;strokeColor=#BAC8D3;fontColor=#182E3E;fillColor=#B1DDF0;labelBackgroundColor=none;" parent="1" vertex="1">
          <mxGeometry x="275" y="2167" width="150" height="55" as="geometry" />
        </mxCell>
        <mxCell id="j-sWp2HfxqR8ignj8HMA-142" value="" style="strokeWidth=2;html=1;shape=mxgraph.flowchart.decision;whiteSpace=wrap;strokeColor=#BAC8D3;fontColor=#182E3E;fillColor=#B1DDF0;labelBackgroundColor=none;" parent="1" vertex="1">
          <mxGeometry x="290" y="2169.5" width="120" height="50" as="geometry" />
        </mxCell>
        <mxCell id="j-sWp2HfxqR8ignj8HMA-143" value="" style="endArrow=none;html=1;rounded=0;strokeColor=#EEEEEE;entryX=0.5;entryY=1;entryDx=0;entryDy=0;entryPerimeter=0;exitX=0.5;exitY=0;exitDx=0;exitDy=0;labelBackgroundColor=none;fontColor=default;" parent="1" source="j-sWp2HfxqR8ignj8HMA-138" target="j-sWp2HfxqR8ignj8HMA-141" edge="1">
          <mxGeometry width="50" height="50" relative="1" as="geometry">
            <mxPoint x="185" y="2374.5" as="sourcePoint" />
            <mxPoint x="235" y="2324.5" as="targetPoint" />
          </mxGeometry>
        </mxCell>
        <mxCell id="j-sWp2HfxqR8ignj8HMA-144" value="1" style="text;html=1;strokeColor=none;fillColor=none;align=center;verticalAlign=middle;whiteSpace=wrap;rounded=0;fontColor=#182E3E;labelBackgroundColor=none;" parent="1" vertex="1">
          <mxGeometry x="290" y="2256" width="90" height="35" as="geometry" />
        </mxCell>
        <mxCell id="j-sWp2HfxqR8ignj8HMA-145" value="Include" style="text;html=1;strokeColor=none;fillColor=none;align=center;verticalAlign=middle;whiteSpace=wrap;rounded=0;fontColor=#182E3E;labelBackgroundColor=none;" parent="1" vertex="1">
          <mxGeometry x="305" y="2177" width="90" height="35" as="geometry" />
        </mxCell>
        <mxCell id="j-sWp2HfxqR8ignj8HMA-147" value="1" style="text;html=1;strokeColor=none;fillColor=none;align=center;verticalAlign=middle;whiteSpace=wrap;rounded=0;fontColor=#182E3E;labelBackgroundColor=none;" parent="1" vertex="1">
          <mxGeometry x="423" y="2112" width="90" height="35" as="geometry" />
        </mxCell>
        <mxCell id="j-sWp2HfxqR8ignj8HMA-148" value="" style="ellipse;whiteSpace=wrap;html=1;strokeColor=#BAC8D3;fontColor=#182E3E;fillColor=#B1DDF0;labelBackgroundColor=none;" parent="1" vertex="1">
          <mxGeometry x="230" y="2435" width="100" height="50" as="geometry" />
        </mxCell>
        <mxCell id="j-sWp2HfxqR8ignj8HMA-149" value="Nick Name" style="text;html=1;strokeColor=none;fillColor=none;align=center;verticalAlign=middle;whiteSpace=wrap;rounded=0;fontColor=#182E3E;labelBackgroundColor=none;" parent="1" vertex="1">
          <mxGeometry x="250" y="2445" width="60" height="30" as="geometry" />
        </mxCell>
        <mxCell id="j-sWp2HfxqR8ignj8HMA-150" value="" style="ellipse;whiteSpace=wrap;html=1;strokeColor=#BAC8D3;fontColor=#182E3E;fillColor=#B1DDF0;labelBackgroundColor=none;" parent="1" vertex="1">
          <mxGeometry x="363.5" y="2435" width="100" height="50" as="geometry" />
        </mxCell>
        <mxCell id="j-sWp2HfxqR8ignj8HMA-151" value="Login" style="text;html=1;strokeColor=none;fillColor=none;align=center;verticalAlign=middle;whiteSpace=wrap;rounded=0;fontColor=#182E3E;labelBackgroundColor=none;" parent="1" vertex="1">
          <mxGeometry x="383.5" y="2445" width="60" height="30" as="geometry" />
        </mxCell>
        <mxCell id="j-sWp2HfxqR8ignj8HMA-152" value="" style="ellipse;whiteSpace=wrap;html=1;strokeColor=#BAC8D3;fontColor=#182E3E;fillColor=#B1DDF0;labelBackgroundColor=none;" parent="1" vertex="1">
          <mxGeometry x="300" y="2514" width="100" height="50" as="geometry" />
        </mxCell>
        <mxCell id="j-sWp2HfxqR8ignj8HMA-153" value="Password" style="text;html=1;strokeColor=none;fillColor=none;align=center;verticalAlign=middle;whiteSpace=wrap;rounded=0;fontColor=#182E3E;labelBackgroundColor=none;" parent="1" vertex="1">
          <mxGeometry x="320" y="2524" width="60" height="30" as="geometry" />
        </mxCell>
        <mxCell id="j-sWp2HfxqR8ignj8HMA-154" value="" style="ellipse;whiteSpace=wrap;html=1;strokeColor=#BAC8D3;fontColor=#182E3E;fillColor=#B1DDF0;labelBackgroundColor=none;" parent="1" vertex="1">
          <mxGeometry x="430" y="2514" width="100" height="50" as="geometry" />
        </mxCell>
        <mxCell id="j-sWp2HfxqR8ignj8HMA-155" value="Role" style="text;html=1;strokeColor=none;fillColor=none;align=center;verticalAlign=middle;whiteSpace=wrap;rounded=0;fontColor=#182E3E;labelBackgroundColor=none;" parent="1" vertex="1">
          <mxGeometry x="450" y="2524" width="60" height="30" as="geometry" />
        </mxCell>
        <mxCell id="j-sWp2HfxqR8ignj8HMA-157" value="" style="endArrow=none;html=1;rounded=0;strokeColor=#EEEEEE;entryX=0.5;entryY=1;entryDx=0;entryDy=0;exitX=0.5;exitY=0;exitDx=0;exitDy=0;labelBackgroundColor=none;fontColor=default;" parent="1" source="j-sWp2HfxqR8ignj8HMA-152" target="j-sWp2HfxqR8ignj8HMA-138" edge="1">
          <mxGeometry width="50" height="50" relative="1" as="geometry">
            <mxPoint x="170" y="2583" as="sourcePoint" />
            <mxPoint x="220" y="2533" as="targetPoint" />
          </mxGeometry>
        </mxCell>
        <mxCell id="j-sWp2HfxqR8ignj8HMA-160" value="" style="endArrow=none;html=1;rounded=0;strokeColor=#EEEEEE;entryX=0.5;entryY=1;entryDx=0;entryDy=0;exitX=0.5;exitY=0;exitDx=0;exitDy=0;labelBackgroundColor=none;fontColor=default;" parent="1" source="j-sWp2HfxqR8ignj8HMA-150" target="j-sWp2HfxqR8ignj8HMA-138" edge="1">
          <mxGeometry width="50" height="50" relative="1" as="geometry">
            <mxPoint x="577" y="2437" as="sourcePoint" />
            <mxPoint x="627" y="2387" as="targetPoint" />
            <Array as="points">
              <mxPoint x="414" y="2403" />
              <mxPoint x="350" y="2403" />
            </Array>
          </mxGeometry>
        </mxCell>
        <mxCell id="j-sWp2HfxqR8ignj8HMA-161" value="" style="endArrow=none;html=1;rounded=0;strokeColor=#EEEEEE;exitX=0.5;exitY=0;exitDx=0;exitDy=0;labelBackgroundColor=none;fontColor=default;" parent="1" source="j-sWp2HfxqR8ignj8HMA-154" edge="1">
          <mxGeometry width="50" height="50" relative="1" as="geometry">
            <mxPoint x="570" y="2473" as="sourcePoint" />
            <mxPoint x="350" y="2373" as="targetPoint" />
            <Array as="points">
              <mxPoint x="480" y="2403" />
              <mxPoint x="350" y="2403" />
            </Array>
          </mxGeometry>
        </mxCell>
        <mxCell id="j-sWp2HfxqR8ignj8HMA-162" value="" style="endArrow=none;html=1;rounded=0;strokeColor=#EEEEEE;entryX=0.5;entryY=0;entryDx=0;entryDy=0;exitX=0.5;exitY=1;exitDx=0;exitDy=0;labelBackgroundColor=none;fontColor=default;" parent="1" source="j-sWp2HfxqR8ignj8HMA-138" target="j-sWp2HfxqR8ignj8HMA-148" edge="1">
          <mxGeometry width="50" height="50" relative="1" as="geometry">
            <mxPoint x="213" y="2458" as="sourcePoint" />
            <mxPoint x="263" y="2408" as="targetPoint" />
            <Array as="points">
              <mxPoint x="350" y="2403" />
              <mxPoint x="280" y="2403" />
            </Array>
          </mxGeometry>
        </mxCell>
        <mxCell id="j-sWp2HfxqR8ignj8HMA-163" value="" style="ellipse;whiteSpace=wrap;html=1;strokeColor=#BAC8D3;fontColor=#182E3E;fillColor=#B1DDF0;labelBackgroundColor=none;" parent="1" vertex="1">
          <mxGeometry x="170" y="2514" width="100" height="50" as="geometry" />
        </mxCell>
        <mxCell id="j-sWp2HfxqR8ignj8HMA-164" value="RSA Key" style="text;html=1;strokeColor=none;fillColor=none;align=center;verticalAlign=middle;whiteSpace=wrap;rounded=0;fontColor=#182E3E;labelBackgroundColor=none;" parent="1" vertex="1">
          <mxGeometry x="190" y="2524" width="60" height="30" as="geometry" />
        </mxCell>
        <mxCell id="j-sWp2HfxqR8ignj8HMA-165" value="" style="endArrow=none;html=1;rounded=0;strokeColor=#EEEEEE;exitX=0.5;exitY=0;exitDx=0;exitDy=0;entryX=0.5;entryY=1;entryDx=0;entryDy=0;labelBackgroundColor=none;fontColor=default;" parent="1" source="j-sWp2HfxqR8ignj8HMA-163" target="j-sWp2HfxqR8ignj8HMA-138" edge="1">
          <mxGeometry width="50" height="50" relative="1" as="geometry">
            <mxPoint x="120" y="2474" as="sourcePoint" />
            <mxPoint x="170" y="2424" as="targetPoint" />
            <Array as="points">
              <mxPoint x="220" y="2404" />
              <mxPoint x="350" y="2404" />
            </Array>
          </mxGeometry>
        </mxCell>
        <mxCell id="j-sWp2HfxqR8ignj8HMA-208" value="" style="rounded=0;whiteSpace=wrap;html=1;strokeColor=#BAC8D3;fontColor=#182E3E;fillColor=#B1DDF0;labelBackgroundColor=none;" parent="1" vertex="1">
          <mxGeometry x="313" y="527" width="150" height="80" as="geometry" />
        </mxCell>
        <mxCell id="j-sWp2HfxqR8ignj8HMA-209" value="" style="rounded=0;whiteSpace=wrap;html=1;strokeColor=#BAC8D3;fontColor=#182E3E;fillColor=#B1DDF0;labelBackgroundColor=none;" parent="1" vertex="1">
          <mxGeometry x="323" y="537" width="130" height="60" as="geometry" />
        </mxCell>
        <mxCell id="j-sWp2HfxqR8ignj8HMA-210" value="Positions to Buy (Filled In By F_Triggers)" style="text;html=1;strokeColor=none;fillColor=none;align=center;verticalAlign=middle;whiteSpace=wrap;rounded=0;fontColor=#182E3E;labelBackgroundColor=none;" parent="1" vertex="1">
          <mxGeometry x="343" y="549.5" width="90" height="35" as="geometry" />
        </mxCell>
        <mxCell id="j-sWp2HfxqR8ignj8HMA-211" value="" style="strokeWidth=2;html=1;shape=mxgraph.flowchart.decision;whiteSpace=wrap;strokeColor=#BAC8D3;fontColor=#182E3E;fillColor=#B1DDF0;labelBackgroundColor=none;" parent="1" vertex="1">
          <mxGeometry x="313" y="417" width="150" height="55" as="geometry" />
        </mxCell>
        <mxCell id="j-sWp2HfxqR8ignj8HMA-212" value="" style="strokeWidth=2;html=1;shape=mxgraph.flowchart.decision;whiteSpace=wrap;strokeColor=#BAC8D3;fontColor=#182E3E;fillColor=#B1DDF0;labelBackgroundColor=none;" parent="1" vertex="1">
          <mxGeometry x="328" y="419.5" width="120" height="50" as="geometry" />
        </mxCell>
        <mxCell id="j-sWp2HfxqR8ignj8HMA-213" value="" style="endArrow=none;html=1;rounded=0;strokeColor=#EEEEEE;entryX=0.5;entryY=1;entryDx=0;entryDy=0;entryPerimeter=0;exitX=0.5;exitY=0;exitDx=0;exitDy=0;labelBackgroundColor=none;fontColor=default;" parent="1" source="j-sWp2HfxqR8ignj8HMA-208" target="j-sWp2HfxqR8ignj8HMA-211" edge="1">
          <mxGeometry width="50" height="50" relative="1" as="geometry">
            <mxPoint x="223" y="624.5" as="sourcePoint" />
            <mxPoint x="273" y="574.5" as="targetPoint" />
          </mxGeometry>
        </mxCell>
        <mxCell id="j-sWp2HfxqR8ignj8HMA-214" value="1" style="text;html=1;strokeColor=none;fillColor=none;align=center;verticalAlign=middle;whiteSpace=wrap;rounded=0;fontColor=#182E3E;labelBackgroundColor=none;" parent="1" vertex="1">
          <mxGeometry x="328" y="495.5" width="90" height="35" as="geometry" />
        </mxCell>
        <mxCell id="j-sWp2HfxqR8ignj8HMA-215" value="Include" style="text;html=1;strokeColor=none;fillColor=none;align=center;verticalAlign=middle;whiteSpace=wrap;rounded=0;fontColor=#182E3E;labelBackgroundColor=none;" parent="1" vertex="1">
          <mxGeometry x="343" y="427" width="90" height="35" as="geometry" />
        </mxCell>
        <mxCell id="j-sWp2HfxqR8ignj8HMA-216" value="" style="ellipse;whiteSpace=wrap;html=1;strokeColor=#BAC8D3;fontColor=#182E3E;fillColor=#B1DDF0;labelBackgroundColor=none;" parent="1" vertex="1">
          <mxGeometry x="278" y="675.25" width="100" height="50" as="geometry" />
        </mxCell>
        <mxCell id="j-sWp2HfxqR8ignj8HMA-217" value="Name" style="text;html=1;strokeColor=none;fillColor=none;align=center;verticalAlign=middle;whiteSpace=wrap;rounded=0;fontColor=#182E3E;labelBackgroundColor=none;" parent="1" vertex="1">
          <mxGeometry x="298" y="685.25" width="60" height="30" as="geometry" />
        </mxCell>
        <mxCell id="j-sWp2HfxqR8ignj8HMA-218" value="" style="ellipse;whiteSpace=wrap;html=1;strokeColor=#BAC8D3;fontColor=#182E3E;fillColor=#B1DDF0;labelBackgroundColor=none;" parent="1" vertex="1">
          <mxGeometry x="398" y="672.75" width="100" height="50" as="geometry" />
        </mxCell>
        <mxCell id="j-sWp2HfxqR8ignj8HMA-219" value="Attributes" style="text;html=1;strokeColor=none;fillColor=none;align=center;verticalAlign=middle;whiteSpace=wrap;rounded=0;fontColor=#182E3E;labelBackgroundColor=none;" parent="1" vertex="1">
          <mxGeometry x="418" y="685.25" width="60" height="30" as="geometry" />
        </mxCell>
        <mxCell id="j-sWp2HfxqR8ignj8HMA-220" value="" style="ellipse;whiteSpace=wrap;html=1;strokeColor=#BAC8D3;fontColor=#182E3E;fillColor=#B1DDF0;labelBackgroundColor=none;" parent="1" vertex="1">
          <mxGeometry x="338" y="749.25" width="100" height="50" as="geometry" />
        </mxCell>
        <mxCell id="j-sWp2HfxqR8ignj8HMA-221" value="Count" style="text;html=1;strokeColor=none;fillColor=none;align=center;verticalAlign=middle;whiteSpace=wrap;rounded=0;fontColor=#182E3E;labelBackgroundColor=none;" parent="1" vertex="1">
          <mxGeometry x="358" y="759.25" width="60" height="30" as="geometry" />
        </mxCell>
        <mxCell id="j-sWp2HfxqR8ignj8HMA-222" value="" style="endArrow=none;html=1;rounded=0;strokeColor=#EEEEEE;entryX=0.5;entryY=0;entryDx=0;entryDy=0;exitX=0.5;exitY=1;exitDx=0;exitDy=0;labelBackgroundColor=none;fontColor=default;" parent="1" source="j-sWp2HfxqR8ignj8HMA-208" target="j-sWp2HfxqR8ignj8HMA-216" edge="1">
          <mxGeometry width="50" height="50" relative="1" as="geometry">
            <mxPoint x="233" y="833.25" as="sourcePoint" />
            <mxPoint x="283" y="783.25" as="targetPoint" />
            <Array as="points">
              <mxPoint x="388" y="643.25" />
              <mxPoint x="328" y="643.25" />
            </Array>
          </mxGeometry>
        </mxCell>
        <mxCell id="j-sWp2HfxqR8ignj8HMA-223" value="" style="endArrow=none;html=1;rounded=0;strokeColor=#EEEEEE;entryX=0.5;entryY=1;entryDx=0;entryDy=0;exitX=0.5;exitY=0;exitDx=0;exitDy=0;labelBackgroundColor=none;fontColor=default;" parent="1" source="j-sWp2HfxqR8ignj8HMA-220" target="j-sWp2HfxqR8ignj8HMA-208" edge="1">
          <mxGeometry width="50" height="50" relative="1" as="geometry">
            <mxPoint x="423" y="893.25" as="sourcePoint" />
            <mxPoint x="473" y="843.25" as="targetPoint" />
          </mxGeometry>
        </mxCell>
        <mxCell id="j-sWp2HfxqR8ignj8HMA-224" value="" style="endArrow=none;html=1;rounded=0;strokeColor=#EEEEEE;entryX=0.5;entryY=1;entryDx=0;entryDy=0;exitX=0.5;exitY=0;exitDx=0;exitDy=0;labelBackgroundColor=none;fontColor=default;" parent="1" target="j-sWp2HfxqR8ignj8HMA-208" edge="1">
          <mxGeometry width="50" height="50" relative="1" as="geometry">
            <mxPoint x="448" y="675.25" as="sourcePoint" />
            <mxPoint x="563" y="813.25" as="targetPoint" />
            <Array as="points">
              <mxPoint x="448" y="643.25" />
              <mxPoint x="388" y="643.25" />
            </Array>
          </mxGeometry>
        </mxCell>
        <mxCell id="j-sWp2HfxqR8ignj8HMA-225" value="" style="endArrow=none;html=1;rounded=0;strokeColor=#EEEEEE;entryX=0;entryY=0;entryDx=0;entryDy=0;exitX=0.5;exitY=0;exitDx=0;exitDy=0;exitPerimeter=0;labelBackgroundColor=none;fontColor=default;" parent="1" source="j-sWp2HfxqR8ignj8HMA-212" target="j-sWp2HfxqR8ignj8HMA-78" edge="1">
          <mxGeometry width="50" height="50" relative="1" as="geometry">
            <mxPoint x="239" y="531" as="sourcePoint" />
            <mxPoint x="289" y="481" as="targetPoint" />
            <Array as="points">
              <mxPoint x="388" y="381" />
              <mxPoint x="738" y="381" />
            </Array>
          </mxGeometry>
        </mxCell>
        <mxCell id="j-sWp2HfxqR8ignj8HMA-251" value="" style="rounded=0;whiteSpace=wrap;html=1;strokeColor=#BAC8D3;fontColor=#182E3E;fillColor=#B1DDF0;labelBackgroundColor=none;" parent="1" vertex="1">
          <mxGeometry x="599" y="2295" width="150" height="80" as="geometry" />
        </mxCell>
        <mxCell id="j-sWp2HfxqR8ignj8HMA-252" value="" style="rounded=0;whiteSpace=wrap;html=1;strokeColor=#BAC8D3;fontColor=#182E3E;fillColor=#B1DDF0;labelBackgroundColor=none;" parent="1" vertex="1">
          <mxGeometry x="609" y="2305" width="130" height="60" as="geometry" />
        </mxCell>
        <mxCell id="j-sWp2HfxqR8ignj8HMA-253" value="Area of Responsibility" style="text;html=1;strokeColor=none;fillColor=none;align=center;verticalAlign=middle;whiteSpace=wrap;rounded=0;fontColor=#182E3E;labelBackgroundColor=none;" parent="1" vertex="1">
          <mxGeometry x="629" y="2317.5" width="90" height="35" as="geometry" />
        </mxCell>
        <mxCell id="j-sWp2HfxqR8ignj8HMA-254" value="" style="strokeWidth=2;html=1;shape=mxgraph.flowchart.decision;whiteSpace=wrap;strokeColor=#BAC8D3;fontColor=#182E3E;fillColor=#B1DDF0;labelBackgroundColor=none;" parent="1" vertex="1">
          <mxGeometry x="599" y="2167" width="150" height="55" as="geometry" />
        </mxCell>
        <mxCell id="j-sWp2HfxqR8ignj8HMA-255" value="" style="strokeWidth=2;html=1;shape=mxgraph.flowchart.decision;whiteSpace=wrap;strokeColor=#BAC8D3;fontColor=#182E3E;fillColor=#B1DDF0;labelBackgroundColor=none;" parent="1" vertex="1">
          <mxGeometry x="614" y="2169.5" width="120" height="50" as="geometry" />
        </mxCell>
        <mxCell id="j-sWp2HfxqR8ignj8HMA-256" value="" style="endArrow=none;html=1;rounded=0;strokeColor=#EEEEEE;entryX=0.5;entryY=1;entryDx=0;entryDy=0;entryPerimeter=0;exitX=0.5;exitY=0;exitDx=0;exitDy=0;labelBackgroundColor=none;fontColor=default;" parent="1" source="j-sWp2HfxqR8ignj8HMA-251" target="j-sWp2HfxqR8ignj8HMA-254" edge="1">
          <mxGeometry width="50" height="50" relative="1" as="geometry">
            <mxPoint x="509" y="2374.5" as="sourcePoint" />
            <mxPoint x="559" y="2324.5" as="targetPoint" />
          </mxGeometry>
        </mxCell>
        <mxCell id="j-sWp2HfxqR8ignj8HMA-257" value="M" style="text;html=1;strokeColor=none;fillColor=none;align=center;verticalAlign=middle;whiteSpace=wrap;rounded=0;fontColor=#182E3E;labelBackgroundColor=none;" parent="1" vertex="1">
          <mxGeometry x="614" y="2256" width="90" height="35" as="geometry" />
        </mxCell>
        <mxCell id="j-sWp2HfxqR8ignj8HMA-258" value="Include" style="text;html=1;strokeColor=none;fillColor=none;align=center;verticalAlign=middle;whiteSpace=wrap;rounded=0;fontColor=#182E3E;labelBackgroundColor=none;" parent="1" vertex="1">
          <mxGeometry x="629" y="2177" width="90" height="35" as="geometry" />
        </mxCell>
        <mxCell id="j-sWp2HfxqR8ignj8HMA-263" value="" style="ellipse;whiteSpace=wrap;html=1;strokeColor=#BAC8D3;fontColor=#182E3E;fillColor=#B1DDF0;labelBackgroundColor=none;" parent="1" vertex="1">
          <mxGeometry x="624" y="2435" width="100" height="50" as="geometry" />
        </mxCell>
        <mxCell id="j-sWp2HfxqR8ignj8HMA-264" value="Department&amp;nbsp;&lt;br&gt;Name" style="text;html=1;strokeColor=none;fillColor=none;align=center;verticalAlign=middle;whiteSpace=wrap;rounded=0;fontColor=#182E3E;labelBackgroundColor=none;" parent="1" vertex="1">
          <mxGeometry x="644" y="2445" width="60" height="30" as="geometry" />
        </mxCell>
        <mxCell id="j-sWp2HfxqR8ignj8HMA-267" value="" style="endArrow=none;html=1;rounded=0;strokeColor=#EEEEEE;entryX=0.5;entryY=1;entryDx=0;entryDy=0;exitX=0.5;exitY=0;exitDx=0;exitDy=0;labelBackgroundColor=none;fontColor=default;" parent="1" source="j-sWp2HfxqR8ignj8HMA-263" target="j-sWp2HfxqR8ignj8HMA-251" edge="1">
          <mxGeometry width="50" height="50" relative="1" as="geometry">
            <mxPoint x="494" y="2583" as="sourcePoint" />
            <mxPoint x="544" y="2533" as="targetPoint" />
          </mxGeometry>
        </mxCell>
        <mxCell id="j-sWp2HfxqR8ignj8HMA-274" value="" style="ellipse;whiteSpace=wrap;html=1;strokeColor=#BAC8D3;fontColor=#182E3E;fillColor=#B1DDF0;labelBackgroundColor=none;" parent="1" vertex="1">
          <mxGeometry x="100" y="2435" width="100" height="50" as="geometry" />
        </mxCell>
        <mxCell id="j-sWp2HfxqR8ignj8HMA-275" value="A. of R.&amp;nbsp;" style="text;html=1;strokeColor=none;fillColor=none;align=center;verticalAlign=middle;whiteSpace=wrap;rounded=0;fontColor=#182E3E;labelBackgroundColor=none;" parent="1" vertex="1">
          <mxGeometry x="110" y="2445" width="78" height="30" as="geometry" />
        </mxCell>
        <mxCell id="j-sWp2HfxqR8ignj8HMA-276" value="" style="endArrow=none;html=1;rounded=0;strokeColor=#EEEEEE;exitX=0.5;exitY=0;exitDx=0;exitDy=0;entryX=0.5;entryY=1;entryDx=0;entryDy=0;labelBackgroundColor=none;fontColor=default;" parent="1" source="j-sWp2HfxqR8ignj8HMA-274" target="j-sWp2HfxqR8ignj8HMA-138" edge="1">
          <mxGeometry width="50" height="50" relative="1" as="geometry">
            <mxPoint x="109" y="2433" as="sourcePoint" />
            <mxPoint x="159" y="2383" as="targetPoint" />
            <Array as="points">
              <mxPoint x="150" y="2406" />
              <mxPoint x="350" y="2406" />
            </Array>
          </mxGeometry>
        </mxCell>
        <mxCell id="j-sWp2HfxqR8ignj8HMA-277" value="" style="endArrow=none;html=1;rounded=0;strokeColor=#EEEEEE;exitX=0.5;exitY=0;exitDx=0;exitDy=0;exitPerimeter=0;entryX=0.25;entryY=1;entryDx=0;entryDy=0;labelBackgroundColor=none;fontColor=default;" parent="1" source="j-sWp2HfxqR8ignj8HMA-141" target="j-sWp2HfxqR8ignj8HMA-133" edge="1">
          <mxGeometry width="50" height="50" relative="1" as="geometry">
            <mxPoint x="267" y="2118" as="sourcePoint" />
            <mxPoint x="317" y="2068" as="targetPoint" />
            <Array as="points">
              <mxPoint x="350" y="2146" />
              <mxPoint x="483" y="2146" />
            </Array>
          </mxGeometry>
        </mxCell>
        <mxCell id="j-sWp2HfxqR8ignj8HMA-278" value="" style="endArrow=none;html=1;rounded=0;strokeColor=#EEEEEE;entryX=0.75;entryY=1;entryDx=0;entryDy=0;exitX=0.5;exitY=0;exitDx=0;exitDy=0;exitPerimeter=0;labelBackgroundColor=none;fontColor=default;" parent="1" source="j-sWp2HfxqR8ignj8HMA-254" target="j-sWp2HfxqR8ignj8HMA-133" edge="1">
          <mxGeometry width="50" height="50" relative="1" as="geometry">
            <mxPoint x="510" y="2246" as="sourcePoint" />
            <mxPoint x="560" y="2196" as="targetPoint" />
            <Array as="points">
              <mxPoint x="674" y="2146" />
              <mxPoint x="543" y="2146" />
            </Array>
          </mxGeometry>
        </mxCell>
        <mxCell id="j-sWp2HfxqR8ignj8HMA-279" value="1" style="text;html=1;strokeColor=none;fillColor=none;align=center;verticalAlign=middle;whiteSpace=wrap;rounded=0;fontColor=#182E3E;labelBackgroundColor=none;" parent="1" vertex="1">
          <mxGeometry x="486" y="2112" width="90" height="35" as="geometry" />
        </mxCell>
        <mxCell id="lvPgslv1diBqqbOyzU0L-1" value="" style="rounded=0;whiteSpace=wrap;html=1;strokeColor=#BAC8D3;fontColor=#182E3E;fillColor=#B1DDF0;labelBackgroundColor=none;" parent="1" vertex="1">
          <mxGeometry x="2216" y="1226" width="120" height="60" as="geometry" />
        </mxCell>
        <mxCell id="lvPgslv1diBqqbOyzU0L-2" value="Files Base" style="text;html=1;strokeColor=none;fillColor=none;align=center;verticalAlign=middle;whiteSpace=wrap;rounded=0;fontColor=#182E3E;labelBackgroundColor=none;" parent="1" vertex="1">
          <mxGeometry x="2246" y="1241" width="60" height="30" as="geometry" />
        </mxCell>
        <mxCell id="lvPgslv1diBqqbOyzU0L-3" value="" style="strokeWidth=2;html=1;shape=mxgraph.flowchart.decision;whiteSpace=wrap;strokeColor=#BAC8D3;fontColor=#182E3E;fillColor=#B1DDF0;labelBackgroundColor=none;" parent="1" vertex="1">
          <mxGeometry x="900.5" y="1387" width="150" height="55" as="geometry" />
        </mxCell>
        <mxCell id="lvPgslv1diBqqbOyzU0L-4" value="" style="strokeWidth=2;html=1;shape=mxgraph.flowchart.decision;whiteSpace=wrap;strokeColor=#BAC8D3;fontColor=#182E3E;fillColor=#B1DDF0;labelBackgroundColor=none;" parent="1" vertex="1">
          <mxGeometry x="915.5" y="1389.5" width="120" height="50" as="geometry" />
        </mxCell>
        <mxCell id="lvPgslv1diBqqbOyzU0L-5" value="Include" style="text;html=1;strokeColor=none;fillColor=none;align=center;verticalAlign=middle;whiteSpace=wrap;rounded=0;fontColor=#182E3E;labelBackgroundColor=none;" parent="1" vertex="1">
          <mxGeometry x="930.5" y="1397" width="90" height="35" as="geometry" />
        </mxCell>
        <mxCell id="lvPgslv1diBqqbOyzU0L-6" value="" style="rounded=0;whiteSpace=wrap;html=1;strokeColor=#BAC8D3;fontColor=#182E3E;fillColor=#B1DDF0;labelBackgroundColor=none;" parent="1" vertex="1">
          <mxGeometry x="900.5" y="1515" width="150" height="80" as="geometry" />
        </mxCell>
        <mxCell id="lvPgslv1diBqqbOyzU0L-7" value="" style="rounded=0;whiteSpace=wrap;html=1;strokeColor=#BAC8D3;fontColor=#182E3E;fillColor=#B1DDF0;labelBackgroundColor=none;" parent="1" vertex="1">
          <mxGeometry x="910.5" y="1525" width="130" height="60" as="geometry" />
        </mxCell>
        <mxCell id="lvPgslv1diBqqbOyzU0L-8" value="Complaints/Replies Table(Admins/Anyone Else)" style="text;html=1;strokeColor=none;fillColor=none;align=center;verticalAlign=middle;whiteSpace=wrap;rounded=0;fontColor=#182E3E;labelBackgroundColor=none;" parent="1" vertex="1">
          <mxGeometry x="930.5" y="1537.5" width="90" height="35" as="geometry" />
        </mxCell>
        <mxCell id="lvPgslv1diBqqbOyzU0L-9" value="" style="strokeWidth=2;html=1;shape=mxgraph.flowchart.decision;whiteSpace=wrap;strokeColor=#BAC8D3;fontColor=#182E3E;fillColor=#B1DDF0;labelBackgroundColor=none;" parent="1" vertex="1">
          <mxGeometry x="1503" y="1387" width="150" height="55" as="geometry" />
        </mxCell>
        <mxCell id="lvPgslv1diBqqbOyzU0L-10" value="" style="strokeWidth=2;html=1;shape=mxgraph.flowchart.decision;whiteSpace=wrap;strokeColor=#BAC8D3;fontColor=#182E3E;fillColor=#B1DDF0;labelBackgroundColor=none;" parent="1" vertex="1">
          <mxGeometry x="1518" y="1389.5" width="120" height="50" as="geometry" />
        </mxCell>
        <mxCell id="lvPgslv1diBqqbOyzU0L-11" value="Include" style="text;html=1;strokeColor=none;fillColor=none;align=center;verticalAlign=middle;whiteSpace=wrap;rounded=0;fontColor=#182E3E;labelBackgroundColor=none;" parent="1" vertex="1">
          <mxGeometry x="1533" y="1397" width="90" height="35" as="geometry" />
        </mxCell>
        <mxCell id="lvPgslv1diBqqbOyzU0L-12" value="" style="rounded=0;whiteSpace=wrap;html=1;strokeColor=#BAC8D3;fontColor=#182E3E;fillColor=#B1DDF0;labelBackgroundColor=none;" parent="1" vertex="1">
          <mxGeometry x="1503" y="1515" width="150" height="80" as="geometry" />
        </mxCell>
        <mxCell id="lvPgslv1diBqqbOyzU0L-13" value="" style="rounded=0;whiteSpace=wrap;html=1;strokeColor=#BAC8D3;fontColor=#182E3E;fillColor=#B1DDF0;labelBackgroundColor=none;" parent="1" vertex="1">
          <mxGeometry x="1513" y="1525" width="130" height="60" as="geometry" />
        </mxCell>
        <mxCell id="lvPgslv1diBqqbOyzU0L-14" value="Orders Table (Data Prod.)" style="text;html=1;strokeColor=none;fillColor=none;align=center;verticalAlign=middle;whiteSpace=wrap;rounded=0;fontColor=#182E3E;labelBackgroundColor=none;" parent="1" vertex="1">
          <mxGeometry x="1533" y="1537.5" width="90" height="35" as="geometry" />
        </mxCell>
        <mxCell id="lvPgslv1diBqqbOyzU0L-21" value="" style="ellipse;whiteSpace=wrap;html=1;strokeColor=#BAC8D3;fontColor=#182E3E;fillColor=#B1DDF0;labelBackgroundColor=none;" parent="1" vertex="1">
          <mxGeometry x="924" y="1659" width="100" height="50" as="geometry" />
        </mxCell>
        <mxCell id="lvPgslv1diBqqbOyzU0L-22" value="Complaint" style="text;html=1;strokeColor=none;fillColor=none;align=center;verticalAlign=middle;whiteSpace=wrap;rounded=0;fontColor=#182E3E;labelBackgroundColor=none;" parent="1" vertex="1">
          <mxGeometry x="941.5" y="1669" width="65" height="30" as="geometry" />
        </mxCell>
        <mxCell id="lvPgslv1diBqqbOyzU0L-23" value="" style="ellipse;whiteSpace=wrap;html=1;strokeColor=#BAC8D3;fontColor=#182E3E;fillColor=#B1DDF0;labelBackgroundColor=none;" parent="1" vertex="1">
          <mxGeometry x="1462" y="1659" width="100" height="50" as="geometry" />
        </mxCell>
        <mxCell id="lvPgslv1diBqqbOyzU0L-24" value="Link to File on Server" style="text;html=1;strokeColor=none;fillColor=none;align=center;verticalAlign=middle;whiteSpace=wrap;rounded=0;fontColor=#182E3E;labelBackgroundColor=none;" parent="1" vertex="1">
          <mxGeometry x="1479.5" y="1669" width="65" height="30" as="geometry" />
        </mxCell>
        <mxCell id="lvPgslv1diBqqbOyzU0L-27" value="" style="ellipse;whiteSpace=wrap;html=1;strokeColor=#BAC8D3;fontColor=#182E3E;fillColor=#B1DDF0;labelBackgroundColor=none;" parent="1" vertex="1">
          <mxGeometry x="1061" y="1660" width="100" height="50" as="geometry" />
        </mxCell>
        <mxCell id="lvPgslv1diBqqbOyzU0L-28" value="Theme" style="text;html=1;strokeColor=none;fillColor=none;align=center;verticalAlign=middle;whiteSpace=wrap;rounded=0;fontColor=#182E3E;labelBackgroundColor=none;" parent="1" vertex="1">
          <mxGeometry x="1078.5" y="1670" width="65" height="30" as="geometry" />
        </mxCell>
        <mxCell id="lvPgslv1diBqqbOyzU0L-29" value="" style="ellipse;whiteSpace=wrap;html=1;strokeColor=#BAC8D3;fontColor=#182E3E;fillColor=#B1DDF0;labelBackgroundColor=none;" parent="1" vertex="1">
          <mxGeometry x="993" y="1732" width="100" height="50" as="geometry" />
        </mxCell>
        <mxCell id="lvPgslv1diBqqbOyzU0L-30" value="Sender Login" style="text;html=1;strokeColor=none;fillColor=none;align=center;verticalAlign=middle;whiteSpace=wrap;rounded=0;fontColor=#182E3E;labelBackgroundColor=none;" parent="1" vertex="1">
          <mxGeometry x="1010.5" y="1742" width="65" height="30" as="geometry" />
        </mxCell>
        <mxCell id="lvPgslv1diBqqbOyzU0L-31" value="" style="ellipse;whiteSpace=wrap;html=1;strokeColor=#BAC8D3;fontColor=#182E3E;fillColor=#B1DDF0;labelBackgroundColor=none;" parent="1" vertex="1">
          <mxGeometry x="1596" y="1659" width="100" height="50" as="geometry" />
        </mxCell>
        <mxCell id="lvPgslv1diBqqbOyzU0L-32" value="Department" style="text;html=1;strokeColor=none;fillColor=none;align=center;verticalAlign=middle;whiteSpace=wrap;rounded=0;fontColor=#182E3E;labelBackgroundColor=none;" parent="1" vertex="1">
          <mxGeometry x="1613.5" y="1669" width="65" height="30" as="geometry" />
        </mxCell>
        <mxCell id="lvPgslv1diBqqbOyzU0L-33" value="" style="ellipse;whiteSpace=wrap;html=1;strokeColor=#BAC8D3;fontColor=#182E3E;fillColor=#B1DDF0;labelBackgroundColor=none;" parent="1" vertex="1">
          <mxGeometry x="1395" y="1742" width="100" height="50" as="geometry" />
        </mxCell>
        <mxCell id="lvPgslv1diBqqbOyzU0L-34" value="Sender Login" style="text;html=1;strokeColor=none;fillColor=none;align=center;verticalAlign=middle;whiteSpace=wrap;rounded=0;fontColor=#182E3E;labelBackgroundColor=none;" parent="1" vertex="1">
          <mxGeometry x="1412.5" y="1752" width="65" height="30" as="geometry" />
        </mxCell>
        <mxCell id="lvPgslv1diBqqbOyzU0L-35" value="" style="ellipse;whiteSpace=wrap;html=1;strokeColor=#BAC8D3;fontColor=#182E3E;fillColor=#B1DDF0;labelBackgroundColor=none;" parent="1" vertex="1">
          <mxGeometry x="1530" y="1745" width="100" height="50" as="geometry" />
        </mxCell>
        <mxCell id="lvPgslv1diBqqbOyzU0L-36" value="Description" style="text;html=1;strokeColor=none;fillColor=none;align=center;verticalAlign=middle;whiteSpace=wrap;rounded=0;fontColor=#182E3E;labelBackgroundColor=none;" parent="1" vertex="1">
          <mxGeometry x="1547.5" y="1755" width="65" height="30" as="geometry" />
        </mxCell>
        <mxCell id="lvPgslv1diBqqbOyzU0L-37" value="" style="ellipse;whiteSpace=wrap;html=1;strokeColor=#BAC8D3;fontColor=#182E3E;fillColor=#B1DDF0;labelBackgroundColor=none;" parent="1" vertex="1">
          <mxGeometry x="837" y="1732" width="100" height="50" as="geometry" />
        </mxCell>
        <mxCell id="lvPgslv1diBqqbOyzU0L-38" value="Sender&lt;br&gt;Group" style="text;html=1;strokeColor=none;fillColor=none;align=center;verticalAlign=middle;whiteSpace=wrap;rounded=0;fontColor=#182E3E;labelBackgroundColor=none;" parent="1" vertex="1">
          <mxGeometry x="854.5" y="1742" width="65" height="30" as="geometry" />
        </mxCell>
        <mxCell id="lvPgslv1diBqqbOyzU0L-45" value="" style="endArrow=none;html=1;rounded=0;strokeColor=#EEEEEE;fontColor=#FFFFFF;entryX=0.25;entryY=1;entryDx=0;entryDy=0;exitX=0.5;exitY=0;exitDx=0;exitDy=0;exitPerimeter=0;" parent="1" source="lvPgslv1diBqqbOyzU0L-3" target="lvPgslv1diBqqbOyzU0L-1" edge="1">
          <mxGeometry width="50" height="50" relative="1" as="geometry">
            <mxPoint x="1254" y="1536" as="sourcePoint" />
            <mxPoint x="1304" y="1486" as="targetPoint" />
            <Array as="points">
              <mxPoint x="976" y="1320" />
              <mxPoint x="2246" y="1325" />
            </Array>
          </mxGeometry>
        </mxCell>
        <mxCell id="lvPgslv1diBqqbOyzU0L-46" value="" style="endArrow=none;html=1;rounded=0;strokeColor=#EEEEEE;fontColor=#FFFFFF;entryX=0.25;entryY=1;entryDx=0;entryDy=0;exitX=0.5;exitY=0;exitDx=0;exitDy=0;exitPerimeter=0;" parent="1" source="lvPgslv1diBqqbOyzU0L-10" target="lvPgslv1diBqqbOyzU0L-1" edge="1">
          <mxGeometry width="50" height="50" relative="1" as="geometry">
            <mxPoint x="1305" y="1540" as="sourcePoint" />
            <mxPoint x="1355" y="1490" as="targetPoint" />
            <Array as="points">
              <mxPoint x="1578" y="1322" />
              <mxPoint x="2246" y="1325" />
            </Array>
          </mxGeometry>
        </mxCell>
        <mxCell id="lvPgslv1diBqqbOyzU0L-48" value="" style="endArrow=none;html=1;rounded=0;strokeColor=#EEEEEE;fontColor=#FFFFFF;entryX=0.5;entryY=1;entryDx=0;entryDy=0;entryPerimeter=0;exitX=0.5;exitY=0;exitDx=0;exitDy=0;" parent="1" source="lvPgslv1diBqqbOyzU0L-6" target="lvPgslv1diBqqbOyzU0L-3" edge="1">
          <mxGeometry width="50" height="50" relative="1" as="geometry">
            <mxPoint x="1107" y="1550" as="sourcePoint" />
            <mxPoint x="1157" y="1500" as="targetPoint" />
          </mxGeometry>
        </mxCell>
        <mxCell id="lvPgslv1diBqqbOyzU0L-49" value="" style="endArrow=none;html=1;rounded=0;strokeColor=#EEEEEE;fontColor=#FFFFFF;entryX=0.5;entryY=1;entryDx=0;entryDy=0;entryPerimeter=0;exitX=0.5;exitY=0;exitDx=0;exitDy=0;" parent="1" source="lvPgslv1diBqqbOyzU0L-12" target="lvPgslv1diBqqbOyzU0L-9" edge="1">
          <mxGeometry width="50" height="50" relative="1" as="geometry">
            <mxPoint x="1412" y="1550" as="sourcePoint" />
            <mxPoint x="1462" y="1500" as="targetPoint" />
          </mxGeometry>
        </mxCell>
        <mxCell id="lvPgslv1diBqqbOyzU0L-54" value="" style="endArrow=none;html=1;rounded=0;strokeColor=#EEEEEE;fontColor=#FFFFFF;entryX=0.5;entryY=1;entryDx=0;entryDy=0;entryPerimeter=0;exitX=0.5;exitY=0;exitDx=0;exitDy=0;" parent="1" source="lvPgslv1diBqqbOyzU0L-12" target="lvPgslv1diBqqbOyzU0L-9" edge="1">
          <mxGeometry width="50" height="50" relative="1" as="geometry">
            <mxPoint x="1578" y="1500" as="sourcePoint" />
            <mxPoint x="1444" y="1560" as="targetPoint" />
          </mxGeometry>
        </mxCell>
        <mxCell id="lvPgslv1diBqqbOyzU0L-55" value="" style="endArrow=none;html=1;rounded=0;strokeColor=#EEEEEE;fontColor=#FFFFFF;entryX=0.5;entryY=1;entryDx=0;entryDy=0;exitX=0.5;exitY=0;exitDx=0;exitDy=0;" parent="1" source="lvPgslv1diBqqbOyzU0L-23" target="lvPgslv1diBqqbOyzU0L-12" edge="1">
          <mxGeometry width="50" height="50" relative="1" as="geometry">
            <mxPoint x="1414" y="1660" as="sourcePoint" />
            <mxPoint x="1464" y="1610" as="targetPoint" />
            <Array as="points">
              <mxPoint x="1512" y="1630" />
              <mxPoint x="1578" y="1630" />
            </Array>
          </mxGeometry>
        </mxCell>
        <mxCell id="lvPgslv1diBqqbOyzU0L-56" value="" style="endArrow=none;html=1;rounded=0;strokeColor=#EEEEEE;fontColor=#FFFFFF;entryX=0.5;entryY=1;entryDx=0;entryDy=0;exitX=0.5;exitY=0;exitDx=0;exitDy=0;" parent="1" source="lvPgslv1diBqqbOyzU0L-31" target="lvPgslv1diBqqbOyzU0L-12" edge="1">
          <mxGeometry width="50" height="50" relative="1" as="geometry">
            <mxPoint x="1664" y="1660" as="sourcePoint" />
            <mxPoint x="1714" y="1610" as="targetPoint" />
            <Array as="points">
              <mxPoint x="1646" y="1630" />
              <mxPoint x="1578" y="1630" />
            </Array>
          </mxGeometry>
        </mxCell>
        <mxCell id="lvPgslv1diBqqbOyzU0L-57" value="" style="endArrow=none;html=1;rounded=0;strokeColor=#EEEEEE;fontColor=#FFFFFF;entryX=0.5;entryY=1;entryDx=0;entryDy=0;exitX=0.5;exitY=0;exitDx=0;exitDy=0;" parent="1" source="lvPgslv1diBqqbOyzU0L-35" target="lvPgslv1diBqqbOyzU0L-12" edge="1">
          <mxGeometry width="50" height="50" relative="1" as="geometry">
            <mxPoint x="1374" y="1730" as="sourcePoint" />
            <mxPoint x="1584" y="1600" as="targetPoint" />
            <Array as="points">
              <mxPoint x="1578" y="1630" />
            </Array>
          </mxGeometry>
        </mxCell>
        <mxCell id="lvPgslv1diBqqbOyzU0L-58" value="" style="endArrow=none;html=1;rounded=0;strokeColor=#EEEEEE;fontColor=#FFFFFF;entryX=0.5;entryY=1;entryDx=0;entryDy=0;exitX=0.5;exitY=0;exitDx=0;exitDy=0;" parent="1" source="lvPgslv1diBqqbOyzU0L-33" target="lvPgslv1diBqqbOyzU0L-12" edge="1">
          <mxGeometry width="50" height="50" relative="1" as="geometry">
            <mxPoint x="1344" y="1720" as="sourcePoint" />
            <mxPoint x="1394" y="1670" as="targetPoint" />
            <Array as="points">
              <mxPoint x="1442" y="1630" />
              <mxPoint x="1578" y="1630" />
            </Array>
          </mxGeometry>
        </mxCell>
        <mxCell id="lvPgslv1diBqqbOyzU0L-59" value="" style="endArrow=none;html=1;rounded=0;strokeColor=#EEEEEE;fontColor=#FFFFFF;entryX=0.5;entryY=1;entryDx=0;entryDy=0;exitX=0.5;exitY=0;exitDx=0;exitDy=0;" parent="1" source="lvPgslv1diBqqbOyzU0L-21" target="lvPgslv1diBqqbOyzU0L-6" edge="1">
          <mxGeometry width="50" height="50" relative="1" as="geometry">
            <mxPoint x="867" y="1670" as="sourcePoint" />
            <mxPoint x="917" y="1620" as="targetPoint" />
            <Array as="points">
              <mxPoint x="974" y="1630" />
            </Array>
          </mxGeometry>
        </mxCell>
        <mxCell id="lvPgslv1diBqqbOyzU0L-60" value="" style="endArrow=none;html=1;rounded=0;strokeColor=#EEEEEE;fontColor=#FFFFFF;entryX=0.5;entryY=1;entryDx=0;entryDy=0;exitX=0.5;exitY=0;exitDx=0;exitDy=0;" parent="1" source="lvPgslv1diBqqbOyzU0L-27" target="lvPgslv1diBqqbOyzU0L-6" edge="1">
          <mxGeometry width="50" height="50" relative="1" as="geometry">
            <mxPoint x="1017" y="1720" as="sourcePoint" />
            <mxPoint x="1067" y="1670" as="targetPoint" />
            <Array as="points">
              <mxPoint x="1111" y="1630" />
              <mxPoint x="976" y="1630" />
            </Array>
          </mxGeometry>
        </mxCell>
        <mxCell id="lvPgslv1diBqqbOyzU0L-61" value="" style="endArrow=none;html=1;rounded=0;strokeColor=#EEEEEE;fontColor=#FFFFFF;entryX=0.5;entryY=1;entryDx=0;entryDy=0;exitX=0.5;exitY=0;exitDx=0;exitDy=0;" parent="1" source="lvPgslv1diBqqbOyzU0L-29" target="lvPgslv1diBqqbOyzU0L-6" edge="1">
          <mxGeometry width="50" height="50" relative="1" as="geometry">
            <mxPoint x="937" y="1910" as="sourcePoint" />
            <mxPoint x="987" y="1860" as="targetPoint" />
            <Array as="points">
              <mxPoint x="1043" y="1632" />
              <mxPoint x="976" y="1632" />
            </Array>
          </mxGeometry>
        </mxCell>
        <mxCell id="lvPgslv1diBqqbOyzU0L-62" value="" style="endArrow=none;html=1;rounded=0;strokeColor=#EEEEEE;fontColor=#FFFFFF;entryX=0.5;entryY=1;entryDx=0;entryDy=0;exitX=0.5;exitY=0;exitDx=0;exitDy=0;" parent="1" source="lvPgslv1diBqqbOyzU0L-37" target="lvPgslv1diBqqbOyzU0L-6" edge="1">
          <mxGeometry width="50" height="50" relative="1" as="geometry">
            <mxPoint x="847" y="1670" as="sourcePoint" />
            <mxPoint x="897" y="1620" as="targetPoint" />
            <Array as="points">
              <mxPoint x="887" y="1630" />
              <mxPoint x="976" y="1630" />
            </Array>
          </mxGeometry>
        </mxCell>
        <mxCell id="lvPgslv1diBqqbOyzU0L-63" value="" style="ellipse;whiteSpace=wrap;html=1;strokeColor=#BAC8D3;fontColor=#182E3E;fillColor=#B1DDF0;labelBackgroundColor=none;" parent="1" vertex="1">
          <mxGeometry x="1144" y="1732" width="100" height="50" as="geometry" />
        </mxCell>
        <mxCell id="lvPgslv1diBqqbOyzU0L-64" value="Recipient&lt;br&gt;Role" style="text;html=1;strokeColor=none;fillColor=none;align=center;verticalAlign=middle;whiteSpace=wrap;rounded=0;fontColor=#182E3E;labelBackgroundColor=none;" parent="1" vertex="1">
          <mxGeometry x="1161.5" y="1742" width="65" height="30" as="geometry" />
        </mxCell>
        <mxCell id="lvPgslv1diBqqbOyzU0L-65" value="" style="endArrow=none;html=1;rounded=0;strokeColor=#EEEEEE;fontColor=#FFFFFF;entryX=0.5;entryY=1;entryDx=0;entryDy=0;exitX=0.5;exitY=0;exitDx=0;exitDy=0;" parent="1" source="lvPgslv1diBqqbOyzU0L-63" target="lvPgslv1diBqqbOyzU0L-6" edge="1">
          <mxGeometry width="50" height="50" relative="1" as="geometry">
            <mxPoint x="1223" y="1690" as="sourcePoint" />
            <mxPoint x="1273" y="1640" as="targetPoint" />
            <Array as="points">
              <mxPoint x="1194" y="1630" />
              <mxPoint x="976" y="1630" />
            </Array>
          </mxGeometry>
        </mxCell>
        <mxCell id="lvPgslv1diBqqbOyzU0L-66" value="" style="ellipse;whiteSpace=wrap;html=1;strokeColor=#BAC8D3;fontColor=#182E3E;fillColor=#B1DDF0;labelBackgroundColor=none;" parent="1" vertex="1">
          <mxGeometry x="2227" y="1104" width="100" height="50" as="geometry" />
        </mxCell>
        <mxCell id="lvPgslv1diBqqbOyzU0L-67" value="Name" style="text;html=1;strokeColor=none;fillColor=none;align=center;verticalAlign=middle;whiteSpace=wrap;rounded=0;fontColor=#182E3E;labelBackgroundColor=none;" parent="1" vertex="1">
          <mxGeometry x="2247" y="1114" width="60" height="30" as="geometry" />
        </mxCell>
        <mxCell id="lvPgslv1diBqqbOyzU0L-68" value="" style="endArrow=none;html=1;rounded=0;strokeColor=#EEEEEE;fontColor=#FFFFFF;entryX=0.5;entryY=1;entryDx=0;entryDy=0;exitX=0.5;exitY=0;exitDx=0;exitDy=0;" parent="1" source="lvPgslv1diBqqbOyzU0L-1" target="lvPgslv1diBqqbOyzU0L-66" edge="1">
          <mxGeometry width="50" height="50" relative="1" as="geometry">
            <mxPoint x="2117" y="1246" as="sourcePoint" />
            <mxPoint x="2167" y="1196" as="targetPoint" />
          </mxGeometry>
        </mxCell>
        <mxCell id="lvPgslv1diBqqbOyzU0L-69" value="" style="strokeWidth=2;html=1;shape=mxgraph.flowchart.decision;whiteSpace=wrap;strokeColor=#BAC8D3;fontColor=#182E3E;fillColor=#B1DDF0;labelBackgroundColor=none;" parent="1" vertex="1">
          <mxGeometry x="2201" y="1389.5" width="150" height="55" as="geometry" />
        </mxCell>
        <mxCell id="lvPgslv1diBqqbOyzU0L-70" value="" style="strokeWidth=2;html=1;shape=mxgraph.flowchart.decision;whiteSpace=wrap;strokeColor=#BAC8D3;fontColor=#182E3E;fillColor=#B1DDF0;labelBackgroundColor=none;" parent="1" vertex="1">
          <mxGeometry x="2216" y="1392" width="120" height="50" as="geometry" />
        </mxCell>
        <mxCell id="lvPgslv1diBqqbOyzU0L-71" value="Include" style="text;html=1;strokeColor=none;fillColor=none;align=center;verticalAlign=middle;whiteSpace=wrap;rounded=0;fontColor=#182E3E;labelBackgroundColor=none;" parent="1" vertex="1">
          <mxGeometry x="2231" y="1399.5" width="90" height="35" as="geometry" />
        </mxCell>
        <mxCell id="lvPgslv1diBqqbOyzU0L-72" value="" style="rounded=0;whiteSpace=wrap;html=1;strokeColor=#BAC8D3;fontColor=#182E3E;fillColor=#B1DDF0;labelBackgroundColor=none;" parent="1" vertex="1">
          <mxGeometry x="2201" y="1517.5" width="150" height="80" as="geometry" />
        </mxCell>
        <mxCell id="lvPgslv1diBqqbOyzU0L-73" value="" style="rounded=0;whiteSpace=wrap;html=1;strokeColor=#BAC8D3;fontColor=#182E3E;fillColor=#B1DDF0;labelBackgroundColor=none;" parent="1" vertex="1">
          <mxGeometry x="2211" y="1527.5" width="130" height="60" as="geometry" />
        </mxCell>
        <mxCell id="lvPgslv1diBqqbOyzU0L-74" value="Loaded Data Table (Data Prod.)" style="text;html=1;strokeColor=none;fillColor=none;align=center;verticalAlign=middle;whiteSpace=wrap;rounded=0;fontColor=#182E3E;labelBackgroundColor=none;" parent="1" vertex="1">
          <mxGeometry x="2231" y="1540" width="90" height="35" as="geometry" />
        </mxCell>
        <mxCell id="lvPgslv1diBqqbOyzU0L-75" value="" style="ellipse;whiteSpace=wrap;html=1;strokeColor=#BAC8D3;fontColor=#182E3E;fillColor=#B1DDF0;labelBackgroundColor=none;" parent="1" vertex="1">
          <mxGeometry x="2085.5" y="1659.5" width="100" height="50" as="geometry" />
        </mxCell>
        <mxCell id="lvPgslv1diBqqbOyzU0L-76" value="Link to File on Server" style="text;html=1;strokeColor=none;fillColor=none;align=center;verticalAlign=middle;whiteSpace=wrap;rounded=0;fontColor=#182E3E;labelBackgroundColor=none;" parent="1" vertex="1">
          <mxGeometry x="2103" y="1669.5" width="65" height="30" as="geometry" />
        </mxCell>
        <mxCell id="lvPgslv1diBqqbOyzU0L-77" value="" style="ellipse;whiteSpace=wrap;html=1;strokeColor=#BAC8D3;fontColor=#182E3E;fillColor=#B1DDF0;labelBackgroundColor=none;" parent="1" vertex="1">
          <mxGeometry x="2018" y="1737" width="100" height="50" as="geometry" />
        </mxCell>
        <mxCell id="lvPgslv1diBqqbOyzU0L-78" value="Processed Marker" style="text;html=1;strokeColor=none;fillColor=none;align=center;verticalAlign=middle;whiteSpace=wrap;rounded=0;fontColor=#182E3E;labelBackgroundColor=none;" parent="1" vertex="1">
          <mxGeometry x="2035.5" y="1747" width="65" height="30" as="geometry" />
        </mxCell>
        <mxCell id="lvPgslv1diBqqbOyzU0L-79" value="Processed by (Login)" style="ellipse;whiteSpace=wrap;html=1;strokeColor=#BAC8D3;fontColor=#182E3E;fillColor=#B1DDF0;labelBackgroundColor=none;" parent="1" vertex="1">
          <mxGeometry x="2153" y="1740" width="100" height="50" as="geometry" />
        </mxCell>
        <mxCell id="lvPgslv1diBqqbOyzU0L-81" value="" style="endArrow=none;html=1;rounded=0;strokeColor=#EEEEEE;fontColor=#FFFFFF;entryX=0.5;entryY=1;entryDx=0;entryDy=0;entryPerimeter=0;exitX=0.5;exitY=0;exitDx=0;exitDy=0;" parent="1" source="lvPgslv1diBqqbOyzU0L-72" target="lvPgslv1diBqqbOyzU0L-69" edge="1">
          <mxGeometry width="50" height="50" relative="1" as="geometry">
            <mxPoint x="2103" y="1521" as="sourcePoint" />
            <mxPoint x="2153" y="1471" as="targetPoint" />
          </mxGeometry>
        </mxCell>
        <mxCell id="lvPgslv1diBqqbOyzU0L-82" value="" style="endArrow=none;html=1;rounded=0;strokeColor=#EEEEEE;fontColor=#FFFFFF;entryX=0.5;entryY=1;entryDx=0;entryDy=0;exitX=0.5;exitY=0;exitDx=0;exitDy=0;" parent="1" source="lvPgslv1diBqqbOyzU0L-75" target="lvPgslv1diBqqbOyzU0L-72" edge="1">
          <mxGeometry width="50" height="50" relative="1" as="geometry">
            <mxPoint x="1984.5" y="1704" as="sourcePoint" />
            <mxPoint x="2034.5" y="1654" as="targetPoint" />
            <Array as="points">
              <mxPoint x="2136" y="1630" />
              <mxPoint x="2276" y="1630" />
            </Array>
          </mxGeometry>
        </mxCell>
        <mxCell id="lvPgslv1diBqqbOyzU0L-83" value="" style="endArrow=none;html=1;rounded=0;strokeColor=#EEEEEE;fontColor=#FFFFFF;entryX=0.5;entryY=1;entryDx=0;entryDy=0;exitX=0.5;exitY=0;exitDx=0;exitDy=0;" parent="1" source="lvPgslv1diBqqbOyzU0L-77" target="lvPgslv1diBqqbOyzU0L-72" edge="1">
          <mxGeometry width="50" height="50" relative="1" as="geometry">
            <mxPoint x="1996.5" y="1737" as="sourcePoint" />
            <mxPoint x="2046.5" y="1687" as="targetPoint" />
            <Array as="points">
              <mxPoint x="2068.5" y="1628" />
              <mxPoint x="2276" y="1628" />
            </Array>
          </mxGeometry>
        </mxCell>
        <mxCell id="lvPgslv1diBqqbOyzU0L-84" value="" style="endArrow=none;html=1;rounded=0;strokeColor=#EEEEEE;fontColor=#FFFFFF;exitX=0.5;exitY=0;exitDx=0;exitDy=0;entryX=0.5;entryY=1;entryDx=0;entryDy=0;" parent="1" source="lvPgslv1diBqqbOyzU0L-79" target="lvPgslv1diBqqbOyzU0L-72" edge="1">
          <mxGeometry width="50" height="50" relative="1" as="geometry">
            <mxPoint x="2309.5" y="1728" as="sourcePoint" />
            <mxPoint x="2149.5" y="1608" as="targetPoint" />
            <Array as="points">
              <mxPoint x="2203.5" y="1628" />
              <mxPoint x="2276" y="1628" />
            </Array>
          </mxGeometry>
        </mxCell>
        <mxCell id="lvPgslv1diBqqbOyzU0L-85" value="" style="ellipse;whiteSpace=wrap;html=1;strokeColor=#BAC8D3;fontColor=#182E3E;fillColor=#B1DDF0;labelBackgroundColor=none;" parent="1" vertex="1">
          <mxGeometry x="2226" y="1659.5" width="100" height="50" as="geometry" />
        </mxCell>
        <mxCell id="lvPgslv1diBqqbOyzU0L-86" value="Department" style="text;html=1;strokeColor=none;fillColor=none;align=center;verticalAlign=middle;whiteSpace=wrap;rounded=0;fontColor=#182E3E;labelBackgroundColor=none;" parent="1" vertex="1">
          <mxGeometry x="2243.5" y="1669.5" width="65" height="30" as="geometry" />
        </mxCell>
        <mxCell id="lvPgslv1diBqqbOyzU0L-87" value="" style="ellipse;whiteSpace=wrap;html=1;strokeColor=#BAC8D3;fontColor=#182E3E;fillColor=#B1DDF0;labelBackgroundColor=none;" parent="1" vertex="1">
          <mxGeometry x="2309" y="1740" width="100" height="50" as="geometry" />
        </mxCell>
        <mxCell id="lvPgslv1diBqqbOyzU0L-88" value="Sender Login" style="text;html=1;strokeColor=none;fillColor=none;align=center;verticalAlign=middle;whiteSpace=wrap;rounded=0;fontColor=#182E3E;labelBackgroundColor=none;" parent="1" vertex="1">
          <mxGeometry x="2326.5" y="1750" width="65" height="30" as="geometry" />
        </mxCell>
        <mxCell id="lvPgslv1diBqqbOyzU0L-89" value="" style="ellipse;whiteSpace=wrap;html=1;strokeColor=#BAC8D3;fontColor=#182E3E;fillColor=#B1DDF0;labelBackgroundColor=none;" parent="1" vertex="1">
          <mxGeometry x="2387.5" y="1656.5" width="100" height="50" as="geometry" />
        </mxCell>
        <mxCell id="lvPgslv1diBqqbOyzU0L-90" value="Read Marker" style="text;html=1;strokeColor=none;fillColor=none;align=center;verticalAlign=middle;whiteSpace=wrap;rounded=0;fontColor=#182E3E;labelBackgroundColor=none;" parent="1" vertex="1">
          <mxGeometry x="2405" y="1666.5" width="65" height="30" as="geometry" />
        </mxCell>
        <mxCell id="lvPgslv1diBqqbOyzU0L-91" value="" style="ellipse;whiteSpace=wrap;html=1;strokeColor=#BAC8D3;fontColor=#182E3E;fillColor=#B1DDF0;labelBackgroundColor=none;" parent="1" vertex="1">
          <mxGeometry x="1668" y="1742" width="100" height="50" as="geometry" />
        </mxCell>
        <mxCell id="lvPgslv1diBqqbOyzU0L-92" value="Verified to Send Marker" style="text;html=1;strokeColor=none;fillColor=none;align=center;verticalAlign=middle;whiteSpace=wrap;rounded=0;fontColor=#182E3E;labelBackgroundColor=none;" parent="1" vertex="1">
          <mxGeometry x="1685.5" y="1752" width="65" height="30" as="geometry" />
        </mxCell>
        <mxCell id="lvPgslv1diBqqbOyzU0L-93" value="" style="endArrow=none;html=1;rounded=0;strokeColor=#EEEEEE;fontColor=#FFFFFF;entryX=0.5;entryY=1;entryDx=0;entryDy=0;exitX=0.5;exitY=0;exitDx=0;exitDy=0;" parent="1" source="lvPgslv1diBqqbOyzU0L-91" target="lvPgslv1diBqqbOyzU0L-12" edge="1">
          <mxGeometry width="50" height="50" relative="1" as="geometry">
            <mxPoint x="1667" y="1899" as="sourcePoint" />
            <mxPoint x="1717" y="1849" as="targetPoint" />
            <Array as="points">
              <mxPoint x="1718" y="1630" />
              <mxPoint x="1578" y="1630" />
            </Array>
          </mxGeometry>
        </mxCell>
        <mxCell id="lvPgslv1diBqqbOyzU0L-94" value="" style="ellipse;whiteSpace=wrap;html=1;strokeColor=#BAC8D3;fontColor=#182E3E;fillColor=#B1DDF0;labelBackgroundColor=none;" parent="1" vertex="1">
          <mxGeometry x="1737" y="1660" width="100" height="50" as="geometry" />
        </mxCell>
        <mxCell id="lvPgslv1diBqqbOyzU0L-95" value="Read (Recipient) Marker" style="text;html=1;strokeColor=none;fillColor=none;align=center;verticalAlign=middle;whiteSpace=wrap;rounded=0;fontColor=#182E3E;labelBackgroundColor=none;" parent="1" vertex="1">
          <mxGeometry x="1754.5" y="1670" width="65" height="30" as="geometry" />
        </mxCell>
        <mxCell id="lvPgslv1diBqqbOyzU0L-96" value="" style="endArrow=none;html=1;rounded=0;strokeColor=#EEEEEE;fontColor=#FFFFFF;entryX=0.5;entryY=1;entryDx=0;entryDy=0;exitX=0.5;exitY=0;exitDx=0;exitDy=0;" parent="1" source="lvPgslv1diBqqbOyzU0L-94" target="lvPgslv1diBqqbOyzU0L-12" edge="1">
          <mxGeometry width="50" height="50" relative="1" as="geometry">
            <mxPoint x="1755" y="1607" as="sourcePoint" />
            <mxPoint x="1805" y="1557" as="targetPoint" />
            <Array as="points">
              <mxPoint x="1787" y="1630" />
              <mxPoint x="1578" y="1630" />
            </Array>
          </mxGeometry>
        </mxCell>
        <mxCell id="lvPgslv1diBqqbOyzU0L-97" value="" style="ellipse;whiteSpace=wrap;html=1;strokeColor=#BAC8D3;fontColor=#182E3E;fillColor=#B1DDF0;labelBackgroundColor=none;" parent="1" vertex="1">
          <mxGeometry x="1816" y="1742" width="100" height="50" as="geometry" />
        </mxCell>
        <mxCell id="lvPgslv1diBqqbOyzU0L-98" value="Sent Marker" style="text;html=1;strokeColor=none;fillColor=none;align=center;verticalAlign=middle;whiteSpace=wrap;rounded=0;fontColor=#182E3E;labelBackgroundColor=none;" parent="1" vertex="1">
          <mxGeometry x="1833.5" y="1752" width="65" height="30" as="geometry" />
        </mxCell>
        <mxCell id="lvPgslv1diBqqbOyzU0L-99" value="" style="endArrow=none;html=1;rounded=0;strokeColor=#EEEEEE;fontColor=#FFFFFF;entryX=0.5;entryY=1;entryDx=0;entryDy=0;exitX=0.5;exitY=0;exitDx=0;exitDy=0;" parent="1" source="lvPgslv1diBqqbOyzU0L-97" target="lvPgslv1diBqqbOyzU0L-12" edge="1">
          <mxGeometry width="50" height="50" relative="1" as="geometry">
            <mxPoint x="1833" y="1644" as="sourcePoint" />
            <mxPoint x="1883" y="1594" as="targetPoint" />
            <Array as="points">
              <mxPoint x="1866" y="1630" />
              <mxPoint x="1578" y="1630" />
            </Array>
          </mxGeometry>
        </mxCell>
        <mxCell id="lvPgslv1diBqqbOyzU0L-100" value="" style="ellipse;whiteSpace=wrap;html=1;strokeColor=#BAC8D3;fontColor=#182E3E;fillColor=#B1DDF0;labelBackgroundColor=none;" parent="1" vertex="1">
          <mxGeometry x="1457" y="1819" width="100" height="50" as="geometry" />
        </mxCell>
        <mxCell id="lvPgslv1diBqqbOyzU0L-101" value="Bad Order Marker" style="text;html=1;strokeColor=none;fillColor=none;align=center;verticalAlign=middle;whiteSpace=wrap;rounded=0;fontColor=#182E3E;labelBackgroundColor=none;" parent="1" vertex="1">
          <mxGeometry x="1474.5" y="1829" width="65" height="30" as="geometry" />
        </mxCell>
        <mxCell id="lvPgslv1diBqqbOyzU0L-102" value="" style="ellipse;whiteSpace=wrap;html=1;strokeColor=#BAC8D3;fontColor=#182E3E;fillColor=#B1DDF0;labelBackgroundColor=none;" parent="1" vertex="1">
          <mxGeometry x="1600" y="1819" width="100" height="50" as="geometry" />
        </mxCell>
        <mxCell id="lvPgslv1diBqqbOyzU0L-103" value="Done Order Marker" style="text;html=1;strokeColor=none;fillColor=none;align=center;verticalAlign=middle;whiteSpace=wrap;rounded=0;fontColor=#182E3E;labelBackgroundColor=none;" parent="1" vertex="1">
          <mxGeometry x="1617.5" y="1829" width="65" height="30" as="geometry" />
        </mxCell>
        <mxCell id="lvPgslv1diBqqbOyzU0L-104" value="" style="ellipse;whiteSpace=wrap;html=1;strokeColor=#BAC8D3;fontColor=#182E3E;fillColor=#B1DDF0;labelBackgroundColor=none;" parent="1" vertex="1">
          <mxGeometry x="1737" y="1819" width="100" height="50" as="geometry" />
        </mxCell>
        <mxCell id="lvPgslv1diBqqbOyzU0L-105" value="Complaint&lt;br&gt;Description" style="text;html=1;strokeColor=none;fillColor=none;align=center;verticalAlign=middle;whiteSpace=wrap;rounded=0;fontColor=#182E3E;labelBackgroundColor=none;" parent="1" vertex="1">
          <mxGeometry x="1754.5" y="1829" width="65" height="30" as="geometry" />
        </mxCell>
        <mxCell id="lvPgslv1diBqqbOyzU0L-106" value="" style="ellipse;whiteSpace=wrap;html=1;strokeColor=#BAC8D3;fontColor=#182E3E;fillColor=#B1DDF0;labelBackgroundColor=none;" parent="1" vertex="1">
          <mxGeometry x="1510" y="1894" width="134" height="52" as="geometry" />
        </mxCell>
        <mxCell id="lvPgslv1diBqqbOyzU0L-107" value="Done by (data prod. Login)" style="text;html=1;strokeColor=none;fillColor=none;align=center;verticalAlign=middle;whiteSpace=wrap;rounded=0;fontColor=#182E3E;labelBackgroundColor=none;" parent="1" vertex="1">
          <mxGeometry x="1527.5" y="1904" width="102.5" height="30" as="geometry" />
        </mxCell>
        <mxCell id="lvPgslv1diBqqbOyzU0L-108" value="" style="ellipse;whiteSpace=wrap;html=1;strokeColor=#BAC8D3;fontColor=#182E3E;fillColor=#B1DDF0;labelBackgroundColor=none;" parent="1" vertex="1">
          <mxGeometry x="1659" y="1894" width="134" height="52" as="geometry" />
        </mxCell>
        <mxCell id="lvPgslv1diBqqbOyzU0L-109" value="Complaint by (data prod. Login)" style="text;html=1;strokeColor=none;fillColor=none;align=center;verticalAlign=middle;whiteSpace=wrap;rounded=0;fontColor=#182E3E;labelBackgroundColor=none;" parent="1" vertex="1">
          <mxGeometry x="1676.5" y="1904" width="102.5" height="30" as="geometry" />
        </mxCell>
        <mxCell id="lvPgslv1diBqqbOyzU0L-110" value="" style="ellipse;whiteSpace=wrap;html=1;strokeColor=#BAC8D3;fontColor=#182E3E;fillColor=#B1DDF0;labelBackgroundColor=none;" parent="1" vertex="1">
          <mxGeometry x="1385" y="1892" width="100" height="50" as="geometry" />
        </mxCell>
        <mxCell id="lvPgslv1diBqqbOyzU0L-111" value="Sent to email (by data prod.)" style="text;html=1;strokeColor=none;fillColor=none;align=center;verticalAlign=middle;whiteSpace=wrap;rounded=0;fontColor=#182E3E;labelBackgroundColor=none;" parent="1" vertex="1">
          <mxGeometry x="1402.5" y="1902" width="65" height="30" as="geometry" />
        </mxCell>
        <mxCell id="lvPgslv1diBqqbOyzU0L-113" value="" style="ellipse;whiteSpace=wrap;html=1;strokeColor=#BAC8D3;fontColor=#182E3E;fillColor=#B1DDF0;labelBackgroundColor=none;" parent="1" vertex="1">
          <mxGeometry x="2085.5" y="1820.5" width="100" height="50" as="geometry" />
        </mxCell>
        <mxCell id="lvPgslv1diBqqbOyzU0L-114" value="Positions Data" style="text;html=1;strokeColor=none;fillColor=none;align=center;verticalAlign=middle;whiteSpace=wrap;rounded=0;fontColor=#182E3E;labelBackgroundColor=none;" parent="1" vertex="1">
          <mxGeometry x="2103" y="1830.5" width="65" height="30" as="geometry" />
        </mxCell>
        <mxCell id="lvPgslv1diBqqbOyzU0L-115" value="" style="strokeWidth=2;html=1;shape=mxgraph.flowchart.decision;whiteSpace=wrap;strokeColor=#BAC8D3;fontColor=#182E3E;fillColor=#B1DDF0;labelBackgroundColor=none;" parent="1" vertex="1">
          <mxGeometry x="2650.5" y="1387" width="150" height="55" as="geometry" />
        </mxCell>
        <mxCell id="lvPgslv1diBqqbOyzU0L-116" value="" style="strokeWidth=2;html=1;shape=mxgraph.flowchart.decision;whiteSpace=wrap;strokeColor=#BAC8D3;fontColor=#182E3E;fillColor=#B1DDF0;labelBackgroundColor=none;" parent="1" vertex="1">
          <mxGeometry x="2665.5" y="1389.5" width="120" height="50" as="geometry" />
        </mxCell>
        <mxCell id="lvPgslv1diBqqbOyzU0L-117" value="Include" style="text;html=1;strokeColor=none;fillColor=none;align=center;verticalAlign=middle;whiteSpace=wrap;rounded=0;fontColor=#182E3E;labelBackgroundColor=none;" parent="1" vertex="1">
          <mxGeometry x="2680.5" y="1397" width="90" height="35" as="geometry" />
        </mxCell>
        <mxCell id="lvPgslv1diBqqbOyzU0L-118" value="" style="rounded=0;whiteSpace=wrap;html=1;strokeColor=#BAC8D3;fontColor=#182E3E;fillColor=#B1DDF0;labelBackgroundColor=none;" parent="1" vertex="1">
          <mxGeometry x="2650.5" y="1515" width="150" height="80" as="geometry" />
        </mxCell>
        <mxCell id="lvPgslv1diBqqbOyzU0L-119" value="" style="rounded=0;whiteSpace=wrap;html=1;strokeColor=#BAC8D3;fontColor=#182E3E;fillColor=#B1DDF0;labelBackgroundColor=none;" parent="1" vertex="1">
          <mxGeometry x="2660.5" y="1525" width="130" height="60" as="geometry" />
        </mxCell>
        <mxCell id="lvPgslv1diBqqbOyzU0L-120" value="Positions Data Table" style="text;html=1;strokeColor=none;fillColor=none;align=center;verticalAlign=middle;whiteSpace=wrap;rounded=0;fontColor=#182E3E;labelBackgroundColor=none;" parent="1" vertex="1">
          <mxGeometry x="2680.5" y="1537.5" width="90" height="35" as="geometry" />
        </mxCell>
        <mxCell id="lvPgslv1diBqqbOyzU0L-121" value="" style="endArrow=none;html=1;rounded=0;strokeColor=#EEEEEE;fontColor=#FFFFFF;entryX=0.5;entryY=1;entryDx=0;entryDy=0;entryPerimeter=0;exitX=0.5;exitY=0;exitDx=0;exitDy=0;" parent="1" source="lvPgslv1diBqqbOyzU0L-118" target="lvPgslv1diBqqbOyzU0L-115" edge="1">
          <mxGeometry width="50" height="50" relative="1" as="geometry">
            <mxPoint x="2552.5" y="1518.5" as="sourcePoint" />
            <mxPoint x="2602.5" y="1468.5" as="targetPoint" />
          </mxGeometry>
        </mxCell>
        <mxCell id="lvPgslv1diBqqbOyzU0L-122" value="" style="ellipse;whiteSpace=wrap;html=1;strokeColor=#BAC8D3;fontColor=#182E3E;fillColor=#B1DDF0;labelBackgroundColor=none;" parent="1" vertex="1">
          <mxGeometry x="2612.5" y="1663.5" width="100" height="50" as="geometry" />
        </mxCell>
        <mxCell id="lvPgslv1diBqqbOyzU0L-123" value="Name" style="text;html=1;strokeColor=none;fillColor=none;align=center;verticalAlign=middle;whiteSpace=wrap;rounded=0;fontColor=#182E3E;labelBackgroundColor=none;" parent="1" vertex="1">
          <mxGeometry x="2630" y="1673.5" width="65" height="30" as="geometry" />
        </mxCell>
        <mxCell id="lvPgslv1diBqqbOyzU0L-124" value="" style="ellipse;whiteSpace=wrap;html=1;strokeColor=#BAC8D3;fontColor=#182E3E;fillColor=#B1DDF0;labelBackgroundColor=none;" parent="1" vertex="1">
          <mxGeometry x="2738.5" y="1666.5" width="100" height="50" as="geometry" />
        </mxCell>
        <mxCell id="lvPgslv1diBqqbOyzU0L-125" value="Attributes" style="text;html=1;strokeColor=none;fillColor=none;align=center;verticalAlign=middle;whiteSpace=wrap;rounded=0;fontColor=#182E3E;labelBackgroundColor=none;" parent="1" vertex="1">
          <mxGeometry x="2756" y="1676.5" width="65" height="30" as="geometry" />
        </mxCell>
        <mxCell id="lvPgslv1diBqqbOyzU0L-126" value="" style="ellipse;whiteSpace=wrap;html=1;strokeColor=#BAC8D3;fontColor=#182E3E;fillColor=#B1DDF0;labelBackgroundColor=none;" parent="1" vertex="1">
          <mxGeometry x="2675.5" y="1762" width="100" height="50" as="geometry" />
        </mxCell>
        <mxCell id="lvPgslv1diBqqbOyzU0L-127" value="Min Limit" style="text;html=1;strokeColor=none;fillColor=none;align=center;verticalAlign=middle;whiteSpace=wrap;rounded=0;fontColor=#182E3E;labelBackgroundColor=none;" parent="1" vertex="1">
          <mxGeometry x="2693" y="1772" width="65" height="30" as="geometry" />
        </mxCell>
        <mxCell id="lvPgslv1diBqqbOyzU0L-128" value="" style="ellipse;whiteSpace=wrap;html=1;strokeColor=#BAC8D3;fontColor=#182E3E;fillColor=#B1DDF0;labelBackgroundColor=none;" parent="1" vertex="1">
          <mxGeometry x="2800" y="1762" width="100" height="50" as="geometry" />
        </mxCell>
        <mxCell id="lvPgslv1diBqqbOyzU0L-129" value="Max Limit" style="text;html=1;strokeColor=none;fillColor=none;align=center;verticalAlign=middle;whiteSpace=wrap;rounded=0;fontColor=#182E3E;labelBackgroundColor=none;" parent="1" vertex="1">
          <mxGeometry x="2817.5" y="1772" width="65" height="30" as="geometry" />
        </mxCell>
        <mxCell id="lvPgslv1diBqqbOyzU0L-130" value="" style="ellipse;whiteSpace=wrap;html=1;strokeColor=#BAC8D3;fontColor=#182E3E;fillColor=#B1DDF0;labelBackgroundColor=none;" parent="1" vertex="1">
          <mxGeometry x="2545.5" y="1757" width="100" height="50" as="geometry" />
        </mxCell>
        <mxCell id="lvPgslv1diBqqbOyzU0L-131" value="Unique" style="text;html=1;strokeColor=none;fillColor=none;align=center;verticalAlign=middle;whiteSpace=wrap;rounded=0;fontColor=#182E3E;labelBackgroundColor=none;" parent="1" vertex="1">
          <mxGeometry x="2563" y="1767" width="65" height="30" as="geometry" />
        </mxCell>
        <mxCell id="lvPgslv1diBqqbOyzU0L-132" value="" style="strokeWidth=2;html=1;shape=mxgraph.flowchart.decision;whiteSpace=wrap;strokeColor=#BAC8D3;fontColor=#182E3E;fillColor=#B1DDF0;labelBackgroundColor=none;" parent="1" vertex="1">
          <mxGeometry x="3045" y="1387" width="150" height="55" as="geometry" />
        </mxCell>
        <mxCell id="lvPgslv1diBqqbOyzU0L-133" value="" style="strokeWidth=2;html=1;shape=mxgraph.flowchart.decision;whiteSpace=wrap;strokeColor=#BAC8D3;fontColor=#182E3E;fillColor=#B1DDF0;labelBackgroundColor=none;" parent="1" vertex="1">
          <mxGeometry x="3060" y="1389.5" width="120" height="50" as="geometry" />
        </mxCell>
        <mxCell id="lvPgslv1diBqqbOyzU0L-134" value="Include" style="text;html=1;strokeColor=none;fillColor=none;align=center;verticalAlign=middle;whiteSpace=wrap;rounded=0;fontColor=#182E3E;labelBackgroundColor=none;" parent="1" vertex="1">
          <mxGeometry x="3075" y="1397" width="90" height="35" as="geometry" />
        </mxCell>
        <mxCell id="lvPgslv1diBqqbOyzU0L-138" value="" style="endArrow=none;html=1;rounded=0;strokeColor=#EEEEEE;fontColor=#FFFFFF;entryX=0.5;entryY=1;entryDx=0;entryDy=0;entryPerimeter=0;exitX=0.5;exitY=0;exitDx=0;exitDy=0;" parent="1" source="lvPgslv1diBqqbOyzU0L-139" target="lvPgslv1diBqqbOyzU0L-132" edge="1">
          <mxGeometry width="50" height="50" relative="1" as="geometry">
            <mxPoint x="3120" y="1515" as="sourcePoint" />
            <mxPoint x="2997" y="1468.5" as="targetPoint" />
          </mxGeometry>
        </mxCell>
        <mxCell id="lvPgslv1diBqqbOyzU0L-139" value="" style="rounded=0;whiteSpace=wrap;html=1;strokeColor=#BAC8D3;fontColor=#182E3E;fillColor=#B1DDF0;labelBackgroundColor=none;" parent="1" vertex="1">
          <mxGeometry x="3045" y="1514" width="150" height="80" as="geometry" />
        </mxCell>
        <mxCell id="lvPgslv1diBqqbOyzU0L-140" value="" style="rounded=0;whiteSpace=wrap;html=1;strokeColor=#BAC8D3;fontColor=#182E3E;fillColor=#B1DDF0;labelBackgroundColor=none;" parent="1" vertex="1">
          <mxGeometry x="3055" y="1524" width="130" height="60" as="geometry" />
        </mxCell>
        <mxCell id="lvPgslv1diBqqbOyzU0L-141" value="Position Attributes Tables" style="text;html=1;strokeColor=none;fillColor=none;align=center;verticalAlign=middle;whiteSpace=wrap;rounded=0;fontColor=#182E3E;labelBackgroundColor=none;" parent="1" vertex="1">
          <mxGeometry x="3075" y="1536.5" width="90" height="35" as="geometry" />
        </mxCell>
        <mxCell id="lvPgslv1diBqqbOyzU0L-142" value="" style="ellipse;whiteSpace=wrap;html=1;strokeColor=#BAC8D3;fontColor=#182E3E;fillColor=#B1DDF0;labelBackgroundColor=none;" parent="1" vertex="1">
          <mxGeometry x="3008.5" y="1670" width="100" height="50" as="geometry" />
        </mxCell>
        <mxCell id="lvPgslv1diBqqbOyzU0L-143" value="Name" style="text;html=1;strokeColor=none;fillColor=none;align=center;verticalAlign=middle;whiteSpace=wrap;rounded=0;fontColor=#182E3E;labelBackgroundColor=none;" parent="1" vertex="1">
          <mxGeometry x="3028.5" y="1680" width="60" height="30" as="geometry" />
        </mxCell>
        <mxCell id="lvPgslv1diBqqbOyzU0L-144" value="" style="endArrow=none;html=1;rounded=0;strokeColor=#EEEEEE;entryX=0.5;entryY=1;entryDx=0;entryDy=0;exitX=0.5;exitY=0;exitDx=0;exitDy=0;labelBackgroundColor=none;fontColor=default;" parent="1" source="lvPgslv1diBqqbOyzU0L-142" target="lvPgslv1diBqqbOyzU0L-139" edge="1">
          <mxGeometry width="50" height="50" relative="1" as="geometry">
            <mxPoint x="3058" y="1851.5" as="sourcePoint" />
            <mxPoint x="3108" y="1801.5" as="targetPoint" />
            <Array as="points">
              <mxPoint x="3059" y="1630" />
              <mxPoint x="3120" y="1630" />
            </Array>
          </mxGeometry>
        </mxCell>
        <mxCell id="lvPgslv1diBqqbOyzU0L-146" value="" style="ellipse;whiteSpace=wrap;html=1;strokeColor=#BAC8D3;fontColor=#182E3E;fillColor=#B1DDF0;labelBackgroundColor=none;" parent="1" vertex="1">
          <mxGeometry x="3131.5" y="1670" width="100" height="50" as="geometry" />
        </mxCell>
        <mxCell id="lvPgslv1diBqqbOyzU0L-147" value="Value" style="text;html=1;strokeColor=none;fillColor=none;align=center;verticalAlign=middle;whiteSpace=wrap;rounded=0;fontColor=#182E3E;labelBackgroundColor=none;" parent="1" vertex="1">
          <mxGeometry x="3149" y="1680" width="65" height="30" as="geometry" />
        </mxCell>
        <mxCell id="lvPgslv1diBqqbOyzU0L-148" value="" style="endArrow=none;html=1;rounded=0;strokeColor=#EEEEEE;fontColor=#FFFFFF;exitX=0.5;exitY=0;exitDx=0;exitDy=0;entryX=0.5;entryY=1;entryDx=0;entryDy=0;" parent="1" source="lvPgslv1diBqqbOyzU0L-146" target="lvPgslv1diBqqbOyzU0L-139" edge="1">
          <mxGeometry width="50" height="50" relative="1" as="geometry">
            <mxPoint x="3125" y="1810" as="sourcePoint" />
            <mxPoint x="3125" y="1600" as="targetPoint" />
            <Array as="points">
              <mxPoint x="3182" y="1630" />
              <mxPoint x="3120" y="1630" />
            </Array>
          </mxGeometry>
        </mxCell>
        <mxCell id="lvPgslv1diBqqbOyzU0L-149" value="" style="ellipse;whiteSpace=wrap;html=1;strokeColor=#BAC8D3;fontColor=#182E3E;fillColor=#B1DDF0;labelBackgroundColor=none;" parent="1" vertex="1">
          <mxGeometry x="2613" y="1842" width="100" height="50" as="geometry" />
        </mxCell>
        <mxCell id="lvPgslv1diBqqbOyzU0L-150" value="Start Date" style="text;html=1;strokeColor=none;fillColor=none;align=center;verticalAlign=middle;whiteSpace=wrap;rounded=0;fontColor=#182E3E;labelBackgroundColor=none;" parent="1" vertex="1">
          <mxGeometry x="2630.5" y="1852" width="65" height="30" as="geometry" />
        </mxCell>
        <mxCell id="lvPgslv1diBqqbOyzU0L-151" value="" style="ellipse;whiteSpace=wrap;html=1;strokeColor=#BAC8D3;fontColor=#182E3E;fillColor=#B1DDF0;labelBackgroundColor=none;" parent="1" vertex="1">
          <mxGeometry x="2744" y="1842" width="100" height="50" as="geometry" />
        </mxCell>
        <mxCell id="lvPgslv1diBqqbOyzU0L-152" value="End Date" style="text;html=1;strokeColor=none;fillColor=none;align=center;verticalAlign=middle;whiteSpace=wrap;rounded=0;fontColor=#182E3E;labelBackgroundColor=none;" parent="1" vertex="1">
          <mxGeometry x="2761.5" y="1852" width="65" height="30" as="geometry" />
        </mxCell>
        <mxCell id="lvPgslv1diBqqbOyzU0L-153" value="" style="ellipse;whiteSpace=wrap;html=1;strokeColor=#BAC8D3;fontColor=#182E3E;fillColor=#B1DDF0;labelBackgroundColor=none;" parent="1" vertex="1">
          <mxGeometry x="2233" y="1820.5" width="100" height="50" as="geometry" />
        </mxCell>
        <mxCell id="lvPgslv1diBqqbOyzU0L-154" value="Edited Marker" style="text;html=1;strokeColor=none;fillColor=none;align=center;verticalAlign=middle;whiteSpace=wrap;rounded=0;fontColor=#182E3E;labelBackgroundColor=none;" parent="1" vertex="1">
          <mxGeometry x="2250.5" y="1830.5" width="65" height="30" as="geometry" />
        </mxCell>
        <mxCell id="lvPgslv1diBqqbOyzU0L-155" value="" style="ellipse;whiteSpace=wrap;html=1;strokeColor=#BAC8D3;fontColor=#182E3E;fillColor=#B1DDF0;labelBackgroundColor=none;" parent="1" vertex="1">
          <mxGeometry x="2398" y="1819" width="100" height="50" as="geometry" />
        </mxCell>
        <mxCell id="lvPgslv1diBqqbOyzU0L-156" value="Edited by (Login)" style="text;html=1;strokeColor=none;fillColor=none;align=center;verticalAlign=middle;whiteSpace=wrap;rounded=0;fontColor=#182E3E;labelBackgroundColor=none;" parent="1" vertex="1">
          <mxGeometry x="2415.5" y="1829" width="65" height="30" as="geometry" />
        </mxCell>
        <mxCell id="lvPgslv1diBqqbOyzU0L-157" value="" style="rounded=0;whiteSpace=wrap;html=1;strokeColor=#BAC8D3;fontColor=#182E3E;fillColor=#B1DDF0;labelBackgroundColor=none;" parent="1" vertex="1">
          <mxGeometry x="803" y="2291" width="150" height="80" as="geometry" />
        </mxCell>
        <mxCell id="lvPgslv1diBqqbOyzU0L-158" value="" style="rounded=0;whiteSpace=wrap;html=1;strokeColor=#BAC8D3;fontColor=#182E3E;fillColor=#B1DDF0;labelBackgroundColor=none;" parent="1" vertex="1">
          <mxGeometry x="813" y="2301" width="130" height="60" as="geometry" />
        </mxCell>
        <mxCell id="lvPgslv1diBqqbOyzU0L-159" value="Roles" style="text;html=1;strokeColor=none;fillColor=none;align=center;verticalAlign=middle;whiteSpace=wrap;rounded=0;fontColor=#182E3E;labelBackgroundColor=none;" parent="1" vertex="1">
          <mxGeometry x="833" y="2313.5" width="90" height="35" as="geometry" />
        </mxCell>
        <mxCell id="lvPgslv1diBqqbOyzU0L-160" value="" style="strokeWidth=2;html=1;shape=mxgraph.flowchart.decision;whiteSpace=wrap;strokeColor=#BAC8D3;fontColor=#182E3E;fillColor=#B1DDF0;labelBackgroundColor=none;" parent="1" vertex="1">
          <mxGeometry x="803" y="2163" width="150" height="55" as="geometry" />
        </mxCell>
        <mxCell id="lvPgslv1diBqqbOyzU0L-161" value="" style="strokeWidth=2;html=1;shape=mxgraph.flowchart.decision;whiteSpace=wrap;strokeColor=#BAC8D3;fontColor=#182E3E;fillColor=#B1DDF0;labelBackgroundColor=none;" parent="1" vertex="1">
          <mxGeometry x="818" y="2165.5" width="120" height="50" as="geometry" />
        </mxCell>
        <mxCell id="lvPgslv1diBqqbOyzU0L-162" value="" style="endArrow=none;html=1;rounded=0;strokeColor=#EEEEEE;entryX=0.5;entryY=1;entryDx=0;entryDy=0;entryPerimeter=0;exitX=0.5;exitY=0;exitDx=0;exitDy=0;labelBackgroundColor=none;fontColor=default;" parent="1" source="lvPgslv1diBqqbOyzU0L-157" target="lvPgslv1diBqqbOyzU0L-160" edge="1">
          <mxGeometry width="50" height="50" relative="1" as="geometry">
            <mxPoint x="713" y="2370.5" as="sourcePoint" />
            <mxPoint x="763" y="2320.5" as="targetPoint" />
          </mxGeometry>
        </mxCell>
        <mxCell id="lvPgslv1diBqqbOyzU0L-163" value="1" style="text;html=1;strokeColor=none;fillColor=none;align=center;verticalAlign=middle;whiteSpace=wrap;rounded=0;fontColor=#182E3E;labelBackgroundColor=none;" parent="1" vertex="1">
          <mxGeometry x="818" y="2252" width="90" height="35" as="geometry" />
        </mxCell>
        <mxCell id="lvPgslv1diBqqbOyzU0L-164" value="Include" style="text;html=1;strokeColor=none;fillColor=none;align=center;verticalAlign=middle;whiteSpace=wrap;rounded=0;fontColor=#182E3E;labelBackgroundColor=none;" parent="1" vertex="1">
          <mxGeometry x="833" y="2173" width="90" height="35" as="geometry" />
        </mxCell>
        <mxCell id="lvPgslv1diBqqbOyzU0L-165" value="" style="ellipse;whiteSpace=wrap;html=1;strokeColor=#BAC8D3;fontColor=#182E3E;fillColor=#B1DDF0;labelBackgroundColor=none;" parent="1" vertex="1">
          <mxGeometry x="828" y="2431" width="100" height="50" as="geometry" />
        </mxCell>
        <mxCell id="lvPgslv1diBqqbOyzU0L-166" value="Name" style="text;html=1;strokeColor=none;fillColor=none;align=center;verticalAlign=middle;whiteSpace=wrap;rounded=0;fontColor=#182E3E;labelBackgroundColor=none;" parent="1" vertex="1">
          <mxGeometry x="848" y="2441" width="60" height="30" as="geometry" />
        </mxCell>
        <mxCell id="lvPgslv1diBqqbOyzU0L-167" value="" style="endArrow=none;html=1;rounded=0;strokeColor=#EEEEEE;entryX=0.5;entryY=1;entryDx=0;entryDy=0;exitX=0.5;exitY=0;exitDx=0;exitDy=0;labelBackgroundColor=none;fontColor=default;" parent="1" source="lvPgslv1diBqqbOyzU0L-165" target="lvPgslv1diBqqbOyzU0L-157" edge="1">
          <mxGeometry width="50" height="50" relative="1" as="geometry">
            <mxPoint x="698" y="2579" as="sourcePoint" />
            <mxPoint x="748" y="2529" as="targetPoint" />
          </mxGeometry>
        </mxCell>
        <mxCell id="lvPgslv1diBqqbOyzU0L-168" value="" style="endArrow=none;html=1;rounded=0;strokeColor=#EEEEEE;fontColor=#FFFFFF;entryX=0.75;entryY=1;entryDx=0;entryDy=0;exitX=0.5;exitY=0;exitDx=0;exitDy=0;exitPerimeter=0;" parent="1" source="lvPgslv1diBqqbOyzU0L-160" target="j-sWp2HfxqR8ignj8HMA-133" edge="1">
          <mxGeometry width="50" height="50" relative="1" as="geometry">
            <mxPoint x="700" y="2120" as="sourcePoint" />
            <mxPoint x="750" y="2070" as="targetPoint" />
            <Array as="points">
              <mxPoint x="880" y="2140" />
              <mxPoint x="547" y="2146" />
            </Array>
          </mxGeometry>
        </mxCell>
        <mxCell id="lvPgslv1diBqqbOyzU0L-169" value="" style="rounded=0;whiteSpace=wrap;html=1;strokeColor=#BAC8D3;fontColor=#182E3E;fillColor=#B1DDF0;labelBackgroundColor=none;" parent="1" vertex="1">
          <mxGeometry x="1002" y="2291" width="150" height="80" as="geometry" />
        </mxCell>
        <mxCell id="lvPgslv1diBqqbOyzU0L-170" value="" style="rounded=0;whiteSpace=wrap;html=1;strokeColor=#BAC8D3;fontColor=#182E3E;fillColor=#B1DDF0;labelBackgroundColor=none;" parent="1" vertex="1">
          <mxGeometry x="1012" y="2301" width="130" height="60" as="geometry" />
        </mxCell>
        <mxCell id="lvPgslv1diBqqbOyzU0L-171" value="Department Names" style="text;html=1;strokeColor=none;fillColor=none;align=center;verticalAlign=middle;whiteSpace=wrap;rounded=0;fontColor=#182E3E;labelBackgroundColor=none;" parent="1" vertex="1">
          <mxGeometry x="1032" y="2313.5" width="90" height="35" as="geometry" />
        </mxCell>
        <mxCell id="lvPgslv1diBqqbOyzU0L-172" value="" style="strokeWidth=2;html=1;shape=mxgraph.flowchart.decision;whiteSpace=wrap;strokeColor=#BAC8D3;fontColor=#182E3E;fillColor=#B1DDF0;labelBackgroundColor=none;" parent="1" vertex="1">
          <mxGeometry x="1002" y="2163" width="150" height="55" as="geometry" />
        </mxCell>
        <mxCell id="lvPgslv1diBqqbOyzU0L-173" value="" style="strokeWidth=2;html=1;shape=mxgraph.flowchart.decision;whiteSpace=wrap;strokeColor=#BAC8D3;fontColor=#182E3E;fillColor=#B1DDF0;labelBackgroundColor=none;" parent="1" vertex="1">
          <mxGeometry x="1017" y="2165.5" width="120" height="50" as="geometry" />
        </mxCell>
        <mxCell id="lvPgslv1diBqqbOyzU0L-174" value="" style="endArrow=none;html=1;rounded=0;strokeColor=#EEEEEE;entryX=0.5;entryY=1;entryDx=0;entryDy=0;entryPerimeter=0;exitX=0.5;exitY=0;exitDx=0;exitDy=0;labelBackgroundColor=none;fontColor=default;" parent="1" source="lvPgslv1diBqqbOyzU0L-169" target="lvPgslv1diBqqbOyzU0L-172" edge="1">
          <mxGeometry width="50" height="50" relative="1" as="geometry">
            <mxPoint x="912" y="2370.5" as="sourcePoint" />
            <mxPoint x="962" y="2320.5" as="targetPoint" />
          </mxGeometry>
        </mxCell>
        <mxCell id="lvPgslv1diBqqbOyzU0L-175" value="1" style="text;html=1;strokeColor=none;fillColor=none;align=center;verticalAlign=middle;whiteSpace=wrap;rounded=0;fontColor=#182E3E;labelBackgroundColor=none;" parent="1" vertex="1">
          <mxGeometry x="1017" y="2252" width="90" height="35" as="geometry" />
        </mxCell>
        <mxCell id="lvPgslv1diBqqbOyzU0L-176" value="Include" style="text;html=1;strokeColor=none;fillColor=none;align=center;verticalAlign=middle;whiteSpace=wrap;rounded=0;fontColor=#182E3E;labelBackgroundColor=none;" parent="1" vertex="1">
          <mxGeometry x="1032" y="2173" width="90" height="35" as="geometry" />
        </mxCell>
        <mxCell id="lvPgslv1diBqqbOyzU0L-177" value="" style="ellipse;whiteSpace=wrap;html=1;strokeColor=#BAC8D3;fontColor=#182E3E;fillColor=#B1DDF0;labelBackgroundColor=none;" parent="1" vertex="1">
          <mxGeometry x="968" y="2431" width="100" height="50" as="geometry" />
        </mxCell>
        <mxCell id="lvPgslv1diBqqbOyzU0L-178" value="Name" style="text;html=1;strokeColor=none;fillColor=none;align=center;verticalAlign=middle;whiteSpace=wrap;rounded=0;fontColor=#182E3E;labelBackgroundColor=none;" parent="1" vertex="1">
          <mxGeometry x="988" y="2441" width="60" height="30" as="geometry" />
        </mxCell>
        <mxCell id="lvPgslv1diBqqbOyzU0L-179" value="" style="endArrow=none;html=1;rounded=0;strokeColor=#EEEEEE;entryX=0.5;entryY=1;entryDx=0;entryDy=0;exitX=0.5;exitY=0;exitDx=0;exitDy=0;labelBackgroundColor=none;fontColor=default;" parent="1" source="lvPgslv1diBqqbOyzU0L-177" target="lvPgslv1diBqqbOyzU0L-169" edge="1">
          <mxGeometry width="50" height="50" relative="1" as="geometry">
            <mxPoint x="897" y="2579" as="sourcePoint" />
            <mxPoint x="947" y="2529" as="targetPoint" />
            <Array as="points">
              <mxPoint x="1018" y="2400" />
              <mxPoint x="1077" y="2400" />
            </Array>
          </mxGeometry>
        </mxCell>
        <mxCell id="lvPgslv1diBqqbOyzU0L-180" value="" style="endArrow=none;html=1;rounded=0;strokeColor=#EEEEEE;fontColor=#FFFFFF;entryX=0.5;entryY=1;entryDx=0;entryDy=0;exitX=0.5;exitY=0;exitDx=0;exitDy=0;exitPerimeter=0;" parent="1" source="lvPgslv1diBqqbOyzU0L-172" target="j-sWp2HfxqR8ignj8HMA-133" edge="1">
          <mxGeometry width="50" height="50" relative="1" as="geometry">
            <mxPoint x="753" y="2118" as="sourcePoint" />
            <mxPoint x="803" y="2068" as="targetPoint" />
            <Array as="points">
              <mxPoint x="1077" y="2138" />
              <mxPoint x="513" y="2146" />
            </Array>
          </mxGeometry>
        </mxCell>
        <mxCell id="lvPgslv1diBqqbOyzU0L-181" value="" style="ellipse;whiteSpace=wrap;html=1;strokeColor=#BAC8D3;fontColor=#182E3E;fillColor=#B1DDF0;labelBackgroundColor=none;" parent="1" vertex="1">
          <mxGeometry x="1093" y="2431" width="100" height="50" as="geometry" />
        </mxCell>
        <mxCell id="lvPgslv1diBqqbOyzU0L-182" value="Working Marker" style="text;html=1;strokeColor=none;fillColor=none;align=center;verticalAlign=middle;whiteSpace=wrap;rounded=0;fontColor=#182E3E;labelBackgroundColor=none;" parent="1" vertex="1">
          <mxGeometry x="1113" y="2441" width="60" height="30" as="geometry" />
        </mxCell>
        <mxCell id="lvPgslv1diBqqbOyzU0L-183" value="" style="endArrow=none;html=1;rounded=0;strokeColor=#EEEEEE;fontColor=#FFFFFF;entryX=0.5;entryY=1;entryDx=0;entryDy=0;exitX=0.5;exitY=0;exitDx=0;exitDy=0;" parent="1" source="lvPgslv1diBqqbOyzU0L-181" target="lvPgslv1diBqqbOyzU0L-169" edge="1">
          <mxGeometry width="50" height="50" relative="1" as="geometry">
            <mxPoint x="980" y="2600" as="sourcePoint" />
            <mxPoint x="1030" y="2550" as="targetPoint" />
            <Array as="points">
              <mxPoint x="1143" y="2400" />
              <mxPoint x="1077" y="2400" />
            </Array>
          </mxGeometry>
        </mxCell>
        <mxCell id="lvPgslv1diBqqbOyzU0L-184" value="" style="ellipse;whiteSpace=wrap;html=1;strokeColor=#BAC8D3;fontColor=#182E3E;fillColor=#B1DDF0;labelBackgroundColor=none;" parent="1" vertex="1">
          <mxGeometry x="1070" y="1812" width="100" height="50" as="geometry" />
        </mxCell>
        <mxCell id="lvPgslv1diBqqbOyzU0L-185" value="Read (Recipient) Marker" style="text;html=1;strokeColor=none;fillColor=none;align=center;verticalAlign=middle;whiteSpace=wrap;rounded=0;fontColor=#182E3E;labelBackgroundColor=none;" parent="1" vertex="1">
          <mxGeometry x="1087.5" y="1822" width="65" height="30" as="geometry" />
        </mxCell>
        <mxCell id="lvPgslv1diBqqbOyzU0L-186" value="" style="ellipse;whiteSpace=wrap;html=1;strokeColor=#BAC8D3;fontColor=#182E3E;fillColor=#B1DDF0;labelBackgroundColor=none;" parent="1" vertex="1">
          <mxGeometry x="919.5" y="1816" width="100" height="50" as="geometry" />
        </mxCell>
        <mxCell id="lvPgslv1diBqqbOyzU0L-187" value="Closed Marker" style="text;html=1;strokeColor=none;fillColor=none;align=center;verticalAlign=middle;whiteSpace=wrap;rounded=0;fontColor=#182E3E;labelBackgroundColor=none;" parent="1" vertex="1">
          <mxGeometry x="937" y="1826" width="65" height="30" as="geometry" />
        </mxCell>
        <mxCell id="lvPgslv1diBqqbOyzU0L-188" value="" style="ellipse;whiteSpace=wrap;html=1;strokeColor=#BAC8D3;fontColor=#182E3E;fillColor=#B1DDF0;labelBackgroundColor=none;" parent="1" vertex="1">
          <mxGeometry x="754.5" y="1816" width="100" height="50" as="geometry" />
        </mxCell>
        <mxCell id="lvPgslv1diBqqbOyzU0L-189" value="Recipient Login" style="text;html=1;strokeColor=none;fillColor=none;align=center;verticalAlign=middle;whiteSpace=wrap;rounded=0;fontColor=#182E3E;labelBackgroundColor=none;" parent="1" vertex="1">
          <mxGeometry x="772" y="1826" width="65" height="30" as="geometry" />
        </mxCell>
        <mxCell id="lvPgslv1diBqqbOyzU0L-190" value="" style="ellipse;whiteSpace=wrap;html=1;strokeColor=#BAC8D3;fontColor=#182E3E;fillColor=#B1DDF0;labelBackgroundColor=none;" parent="1" vertex="1">
          <mxGeometry x="752" y="1653.5" width="100" height="50" as="geometry" />
        </mxCell>
        <mxCell id="lvPgslv1diBqqbOyzU0L-191" value="Reply" style="text;html=1;strokeColor=none;fillColor=none;align=center;verticalAlign=middle;whiteSpace=wrap;rounded=0;fontColor=#182E3E;labelBackgroundColor=none;" parent="1" vertex="1">
          <mxGeometry x="769.5" y="1663.5" width="65" height="30" as="geometry" />
        </mxCell>
        <mxCell id="lvPgslv1diBqqbOyzU0L-192" value="" style="ellipse;whiteSpace=wrap;html=1;strokeColor=#BAC8D3;fontColor=#182E3E;fillColor=#B1DDF0;labelBackgroundColor=none;" parent="1" vertex="1">
          <mxGeometry x="688" y="1730" width="100" height="50" as="geometry" />
        </mxCell>
        <mxCell id="lvPgslv1diBqqbOyzU0L-193" value="Reply Read (Sender) Marker" style="text;html=1;strokeColor=none;fillColor=none;align=center;verticalAlign=middle;whiteSpace=wrap;rounded=0;fontColor=#182E3E;labelBackgroundColor=none;" parent="1" vertex="1">
          <mxGeometry x="705.5" y="1740" width="65" height="30" as="geometry" />
        </mxCell>
        <mxCell id="lvPgslv1diBqqbOyzU0L-194" value="" style="endArrow=none;html=1;rounded=0;strokeColor=#EEEEEE;fontColor=#FFFFFF;entryX=0.5;entryY=0;entryDx=0;entryDy=0;exitX=0.5;exitY=1;exitDx=0;exitDy=0;" parent="1" source="lvPgslv1diBqqbOyzU0L-6" target="lvPgslv1diBqqbOyzU0L-188" edge="1">
          <mxGeometry width="50" height="50" relative="1" as="geometry">
            <mxPoint x="717" y="1952" as="sourcePoint" />
            <mxPoint x="767" y="1902" as="targetPoint" />
            <Array as="points">
              <mxPoint x="976" y="1627" />
              <mxPoint x="888" y="1630" />
              <mxPoint x="888" y="1720" />
              <mxPoint x="805" y="1720" />
            </Array>
          </mxGeometry>
        </mxCell>
        <mxCell id="lvPgslv1diBqqbOyzU0L-195" value="" style="endArrow=none;html=1;rounded=0;strokeColor=#EEEEEE;fontColor=#FFFFFF;entryX=0.5;entryY=0;entryDx=0;entryDy=0;exitX=0.5;exitY=1;exitDx=0;exitDy=0;" parent="1" source="lvPgslv1diBqqbOyzU0L-6" target="lvPgslv1diBqqbOyzU0L-186" edge="1">
          <mxGeometry width="50" height="50" relative="1" as="geometry">
            <mxPoint x="990" y="1960" as="sourcePoint" />
            <mxPoint x="1040" y="1910" as="targetPoint" />
            <Array as="points">
              <mxPoint x="976" y="1632" />
              <mxPoint x="1043" y="1632" />
              <mxPoint x="1043" y="1720" />
              <mxPoint x="970" y="1720" />
            </Array>
          </mxGeometry>
        </mxCell>
        <mxCell id="lvPgslv1diBqqbOyzU0L-196" value="" style="endArrow=none;html=1;rounded=0;strokeColor=#EEEEEE;fontColor=#FFFFFF;entryX=0.5;entryY=0;entryDx=0;entryDy=0;" parent="1" target="lvPgslv1diBqqbOyzU0L-184" edge="1">
          <mxGeometry width="50" height="50" relative="1" as="geometry">
            <mxPoint x="976" y="1593" as="sourcePoint" />
            <mxPoint x="1038" y="1970" as="targetPoint" />
            <Array as="points">
              <mxPoint x="976" y="1631" />
              <mxPoint x="1043" y="1631" />
              <mxPoint x="1043" y="1720" />
              <mxPoint x="1120" y="1720" />
            </Array>
          </mxGeometry>
        </mxCell>
        <mxCell id="lvPgslv1diBqqbOyzU0L-197" value="" style="endArrow=none;html=1;rounded=0;strokeColor=#EEEEEE;fontColor=#FFFFFF;entryX=0.5;entryY=0;entryDx=0;entryDy=0;exitX=0.5;exitY=1;exitDx=0;exitDy=0;" parent="1" source="lvPgslv1diBqqbOyzU0L-6" target="lvPgslv1diBqqbOyzU0L-192" edge="1">
          <mxGeometry width="50" height="50" relative="1" as="geometry">
            <mxPoint x="648" y="1860" as="sourcePoint" />
            <mxPoint x="698" y="1810" as="targetPoint" />
            <Array as="points">
              <mxPoint x="976" y="1630" />
              <mxPoint x="888" y="1630" />
              <mxPoint x="888" y="1710" />
              <mxPoint x="738" y="1710" />
            </Array>
          </mxGeometry>
        </mxCell>
        <mxCell id="lvPgslv1diBqqbOyzU0L-198" value="" style="endArrow=none;html=1;rounded=0;strokeColor=#EEEEEE;fontColor=#FFFFFF;entryX=0.5;entryY=0;entryDx=0;entryDy=0;exitX=0.5;exitY=1;exitDx=0;exitDy=0;" parent="1" source="lvPgslv1diBqqbOyzU0L-6" target="lvPgslv1diBqqbOyzU0L-190" edge="1">
          <mxGeometry width="50" height="50" relative="1" as="geometry">
            <mxPoint x="688" y="1640" as="sourcePoint" />
            <mxPoint x="738" y="1590" as="targetPoint" />
            <Array as="points">
              <mxPoint x="976" y="1630" />
              <mxPoint x="802" y="1630" />
            </Array>
          </mxGeometry>
        </mxCell>
        <mxCell id="lvPgslv1diBqqbOyzU0L-199" value="" style="endArrow=none;html=1;rounded=0;strokeColor=#EEEEEE;fontColor=#FFFFFF;entryX=0.5;entryY=0;entryDx=0;entryDy=0;exitX=0.5;exitY=1;exitDx=0;exitDy=0;" parent="1" source="lvPgslv1diBqqbOyzU0L-12" target="lvPgslv1diBqqbOyzU0L-110" edge="1">
          <mxGeometry width="50" height="50" relative="1" as="geometry">
            <mxPoint x="1260" y="1710" as="sourcePoint" />
            <mxPoint x="1310" y="1660" as="targetPoint" />
            <Array as="points">
              <mxPoint x="1578" y="1630" />
              <mxPoint x="1578" y="1730" />
              <mxPoint x="1509" y="1730" />
              <mxPoint x="1509" y="1810" />
              <mxPoint x="1435" y="1810" />
            </Array>
          </mxGeometry>
        </mxCell>
        <mxCell id="lvPgslv1diBqqbOyzU0L-200" value="" style="endArrow=none;html=1;rounded=0;strokeColor=#EEEEEE;fontColor=#FFFFFF;entryX=0.5;entryY=0;entryDx=0;entryDy=0;exitX=0.5;exitY=1;exitDx=0;exitDy=0;" parent="1" source="lvPgslv1diBqqbOyzU0L-12" target="lvPgslv1diBqqbOyzU0L-106" edge="1">
          <mxGeometry width="50" height="50" relative="1" as="geometry">
            <mxPoint x="1450" y="2080" as="sourcePoint" />
            <mxPoint x="1500" y="2030" as="targetPoint" />
            <Array as="points">
              <mxPoint x="1578" y="1630" />
              <mxPoint x="1581" y="1730" />
              <mxPoint x="1507" y="1730" />
              <mxPoint x="1507" y="1810" />
              <mxPoint x="1577" y="1810" />
            </Array>
          </mxGeometry>
        </mxCell>
        <mxCell id="lvPgslv1diBqqbOyzU0L-201" value="" style="endArrow=none;html=1;rounded=0;strokeColor=#EEEEEE;fontColor=#FFFFFF;entryX=0.5;entryY=0;entryDx=0;entryDy=0;exitX=0.5;exitY=1;exitDx=0;exitDy=0;" parent="1" source="lvPgslv1diBqqbOyzU0L-12" target="lvPgslv1diBqqbOyzU0L-100" edge="1">
          <mxGeometry width="50" height="50" relative="1" as="geometry">
            <mxPoint x="1243" y="1972" as="sourcePoint" />
            <mxPoint x="1293" y="1922" as="targetPoint" />
            <Array as="points">
              <mxPoint x="1578" y="1630" />
              <mxPoint x="1578" y="1728" />
              <mxPoint x="1507" y="1728" />
            </Array>
          </mxGeometry>
        </mxCell>
        <mxCell id="lvPgslv1diBqqbOyzU0L-202" value="" style="endArrow=none;html=1;rounded=0;strokeColor=#EEEEEE;fontColor=#FFFFFF;entryX=0.5;entryY=0;entryDx=0;entryDy=0;exitX=0.5;exitY=1;exitDx=0;exitDy=0;" parent="1" source="lvPgslv1diBqqbOyzU0L-12" target="lvPgslv1diBqqbOyzU0L-102" edge="1">
          <mxGeometry width="50" height="50" relative="1" as="geometry">
            <mxPoint x="1593" y="2078" as="sourcePoint" />
            <mxPoint x="1643" y="2028" as="targetPoint" />
            <Array as="points">
              <mxPoint x="1578" y="1631" />
              <mxPoint x="1578" y="1724" />
              <mxPoint x="1650" y="1724" />
            </Array>
          </mxGeometry>
        </mxCell>
        <mxCell id="lvPgslv1diBqqbOyzU0L-203" value="" style="endArrow=none;html=1;rounded=0;strokeColor=#EEEEEE;fontColor=#FFFFFF;entryX=0.5;entryY=0;entryDx=0;entryDy=0;exitX=0.5;exitY=1;exitDx=0;exitDy=0;" parent="1" source="lvPgslv1diBqqbOyzU0L-12" target="lvPgslv1diBqqbOyzU0L-108" edge="1">
          <mxGeometry width="50" height="50" relative="1" as="geometry">
            <mxPoint x="1595" y="2077" as="sourcePoint" />
            <mxPoint x="1645" y="2027" as="targetPoint" />
            <Array as="points">
              <mxPoint x="1578" y="1631" />
              <mxPoint x="1578" y="1724" />
              <mxPoint x="1652" y="1724" />
              <mxPoint x="1652" y="1807" />
              <mxPoint x="1726" y="1807" />
            </Array>
          </mxGeometry>
        </mxCell>
        <mxCell id="lvPgslv1diBqqbOyzU0L-204" value="" style="endArrow=none;html=1;rounded=0;strokeColor=#EEEEEE;fontColor=#FFFFFF;entryX=0.5;entryY=1;entryDx=0;entryDy=0;exitX=0.5;exitY=0;exitDx=0;exitDy=0;" parent="1" source="lvPgslv1diBqqbOyzU0L-104" target="lvPgslv1diBqqbOyzU0L-12" edge="1">
          <mxGeometry width="50" height="50" relative="1" as="geometry">
            <mxPoint x="1843" y="1991" as="sourcePoint" />
            <mxPoint x="1893" y="1941" as="targetPoint" />
            <Array as="points">
              <mxPoint x="1787" y="1722" />
              <mxPoint x="1578" y="1722" />
              <mxPoint x="1578" y="1631" />
            </Array>
          </mxGeometry>
        </mxCell>
        <mxCell id="lvPgslv1diBqqbOyzU0L-205" value="" style="ellipse;whiteSpace=wrap;html=1;strokeColor=#BAC8D3;fontColor=#182E3E;fillColor=#B1DDF0;labelBackgroundColor=none;" parent="1" vertex="1">
          <mxGeometry x="1305" y="1660" width="100" height="50" as="geometry" />
        </mxCell>
        <mxCell id="lvPgslv1diBqqbOyzU0L-206" value="Edited&lt;br&gt;Marker" style="text;html=1;strokeColor=none;fillColor=none;align=center;verticalAlign=middle;whiteSpace=wrap;rounded=0;fontColor=#182E3E;labelBackgroundColor=none;" parent="1" vertex="1">
          <mxGeometry x="1322.5" y="1670" width="65" height="30" as="geometry" />
        </mxCell>
        <mxCell id="lvPgslv1diBqqbOyzU0L-207" value="" style="ellipse;whiteSpace=wrap;html=1;strokeColor=#BAC8D3;fontColor=#182E3E;fillColor=#B1DDF0;labelBackgroundColor=none;" parent="1" vertex="1">
          <mxGeometry x="1305" y="1822" width="100" height="50" as="geometry" />
        </mxCell>
        <mxCell id="lvPgslv1diBqqbOyzU0L-208" value="Edited&lt;br&gt;by (Login)" style="text;html=1;strokeColor=none;fillColor=none;align=center;verticalAlign=middle;whiteSpace=wrap;rounded=0;fontColor=#182E3E;labelBackgroundColor=none;" parent="1" vertex="1">
          <mxGeometry x="1322.5" y="1832" width="65" height="30" as="geometry" />
        </mxCell>
        <mxCell id="lvPgslv1diBqqbOyzU0L-209" value="" style="endArrow=none;html=1;rounded=0;strokeColor=#EEEEEE;fontColor=#FFFFFF;entryX=0.5;entryY=0;entryDx=0;entryDy=0;exitX=0.5;exitY=1;exitDx=0;exitDy=0;" parent="1" source="lvPgslv1diBqqbOyzU0L-12" target="lvPgslv1diBqqbOyzU0L-205" edge="1">
          <mxGeometry width="50" height="50" relative="1" as="geometry">
            <mxPoint x="1219" y="1822" as="sourcePoint" />
            <mxPoint x="1269" y="1772" as="targetPoint" />
            <Array as="points">
              <mxPoint x="1578" y="1630" />
              <mxPoint x="1355" y="1630" />
            </Array>
          </mxGeometry>
        </mxCell>
        <mxCell id="lvPgslv1diBqqbOyzU0L-210" value="" style="endArrow=none;html=1;rounded=0;strokeColor=#EEEEEE;fontColor=#FFFFFF;entryX=0.5;entryY=0;entryDx=0;entryDy=0;exitX=0.5;exitY=1;exitDx=0;exitDy=0;" parent="1" source="lvPgslv1diBqqbOyzU0L-12" target="lvPgslv1diBqqbOyzU0L-207" edge="1">
          <mxGeometry width="50" height="50" relative="1" as="geometry">
            <mxPoint x="1155" y="1842" as="sourcePoint" />
            <mxPoint x="1205" y="1792" as="targetPoint" />
            <Array as="points">
              <mxPoint x="1578" y="1630" />
              <mxPoint x="1441" y="1630" />
              <mxPoint x="1441" y="1726" />
              <mxPoint x="1355" y="1726" />
            </Array>
          </mxGeometry>
        </mxCell>
        <mxCell id="lvPgslv1diBqqbOyzU0L-212" value="" style="rounded=0;whiteSpace=wrap;html=1;strokeColor=#BAC8D3;fontColor=#182E3E;fillColor=#B1DDF0;labelBackgroundColor=none;" parent="1" vertex="1">
          <mxGeometry x="1257" y="2288" width="150" height="80" as="geometry" />
        </mxCell>
        <mxCell id="lvPgslv1diBqqbOyzU0L-213" value="" style="rounded=0;whiteSpace=wrap;html=1;strokeColor=#BAC8D3;fontColor=#182E3E;fillColor=#B1DDF0;labelBackgroundColor=none;" parent="1" vertex="1">
          <mxGeometry x="1267" y="2298" width="130" height="60" as="geometry" />
        </mxCell>
        <mxCell id="lvPgslv1diBqqbOyzU0L-214" value="Supply Data (Fully RSA Encoded)" style="text;html=1;strokeColor=none;fillColor=none;align=center;verticalAlign=middle;whiteSpace=wrap;rounded=0;fontColor=#182E3E;labelBackgroundColor=none;" parent="1" vertex="1">
          <mxGeometry x="1287" y="2310.5" width="90" height="35" as="geometry" />
        </mxCell>
        <mxCell id="lvPgslv1diBqqbOyzU0L-215" value="" style="strokeWidth=2;html=1;shape=mxgraph.flowchart.decision;whiteSpace=wrap;strokeColor=#BAC8D3;fontColor=#182E3E;fillColor=#B1DDF0;labelBackgroundColor=none;" parent="1" vertex="1">
          <mxGeometry x="1257" y="2160" width="150" height="55" as="geometry" />
        </mxCell>
        <mxCell id="lvPgslv1diBqqbOyzU0L-216" value="" style="strokeWidth=2;html=1;shape=mxgraph.flowchart.decision;whiteSpace=wrap;strokeColor=#BAC8D3;fontColor=#182E3E;fillColor=#B1DDF0;labelBackgroundColor=none;" parent="1" vertex="1">
          <mxGeometry x="1272" y="2162.5" width="120" height="50" as="geometry" />
        </mxCell>
        <mxCell id="lvPgslv1diBqqbOyzU0L-217" value="" style="endArrow=none;html=1;rounded=0;strokeColor=#EEEEEE;entryX=0.5;entryY=1;entryDx=0;entryDy=0;entryPerimeter=0;exitX=0.5;exitY=0;exitDx=0;exitDy=0;labelBackgroundColor=none;fontColor=default;" parent="1" source="lvPgslv1diBqqbOyzU0L-212" target="lvPgslv1diBqqbOyzU0L-215" edge="1">
          <mxGeometry width="50" height="50" relative="1" as="geometry">
            <mxPoint x="1167" y="2367.5" as="sourcePoint" />
            <mxPoint x="1217" y="2317.5" as="targetPoint" />
          </mxGeometry>
        </mxCell>
        <mxCell id="lvPgslv1diBqqbOyzU0L-218" value="1" style="text;html=1;strokeColor=none;fillColor=none;align=center;verticalAlign=middle;whiteSpace=wrap;rounded=0;fontColor=#182E3E;labelBackgroundColor=none;" parent="1" vertex="1">
          <mxGeometry x="1272" y="2249" width="90" height="35" as="geometry" />
        </mxCell>
        <mxCell id="lvPgslv1diBqqbOyzU0L-219" value="Include" style="text;html=1;strokeColor=none;fillColor=none;align=center;verticalAlign=middle;whiteSpace=wrap;rounded=0;fontColor=#182E3E;labelBackgroundColor=none;" parent="1" vertex="1">
          <mxGeometry x="1287" y="2170" width="90" height="35" as="geometry" />
        </mxCell>
        <mxCell id="lvPgslv1diBqqbOyzU0L-220" value="" style="ellipse;whiteSpace=wrap;html=1;strokeColor=#BAC8D3;fontColor=#182E3E;fillColor=#B1DDF0;labelBackgroundColor=none;" parent="1" vertex="1">
          <mxGeometry x="1223" y="2428" width="100" height="50" as="geometry" />
        </mxCell>
        <mxCell id="lvPgslv1diBqqbOyzU0L-221" value="Name" style="text;html=1;strokeColor=none;fillColor=none;align=center;verticalAlign=middle;whiteSpace=wrap;rounded=0;fontColor=#182E3E;labelBackgroundColor=none;" parent="1" vertex="1">
          <mxGeometry x="1243" y="2438" width="60" height="30" as="geometry" />
        </mxCell>
        <mxCell id="lvPgslv1diBqqbOyzU0L-222" value="" style="endArrow=none;html=1;rounded=0;strokeColor=#EEEEEE;entryX=0.5;entryY=1;entryDx=0;entryDy=0;exitX=0.5;exitY=0;exitDx=0;exitDy=0;labelBackgroundColor=none;fontColor=default;" parent="1" source="lvPgslv1diBqqbOyzU0L-220" target="lvPgslv1diBqqbOyzU0L-212" edge="1">
          <mxGeometry width="50" height="50" relative="1" as="geometry">
            <mxPoint x="1152" y="2576" as="sourcePoint" />
            <mxPoint x="1202" y="2526" as="targetPoint" />
            <Array as="points">
              <mxPoint x="1273" y="2397" />
              <mxPoint x="1332" y="2397" />
            </Array>
          </mxGeometry>
        </mxCell>
        <mxCell id="lvPgslv1diBqqbOyzU0L-223" value="" style="ellipse;whiteSpace=wrap;html=1;strokeColor=#BAC8D3;fontColor=#182E3E;fillColor=#B1DDF0;labelBackgroundColor=none;" parent="1" vertex="1">
          <mxGeometry x="1348" y="2428" width="100" height="50" as="geometry" />
        </mxCell>
        <mxCell id="lvPgslv1diBqqbOyzU0L-224" value="Email" style="text;html=1;strokeColor=none;fillColor=none;align=center;verticalAlign=middle;whiteSpace=wrap;rounded=0;fontColor=#182E3E;labelBackgroundColor=none;" parent="1" vertex="1">
          <mxGeometry x="1368" y="2438" width="60" height="30" as="geometry" />
        </mxCell>
        <mxCell id="lvPgslv1diBqqbOyzU0L-225" value="" style="endArrow=none;html=1;rounded=0;strokeColor=#EEEEEE;fontColor=#FFFFFF;entryX=0.5;entryY=1;entryDx=0;entryDy=0;exitX=0.5;exitY=0;exitDx=0;exitDy=0;" parent="1" source="lvPgslv1diBqqbOyzU0L-223" target="lvPgslv1diBqqbOyzU0L-212" edge="1">
          <mxGeometry width="50" height="50" relative="1" as="geometry">
            <mxPoint x="1235" y="2597" as="sourcePoint" />
            <mxPoint x="1285" y="2547" as="targetPoint" />
            <Array as="points">
              <mxPoint x="1398" y="2397" />
              <mxPoint x="1332" y="2397" />
            </Array>
          </mxGeometry>
        </mxCell>
        <mxCell id="lvPgslv1diBqqbOyzU0L-226" value="" style="endArrow=none;html=1;rounded=0;strokeColor=#EEEEEE;fontColor=#FFFFFF;entryX=0.75;entryY=1;entryDx=0;entryDy=0;exitX=0.5;exitY=0;exitDx=0;exitDy=0;exitPerimeter=0;" parent="1" source="lvPgslv1diBqqbOyzU0L-215" target="j-sWp2HfxqR8ignj8HMA-133" edge="1">
          <mxGeometry width="50" height="50" relative="1" as="geometry">
            <mxPoint x="710" y="2091" as="sourcePoint" />
            <mxPoint x="760" y="2041" as="targetPoint" />
            <Array as="points">
              <mxPoint x="1332" y="2137" />
              <mxPoint x="543" y="2144" />
            </Array>
          </mxGeometry>
        </mxCell>
        <mxCell id="lvPgslv1diBqqbOyzU0L-227" value="" style="endArrow=none;html=1;rounded=0;strokeColor=#EEEEEE;fontColor=#FFFFFF;entryX=0.5;entryY=0;entryDx=0;entryDy=0;exitX=0.5;exitY=1;exitDx=0;exitDy=0;" parent="1" source="lvPgslv1diBqqbOyzU0L-72" target="lvPgslv1diBqqbOyzU0L-113" edge="1">
          <mxGeometry width="50" height="50" relative="1" as="geometry">
            <mxPoint x="1987" y="1976" as="sourcePoint" />
            <mxPoint x="2037" y="1926" as="targetPoint" />
            <Array as="points">
              <mxPoint x="2276" y="1626" />
              <mxPoint x="2205" y="1626" />
              <mxPoint x="2205" y="1727" />
              <mxPoint x="2136" y="1727" />
            </Array>
          </mxGeometry>
        </mxCell>
        <mxCell id="lvPgslv1diBqqbOyzU0L-229" value="" style="endArrow=none;html=1;rounded=0;strokeColor=#EEEEEE;fontColor=#FFFFFF;entryX=0.5;entryY=1;entryDx=0;entryDy=0;exitX=0.5;exitY=0;exitDx=0;exitDy=0;" parent="1" source="lvPgslv1diBqqbOyzU0L-87" target="lvPgslv1diBqqbOyzU0L-72" edge="1">
          <mxGeometry width="50" height="50" relative="1" as="geometry">
            <mxPoint x="2270" y="1983" as="sourcePoint" />
            <mxPoint x="2320" y="1933" as="targetPoint" />
            <Array as="points">
              <mxPoint x="2358" y="1626" />
              <mxPoint x="2276" y="1626" />
            </Array>
          </mxGeometry>
        </mxCell>
        <mxCell id="lvPgslv1diBqqbOyzU0L-230" value="" style="endArrow=none;html=1;rounded=0;strokeColor=#EEEEEE;fontColor=#FFFFFF;entryX=0.5;entryY=1;entryDx=0;entryDy=0;exitX=0.5;exitY=0;exitDx=0;exitDy=0;" parent="1" source="lvPgslv1diBqqbOyzU0L-89" target="lvPgslv1diBqqbOyzU0L-72" edge="1">
          <mxGeometry width="50" height="50" relative="1" as="geometry">
            <mxPoint x="2266" y="2004" as="sourcePoint" />
            <mxPoint x="2316" y="1954" as="targetPoint" />
            <Array as="points">
              <mxPoint x="2438" y="1627" />
              <mxPoint x="2276" y="1627" />
            </Array>
          </mxGeometry>
        </mxCell>
        <mxCell id="lvPgslv1diBqqbOyzU0L-231" value="" style="endArrow=none;html=1;rounded=0;strokeColor=#EEEEEE;fontColor=#FFFFFF;entryX=0.5;entryY=0;entryDx=0;entryDy=0;exitX=0.5;exitY=1;exitDx=0;exitDy=0;" parent="1" source="lvPgslv1diBqqbOyzU0L-72" target="lvPgslv1diBqqbOyzU0L-153" edge="1">
          <mxGeometry width="50" height="50" relative="1" as="geometry">
            <mxPoint x="2200" y="1992" as="sourcePoint" />
            <mxPoint x="2250" y="1942" as="targetPoint" />
            <Array as="points">
              <mxPoint x="2276" y="1626" />
              <mxPoint x="2359" y="1626" />
              <mxPoint x="2359" y="1719" />
              <mxPoint x="2283" y="1719" />
            </Array>
          </mxGeometry>
        </mxCell>
        <mxCell id="lvPgslv1diBqqbOyzU0L-232" value="" style="endArrow=none;html=1;rounded=0;strokeColor=#EEEEEE;fontColor=#FFFFFF;entryX=0.5;entryY=1;entryDx=0;entryDy=0;exitX=0.5;exitY=0;exitDx=0;exitDy=0;" parent="1" source="lvPgslv1diBqqbOyzU0L-155" target="lvPgslv1diBqqbOyzU0L-72" edge="1">
          <mxGeometry width="50" height="50" relative="1" as="geometry">
            <mxPoint x="2415" y="2043" as="sourcePoint" />
            <mxPoint x="2465" y="1993" as="targetPoint" />
            <Array as="points">
              <mxPoint x="2448" y="1717" />
              <mxPoint x="2358" y="1717" />
              <mxPoint x="2358" y="1625" />
              <mxPoint x="2276" y="1625" />
            </Array>
          </mxGeometry>
        </mxCell>
        <mxCell id="lvPgslv1diBqqbOyzU0L-233" value="" style="endArrow=none;html=1;rounded=0;strokeColor=#EEEEEE;fontColor=#FFFFFF;entryX=0.5;entryY=0;entryDx=0;entryDy=0;entryPerimeter=0;exitX=0.5;exitY=1;exitDx=0;exitDy=0;" parent="1" source="lvPgslv1diBqqbOyzU0L-1" target="lvPgslv1diBqqbOyzU0L-69" edge="1">
          <mxGeometry width="50" height="50" relative="1" as="geometry">
            <mxPoint x="2036" y="1479" as="sourcePoint" />
            <mxPoint x="2086" y="1429" as="targetPoint" />
          </mxGeometry>
        </mxCell>
        <mxCell id="lvPgslv1diBqqbOyzU0L-234" value="" style="ellipse;whiteSpace=wrap;html=1;strokeColor=#BAC8D3;fontColor=#182E3E;fillColor=#B1DDF0;labelBackgroundColor=none;" parent="1" vertex="1">
          <mxGeometry x="1282" y="2507" width="100" height="50" as="geometry" />
        </mxCell>
        <mxCell id="lvPgslv1diBqqbOyzU0L-235" value="RSA Key" style="text;html=1;strokeColor=none;fillColor=none;align=center;verticalAlign=middle;whiteSpace=wrap;rounded=0;fontColor=#182E3E;labelBackgroundColor=none;" parent="1" vertex="1">
          <mxGeometry x="1302" y="2517" width="60" height="30" as="geometry" />
        </mxCell>
        <mxCell id="lvPgslv1diBqqbOyzU0L-236" value="" style="endArrow=none;html=1;rounded=0;strokeColor=#EEEEEE;fontColor=#FFFFFF;entryX=0.5;entryY=1;entryDx=0;entryDy=0;exitX=0.5;exitY=0;exitDx=0;exitDy=0;" parent="1" source="lvPgslv1diBqqbOyzU0L-234" target="lvPgslv1diBqqbOyzU0L-212" edge="1">
          <mxGeometry width="50" height="50" relative="1" as="geometry">
            <mxPoint x="1397" y="2606" as="sourcePoint" />
            <mxPoint x="1447" y="2556" as="targetPoint" />
          </mxGeometry>
        </mxCell>
        <mxCell id="lvPgslv1diBqqbOyzU0L-237" value="" style="endArrow=none;html=1;rounded=0;strokeColor=#EEEEEE;fontColor=#FFFFFF;entryX=0.75;entryY=1;entryDx=0;entryDy=0;exitX=0.5;exitY=0;exitDx=0;exitDy=0;exitPerimeter=0;" parent="1" source="lvPgslv1diBqqbOyzU0L-115" target="lvPgslv1diBqqbOyzU0L-1" edge="1">
          <mxGeometry width="50" height="50" relative="1" as="geometry">
            <mxPoint x="2389" y="1444" as="sourcePoint" />
            <mxPoint x="2439" y="1394" as="targetPoint" />
            <Array as="points">
              <mxPoint x="2726" y="1325" />
              <mxPoint x="2306" y="1325" />
            </Array>
          </mxGeometry>
        </mxCell>
        <mxCell id="lvPgslv1diBqqbOyzU0L-238" value="" style="endArrow=none;html=1;rounded=0;strokeColor=#EEEEEE;fontColor=#FFFFFF;entryX=0.75;entryY=1;entryDx=0;entryDy=0;exitX=0.5;exitY=0;exitDx=0;exitDy=0;exitPerimeter=0;" parent="1" source="lvPgslv1diBqqbOyzU0L-132" target="lvPgslv1diBqqbOyzU0L-1" edge="1">
          <mxGeometry width="50" height="50" relative="1" as="geometry">
            <mxPoint x="2577" y="1540" as="sourcePoint" />
            <mxPoint x="2627" y="1490" as="targetPoint" />
            <Array as="points">
              <mxPoint x="3120" y="1325" />
              <mxPoint x="2306" y="1325" />
            </Array>
          </mxGeometry>
        </mxCell>
        <mxCell id="lvPgslv1diBqqbOyzU0L-239" value="" style="endArrow=none;html=1;rounded=0;strokeColor=#EEEEEE;fontColor=#FFFFFF;entryX=0.5;entryY=1;entryDx=0;entryDy=0;exitX=0.5;exitY=0;exitDx=0;exitDy=0;" parent="1" source="lvPgslv1diBqqbOyzU0L-122" target="lvPgslv1diBqqbOyzU0L-118" edge="1">
          <mxGeometry width="50" height="50" relative="1" as="geometry">
            <mxPoint x="2548" y="1744" as="sourcePoint" />
            <mxPoint x="2598" y="1694" as="targetPoint" />
            <Array as="points">
              <mxPoint x="2663" y="1628" />
              <mxPoint x="2726" y="1628" />
            </Array>
          </mxGeometry>
        </mxCell>
        <mxCell id="lvPgslv1diBqqbOyzU0L-240" value="" style="endArrow=none;html=1;rounded=0;strokeColor=#EEEEEE;fontColor=#FFFFFF;entryX=0.5;entryY=1;entryDx=0;entryDy=0;exitX=0.5;exitY=0;exitDx=0;exitDy=0;" parent="1" source="lvPgslv1diBqqbOyzU0L-126" target="lvPgslv1diBqqbOyzU0L-118" edge="1">
          <mxGeometry width="50" height="50" relative="1" as="geometry">
            <mxPoint x="2500" y="2044" as="sourcePoint" />
            <mxPoint x="2550" y="1994" as="targetPoint" />
          </mxGeometry>
        </mxCell>
        <mxCell id="lvPgslv1diBqqbOyzU0L-241" value="" style="endArrow=none;html=1;rounded=0;strokeColor=#EEEEEE;fontColor=#FFFFFF;entryX=0.5;entryY=1;entryDx=0;entryDy=0;exitX=0.5;exitY=0;exitDx=0;exitDy=0;" parent="1" source="lvPgslv1diBqqbOyzU0L-124" target="lvPgslv1diBqqbOyzU0L-118" edge="1">
          <mxGeometry width="50" height="50" relative="1" as="geometry">
            <mxPoint x="2561" y="2040" as="sourcePoint" />
            <mxPoint x="2611" y="1990" as="targetPoint" />
            <Array as="points">
              <mxPoint x="2789" y="1630" />
              <mxPoint x="2726" y="1630" />
            </Array>
          </mxGeometry>
        </mxCell>
        <mxCell id="lvPgslv1diBqqbOyzU0L-242" value="" style="endArrow=none;html=1;rounded=0;strokeColor=#EEEEEE;fontColor=#FFFFFF;entryX=0.5;entryY=0;entryDx=0;entryDy=0;exitX=0.5;exitY=1;exitDx=0;exitDy=0;" parent="1" source="lvPgslv1diBqqbOyzU0L-118" target="lvPgslv1diBqqbOyzU0L-130" edge="1">
          <mxGeometry width="50" height="50" relative="1" as="geometry">
            <mxPoint x="2582" y="2022" as="sourcePoint" />
            <mxPoint x="2632" y="1972" as="targetPoint" />
            <Array as="points">
              <mxPoint x="2726" y="1626" />
              <mxPoint x="2596" y="1626" />
            </Array>
          </mxGeometry>
        </mxCell>
        <mxCell id="lvPgslv1diBqqbOyzU0L-243" value="" style="endArrow=none;html=1;rounded=0;strokeColor=#EEEEEE;fontColor=#FFFFFF;entryX=0.5;entryY=0;entryDx=0;entryDy=0;exitX=0.5;exitY=1;exitDx=0;exitDy=0;" parent="1" source="lvPgslv1diBqqbOyzU0L-118" target="lvPgslv1diBqqbOyzU0L-149" edge="1">
          <mxGeometry width="50" height="50" relative="1" as="geometry">
            <mxPoint x="2577" y="2023" as="sourcePoint" />
            <mxPoint x="2627" y="1973" as="targetPoint" />
            <Array as="points">
              <mxPoint x="2726" y="1733" />
              <mxPoint x="2663" y="1733" />
            </Array>
          </mxGeometry>
        </mxCell>
        <mxCell id="lvPgslv1diBqqbOyzU0L-244" value="" style="endArrow=none;html=1;rounded=0;strokeColor=#EEEEEE;fontColor=#FFFFFF;entryX=0.5;entryY=1;entryDx=0;entryDy=0;exitX=0.5;exitY=0;exitDx=0;exitDy=0;" parent="1" source="lvPgslv1diBqqbOyzU0L-151" target="lvPgslv1diBqqbOyzU0L-118" edge="1">
          <mxGeometry width="50" height="50" relative="1" as="geometry">
            <mxPoint x="2707" y="2030" as="sourcePoint" />
            <mxPoint x="2757" y="1980" as="targetPoint" />
            <Array as="points">
              <mxPoint x="2794" y="1734" />
              <mxPoint x="2726" y="1734" />
            </Array>
          </mxGeometry>
        </mxCell>
        <mxCell id="lvPgslv1diBqqbOyzU0L-245" value="" style="endArrow=none;html=1;rounded=0;strokeColor=#EEEEEE;fontColor=#FFFFFF;entryX=0.5;entryY=1;entryDx=0;entryDy=0;exitX=0.5;exitY=0;exitDx=0;exitDy=0;" parent="1" source="lvPgslv1diBqqbOyzU0L-128" target="lvPgslv1diBqqbOyzU0L-118" edge="1">
          <mxGeometry width="50" height="50" relative="1" as="geometry">
            <mxPoint x="2903" y="1978" as="sourcePoint" />
            <mxPoint x="2953" y="1928" as="targetPoint" />
            <Array as="points">
              <mxPoint x="2850" y="1733" />
              <mxPoint x="2726" y="1733" />
            </Array>
          </mxGeometry>
        </mxCell>
        <mxCell id="lvPgslv1diBqqbOyzU0L-246" value="1" style="text;html=1;strokeColor=none;fillColor=none;align=center;verticalAlign=middle;whiteSpace=wrap;rounded=0;fontColor=#182E3E;labelBackgroundColor=none;" parent="1" vertex="1">
          <mxGeometry x="2180" y="1286" width="90" height="35" as="geometry" />
        </mxCell>
        <mxCell id="lvPgslv1diBqqbOyzU0L-247" value="1" style="text;html=1;strokeColor=none;fillColor=none;align=center;verticalAlign=middle;whiteSpace=wrap;rounded=0;fontColor=#182E3E;labelBackgroundColor=none;" parent="1" vertex="1">
          <mxGeometry x="2219" y="1288" width="89.5" height="35" as="geometry" />
        </mxCell>
        <mxCell id="lvPgslv1diBqqbOyzU0L-248" value="1" style="text;html=1;strokeColor=none;fillColor=none;align=center;verticalAlign=middle;whiteSpace=wrap;rounded=0;fontColor=#182E3E;labelBackgroundColor=none;" parent="1" vertex="1">
          <mxGeometry x="2253" y="1288" width="90" height="35" as="geometry" />
        </mxCell>
        <mxCell id="lvPgslv1diBqqbOyzU0L-249" value="1" style="text;html=1;strokeColor=none;fillColor=none;align=center;verticalAlign=middle;whiteSpace=wrap;rounded=0;fontColor=#182E3E;labelBackgroundColor=none;" parent="1" vertex="1">
          <mxGeometry x="1515" y="1473" width="90" height="35" as="geometry" />
        </mxCell>
        <mxCell id="lvPgslv1diBqqbOyzU0L-250" value="1" style="text;html=1;strokeColor=none;fillColor=none;align=center;verticalAlign=middle;whiteSpace=wrap;rounded=0;fontColor=#182E3E;labelBackgroundColor=none;" parent="1" vertex="1">
          <mxGeometry x="903" y="1473" width="90" height="35" as="geometry" />
        </mxCell>
        <mxCell id="lvPgslv1diBqqbOyzU0L-251" value="1" style="text;html=1;strokeColor=none;fillColor=none;align=center;verticalAlign=middle;whiteSpace=wrap;rounded=0;fontColor=#182E3E;labelBackgroundColor=none;" parent="1" vertex="1">
          <mxGeometry x="2216" y="1479" width="90" height="35" as="geometry" />
        </mxCell>
        <mxCell id="lvPgslv1diBqqbOyzU0L-252" value="M" style="text;html=1;strokeColor=none;fillColor=none;align=center;verticalAlign=middle;whiteSpace=wrap;rounded=0;fontColor=#182E3E;labelBackgroundColor=none;" parent="1" vertex="1">
          <mxGeometry x="2659" y="1473" width="90" height="35" as="geometry" />
        </mxCell>
        <mxCell id="lvPgslv1diBqqbOyzU0L-253" value="M" style="text;html=1;strokeColor=none;fillColor=none;align=center;verticalAlign=middle;whiteSpace=wrap;rounded=0;fontColor=#182E3E;labelBackgroundColor=none;" parent="1" vertex="1">
          <mxGeometry x="3059" y="1473" width="90" height="35" as="geometry" />
        </mxCell>
        <mxCell id="KL6e5Bjy-vHhWO5yOyfz-1" value="" style="ellipse;whiteSpace=wrap;html=1;strokeColor=#BAC8D3;fontColor=#182E3E;fillColor=#B1DDF0;labelBackgroundColor=none;" vertex="1" parent="1">
          <mxGeometry x="1418" y="2509" width="100" height="50" as="geometry" />
        </mxCell>
        <mxCell id="KL6e5Bjy-vHhWO5yOyfz-2" value="Working Marker" style="text;html=1;strokeColor=none;fillColor=none;align=center;verticalAlign=middle;whiteSpace=wrap;rounded=0;fontColor=#182E3E;labelBackgroundColor=none;" vertex="1" parent="1">
          <mxGeometry x="1438" y="2519" width="60" height="30" as="geometry" />
        </mxCell>
        <mxCell id="KL6e5Bjy-vHhWO5yOyfz-3" value="" style="endArrow=none;html=1;rounded=0;entryX=0.5;entryY=1;entryDx=0;entryDy=0;exitX=0.5;exitY=0;exitDx=0;exitDy=0;strokeColor=#EEEEEE;" edge="1" parent="1" source="KL6e5Bjy-vHhWO5yOyfz-1" target="lvPgslv1diBqqbOyzU0L-212">
          <mxGeometry width="50" height="50" relative="1" as="geometry">
            <mxPoint x="1537" y="2465" as="sourcePoint" />
            <mxPoint x="1587" y="2415" as="targetPoint" />
            <Array as="points">
              <mxPoint x="1470" y="2398" />
              <mxPoint x="1332" y="2398" />
            </Array>
          </mxGeometry>
        </mxCell>
      </root>
    </mxGraphModel>
  </diagram>
</mxfile>
